<?xml version="1.0" encoding="UTF-8" standalone="no"?>
<!-- Created with Inkscape (http://www.inkscape.org/) -->

<svg
   xmlns:dc="http://purl.org/dc/elements/1.1/"
   xmlns:cc="http://creativecommons.org/ns#"
   xmlns:rdf="http://www.w3.org/1999/02/22-rdf-syntax-ns#"
   xmlns:svg="http://www.w3.org/2000/svg"
   xmlns="http://www.w3.org/2000/svg"
   xmlns:sodipodi="http://sodipodi.sourceforge.net/DTD/sodipodi-0.dtd"
   xmlns:inkscape="http://www.inkscape.org/namespaces/inkscape"
   width="300mm"
   height="300mm"
   viewBox="0 0 300 300"
   version="1.1"
   id="svg8"
   inkscape:version="0.92.3 (2405546, 2018-03-11)"
   sodipodi:docname="lego vector.svg">
  <defs
     id="defs2" />
  <sodipodi:namedview
     id="base"
     pagecolor="#ffffff"
     bordercolor="#666666"
     borderopacity="1.0"
     inkscape:pageopacity="0.0"
     inkscape:pageshadow="2"
     inkscape:zoom="0.49497475"
     inkscape:cx="503.55808"
     inkscape:cy="410.47146"
     inkscape:document-units="mm"
     inkscape:current-layer="layer1"
     showgrid="false"
     inkscape:window-width="1920"
     inkscape:window-height="1001"
     inkscape:window-x="-9"
     inkscape:window-y="-9"
     inkscape:window-maximized="1" />
  <metadata
     id="metadata5">
    <rdf:RDF>
      <cc:Work
         rdf:about="">
        <dc:format>image/svg+xml</dc:format>
        <dc:type
           rdf:resource="http://purl.org/dc/dcmitype/StillImage" />
        <dc:title></dc:title>
      </cc:Work>
    </rdf:RDF>
  </metadata>
  <g
     inkscape:label="Layer 1"
     inkscape:groupmode="layer"
     id="layer1"
     transform="translate(0,3)">
    <g
       id="g826"
       transform="matrix(0.56692911,0,0,0.56692911,161.57142,62.62205)">
      <path
         style="fill:#fcfcfc;stroke-width:0.26458335"
         d="M -284.99405,148.83333 V -115.75001 H -20.410705 244.17264 V 148.83333 413.41668 H -20.410705 -284.99405 Z"
         id="path834"
         inkscape:connector-curvature="0" />
      <path
         style="fill:#f2e634;stroke-width:0.26458335"
         d="M -284.99405,148.83333 V -115.75001 H -20.410705 244.17264 V 148.83333 413.41668 H -20.410705 -284.99405 Z m 182.82709,81.61989 c 13.10433,-1.47383 23.356456,-5.63459 30.244135,-12.27431 4.613193,-4.44714 7.173222,-9.50854 8.108902,-16.03203 1.17415,-8.18605 -1.642245,-14.27819 -7.995407,-17.29484 -4.557921,-2.16423 -8.985348,-2.83135 -17.260753,-2.60088 -6.243122,0.17389 -10.515537,0.72991 -16.658727,2.16797 -4.366,1.02204 -4.90482,1.08636 -4.90482,0.5855 0,-1.40002 7.13991,-24.33251 7.67966,-24.66607 0.12416,-0.0768 2.28679,0.17026 4.805858,0.54885 6.245191,0.93866 15.098327,1.17893 19.529071,0.52999 11.468677,-1.67971 18.692681,-7.79423 22.213378,-18.80177 3.627276,-11.34077 -0.549876,-17.61798 -12.952961,-19.46506 -2.829049,-0.4213 -11.369569,-0.34889 -15.875001,0.1346 -4.704445,0.50484 -4.497916,0.50587 -4.497916,-0.0224 0,-1.29434 6.496611,-15.0725 8.808363,-18.68098 l 0.974648,-1.52136 7.477766,-0.003 c 15.218492,-0.005 21.87075,-0.81463 28.497404,-3.467446 7.117506,-2.849314 12.141074,-8.152707 14.049024,-14.831592 0.781431,-2.735448 0.999942,-7.970761 0.42586,-10.203202 -1.751013,-6.809177 -8.164275,-11.504195 -18.958064,-13.878814 -2.625074,-0.577514 -3.310159,-0.610807 -12.435417,-0.604301 -7.626713,0.0054 -10.463962,0.106177 -13.49375,0.479108 -26.618733,3.276534 -39.291843,15.77992 -56.226393,55.473467 -11.62518,27.24873 -19.05871,53.78762 -20.52836,73.28959 -1.02776,13.63813 1.7938,22.75377 9.38474,30.31942 4.15149,4.13766 8.60376,6.81924 14.69011,8.84778 7.45784,2.48562 15.00998,3.08358 24.89865,1.97143 z m 98.4250057,0.13634 C 18.682146,227.37408 37.057856,214.225 49.317537,192.62188 c 6.494542,-11.44421 11.39362,-26.87728 12.27328,-38.6633 0.567399,-7.60263 -0.939509,-13.33839 -4.506013,-17.15099 -3.555471,-3.80079 -7.890246,-5.59901 -15.094876,-6.26191 -5.828375,-0.53627 -14.432493,0.31034 -19.405839,1.90946 -6.677396,2.14703 -11.338323,6.77262 -14.2372302,14.12924 -1.4333009,3.63733 -1.8697841,5.5445 -1.8772189,8.20208 -0.00582,2.11675 0.083688,2.57228 0.8065559,4.10104 0.4472781,0.94589 1.3360665,2.23496 1.9751411,2.86465 1.5945111,1.57104 4.8249421,3.08292 7.7765011,3.63947 3.364945,0.63447 3.127402,0.50131 2.916,1.63462 -0.659924,3.53804 -3.478689,10.23634 -5.760694,13.68939 -5.160116,7.80809 -12.1645897,12.18906 -18.6913581,11.69064 -2.5770418,-0.19682 -3.6579177,-0.52306 -5.2260767,-1.57745 -4.0092582,-2.69573 -4.6118202,-9.04295 -1.9264052,-20.29253 3.2598788,-13.6561 10.80725103,-34.91808 18.3636984,-51.73316 4.4477786,-9.89744 7.7740676,-15.46108 11.3821636,-19.03802 2.341907,-2.321692 4.197774,-3.548475 6.948541,-4.593154 1.569006,-0.59587 2.197735,-0.679399 5.223299,-0.693954 3.245485,-0.01561 3.524382,0.02511 4.942364,0.721426 2.89642,1.422368 3.246993,3.705649 1.434888,9.345922 -1.771095,5.5126 -1.87915,8.41092 -0.424259,11.37979 1.845442,3.76583 5.687007,5.76858 12.408509,6.46901 2.306611,0.24037 3.379708,0.21732 6.037897,-0.12966 12.615228,-1.64669 20.474412,-9.01301 23.890421,-22.392213 1.381919,-5.412449 1.770036,-12.403892 0.917284,-16.52332 C 77.517756,73.946628 70.744872,67.220483 59.625757,63.647462 47.567609,59.772697 30.471953,59.485508 16.895547,62.92964 2.4624193,66.591108 -8.984197,74.639794 -18.979071,88.154849 c -10.189946,13.778861 -22.076276,39.997561 -29.08397,64.153021 -8.201475,28.27039 -8.867873,45.81941 -2.239192,58.96713 5.696807,11.29941 16.17408,17.84028 31.346736,19.56949 2.610671,0.29755 12.5185497,0.13152 15.2135427,-0.25493 z M 116.41519,230.46555 c 18.67363,-1.98191 32.54835,-10.93822 44.27992,-28.58325 3.2095,-4.82733 4.87461,-7.7433 8.46064,-14.81667 12.43748,-24.53265 21.51988,-53.26387 24.3808,-77.12605 0.63838,-5.32485 0.64608,-14.414116 0.0156,-18.520831 -2.77662,-18.087065 -13.01689,-27.61799 -32.45869,-30.210264 -3.33563,-0.444756 -14.96944,-0.435385 -18.25625,0.01471 -14.20686,1.945471 -24.03568,6.389905 -32.95992,14.903935 -7.9951,7.627612 -14.563457,18.110283 -21.352374,34.07704 -9.892507,23.26602 -17.401462,47.12073 -20.404906,64.82292 -1.428988,8.42245 -1.615387,10.56656 -1.610016,18.52083 0.0056,8.34906 0.260429,10.28658 2.007208,15.26339 4.565439,13.00763 15.685692,20.33511 33.177298,21.86155 2.92584,0.25535 11.49929,0.13459 14.72068,-0.20731 z m -4.69684,-38.12447 c -1.60334,-0.59039 -3.14571,-2.04478 -3.98846,-3.76092 -0.70352,-1.4327 -0.74271,-1.70037 -0.72522,-4.95412 0.0156,-2.88538 0.15563,-4.0364 0.86953,-7.14375 4.26053,-18.54451 18.80957,-58.30013 26.13546,-71.41578 1.74845,-3.13026 3.84696,-6.029023 5.26344,-7.270604 0.56403,-0.494387 1.79789,-1.260324 2.7419,-1.702078 1.49421,-0.699227 2.08677,-0.818454 4.57785,-0.921091 3.60291,-0.148444 4.93294,0.192024 6.44787,1.650569 2.70298,2.602357 2.66372,7.214304 -0.15553,18.275654 -3.69898,14.51302 -12.17639,38.85957 -19.58371,56.24317 -5.57004,13.07184 -9.03373,18.24548 -13.6715,20.42081 -1.56546,0.73427 -2.11839,0.85111 -4.30943,0.91066 -1.73905,0.0473 -2.84898,-0.0552 -3.6022,-0.33252 z m -302.65302,37.36234 c 12.97435,-1.98903 22.09515,-6.60249 27.664,-13.99291 4.57054,-6.06558 7.35508,-16.28281 5.92938,-21.75645 -1.22289,-4.69498 -5.00892,-7.91528 -11.1145,-9.4537 -2.11433,-0.53274 -3.02828,-0.59798 -8.45596,-0.60351 -5.34737,-0.006 -9.39725,0.29038 -11.31225,0.82634 -0.25863,0.0724 -0.52896,-0.0385 -0.61023,-0.25029 -0.19791,-0.51573 0.8347,-2.75609 11.00002,-23.86561 9.71791,-20.1804 14.82197,-31.04462 18.66481,-39.72885 10.8936,-24.617863 15.61522,-39.320622 15.11151,-47.056081 -0.44983,-6.908007 -3.76606,-10.660569 -10.56162,-11.951259 -2.70338,-0.513456 -9.62544,-0.338818 -12.63495,0.318772 -9.48626,2.072783 -15.563,7.091964 -22.27357,18.397211 -9.26113,15.602151 -21.30843,41.781817 -30.23676,65.706707 -10.8981,29.2032 -15.94419,52.05455 -14.00304,63.41324 1.90077,11.12245 9.83272,18.09705 22.98941,20.2147 3.1778,0.51149 16.00373,0.37039 19.84375,-0.21831 z"
         id="path832"
         inkscape:connector-curvature="0" />
      <path
         style="fill:#ce0f11;stroke-width:0.26458335"
         d="M -284.99405,148.83333 V -115.75001 H -20.410705 244.17264 V 148.83333 413.41668 H -20.410705 -284.99405 Z m 185.248799,110.47585 c 14.661931,-1.57432 27.028644,-5.6448 38.005574,-12.50947 l 2.724156,-1.7036 1.376886,1.05257 c 6.803227,5.20083 16.042591,9.41557 25.586263,11.67169 7.108217,1.68043 13.140929,2.25111 21.828126,2.06492 7.0827107,-0.15182 10.86434755,-0.54674 17.0656255,-1.78223 8.1910775,-1.63193 15.1112275,-3.98926 22.8864595,-7.79627 7.01384,-3.43421 12.152181,-6.70946 18.153592,-11.57145 1.398747,-1.13318 2.621042,-2.06033 2.71616,-2.06033 0.09514,0 1.808216,1.6515 3.806825,3.66998 5.23883,5.29092 9.560296,8.3779 16.333841,11.66775 7.097898,3.44739 14.615928,5.57176 24.910496,7.0389 3.947769,0.56264 17.159847,0.80534 21.802147,0.4005 32.56063,-2.83946 55.80126,-19.7998 75.26724,-54.92793 2.54968,-4.60113 6.57754,-12.66563 8.32331,-16.66483 6.71309,-15.37806 14.58775,-38.82494 17.68393,-52.65413 1.35761,-6.06386 1.71347,-8.2621 2.67674,-16.53442 1.78216,-15.30472 1.96149,-24.188962 0.66469,-32.927544 -1.98925,-13.404674 -8.27993,-26.057256 -17.51685,-35.231995 -10.6222,-10.550708 -25.58852,-16.852682 -43.63577,-18.374028 -4.80521,-0.405069 -18.38487,-0.180038 -22.4426,0.371899 -16.76572,2.280491 -29.97456,7.49541 -41.455285,16.36676 -2.218082,1.713939 -2.366434,1.727745 -3.656172,0.340236 C 92.996331,48.824781 91.686644,47.698164 90.449717,46.712567 83.726389,41.355352 75.366905,37.281052 66.011635,34.8018 51.70093,31.009302 31.391936,30.373611 15.969505,33.235435 c -9.6886982,1.797857 -18.1027132,4.713571 -27.070924,9.38089 -2.083171,1.084143 -3.90234,1.971172 -4.042596,1.971172 -0.140255,0 -1.590992,-0.941943 -3.223868,-2.093203 -9.43331,-6.650991 -19.294323,-10.045219 -32.337615,-11.130829 -6.278513,-0.522568 -19.948087,-0.256201 -27.64896,0.538771 -16.497655,1.703078 -30.265722,6.660984 -40.534862,14.596672 -1.12089,0.866193 -2.14455,1.509038 -2.27479,1.428541 -0.13025,-0.08049 -0.70144,-0.943044 -1.26931,-1.916774 -1.27625,-2.188369 -4.15613,-5.312114 -6.29894,-6.832309 -4.73281,-3.35764 -11.43025,-5.534907 -20.13356,-6.545207 -4.57781,-0.531403 -16.21985,-0.445085 -20.10833,0.14909 -16.66733,2.546826 -30.0078,10.614395 -40.38733,24.423995 -6.87848,9.151591 -19.22339,32.830613 -28.94054,55.511466 -14.56224,33.98977 -23.25323,63.48966 -25.02169,84.93125 -0.42647,5.17075 -0.17458,12.88548 0.557,17.05899 1.94435,11.09218 6.46511,19.98104 14.00883,27.54458 6.50681,6.52391 12.58112,10.26877 21.82838,13.45737 11.55422,3.98404 27.25545,4.70723 43.1118,1.98567 9.19176,-1.57766 19.0484,-5.16586 26.32618,-9.58376 1.0929,-0.66345 2.11156,-1.20486 2.26369,-1.2032 0.15212,0.003 1.34816,0.69676 2.65784,1.54459 10.11181,6.54605 21.63621,10.15211 36.24792,11.34226 2.52919,0.20601 12.98662,-0.10075 16.576919,-0.48628 z m 80.525171,-12.34143 c -8.479584,-0.69398 -16.420979,-2.82562 -23.275487,-6.24764 -5.370769,-2.68128 -9.4717,-5.68086 -13.818791,-10.10769 l -2.730577,-2.78066 -1.651116,1.60536 c -6.426764,6.24861 -15.076859,11.06892 -25.091384,13.98225 -4.232997,1.23142 -9.954424,2.37326 -14.792025,2.95206 -4.7086,0.56335 -15.81481,0.64452 -19.57917,0.14311 -13.34949,-1.77816 -24.35233,-6.69237 -32.60215,-14.5611 l -2.04278,-1.94842 -0.63678,0.49072 c -0.35023,0.2699 -1.51074,1.25455 -2.5789,2.18811 -5.60621,4.89976 -14.42836,9.17601 -23.47731,11.37988 -11.68483,2.84581 -26.70975,3.16463 -36.90282,0.78304 -14.67148,-3.428 -25.35707,-12.76916 -29.7875,-26.03977 -3.62245,-10.85045 -2.99094,-23.97395 2.12582,-44.17679 5.92101,-23.37832 17.78273,-54.02903 32.01336,-82.722596 6.80221,-13.715458 11.68004,-22.331411 15.65362,-27.649769 2.71567,-3.634735 7.53005,-8.433107 10.77226,-10.73644 8.39148,-5.961481 18.75641,-8.78748 30.4414,-8.29985 11.10566,0.463452 18.08056,2.794487 23.34585,7.802264 4.58916,4.364712 6.33003,8.384821 7.05372,16.288801 0.15921,1.738871 0.35813,3.227152 0.44206,3.307292 0.0839,0.08014 0.34792,-0.146201 0.58668,-0.502981 10.47096,-15.647229 25.56527,-24.193062 47.662226,-26.984575 9.147397,-1.155591 23.273513,-1.366417 29.501043,-0.440288 13.591498,2.021264 24.606095,7.566306 30.336121,15.27201 0.744881,1.001734 1.382342,1.821336 1.416552,1.821336 0.03424,0 1.317176,-0.938868 2.850992,-2.086377 10.8211676,-8.095734 23.7400844,-13.000641 39.215088,-14.888734 3.868394,-0.47198 19.29601,-0.479817 23.283334,-0.01183 16.260102,1.908442 27.495819,6.565482 35.876391,14.870269 3.100308,3.072255 5.468673,6.112058 6.86345,8.809268 0.504032,0.974659 1.039972,1.77255 1.190996,1.773087 0.151024,5.29e-4 1.210707,-1.021853 2.354818,-2.271983 C 104.7319,57.125906 118.539,49.437286 133.44451,46.458948 c 6.42842,-1.284494 8.81176,-1.475248 18.25625,-1.461162 7.90758,0.0118 9.44393,0.08349 12.7,0.592649 14.00569,2.190117 23.74017,6.827017 31.65769,15.079755 6.77778,7.064736 11.10358,16.566162 12.97527,28.499598 0.77775,4.95857 0.84812,16.467922 0.13674,22.357292 -1.74456,14.44263 -5.46328,30.37013 -10.68702,45.77292 -9.36628,27.61763 -18.82484,46.82673 -29.91353,60.75043 -2.74781,3.45035 -9.63846,10.4177 -12.76811,12.91021 -5.45877,4.34747 -13.41548,8.85317 -19.67444,11.14118 -14.77058,5.39946 -33.94432,6.38873 -48.930828,2.52463 -15.246509,-3.93116 -26.848013,-13.34188 -32.615639,-26.4567 -0.611743,-1.39102 -1.274709,-2.55611 -1.473279,-2.5891 -0.19857,-0.033 -0.837274,0.55657 -1.419357,1.31013 -1.796945,2.32635 -8.842879,9.24341 -11.906251,11.68848 -3.815689,3.04553 -8.699791,6.28893 -12.964584,8.60943 -13.804239,7.51097 -30.4772496,11.05255 -46.037502,9.77905 z M -99.918,230.33106 c 12.54977,-1.88349 21.975377,-5.97503 28.333193,-12.29915 5.278126,-5.25016 7.706815,-10.81366 7.976066,-18.27115 0.156541,-4.33578 -0.09277,-5.86208 -1.404683,-8.59959 -3.253606,-6.78913 -12.26456,-9.90301 -26.076965,-9.01131 -6.474658,0.41798 -12.254651,1.37649 -18.683341,3.09827 -0.49472,0.13247 -0.59516,0.0536 -0.5944,-0.46676 10e-4,-0.90881 3.37223,-12.43158 5.48524,-18.75012 l 1.81385,-5.42396 1.17865,0.0143 c 0.64825,0.008 3.202702,0.29774 5.676557,0.64397 5.836166,0.81685 14.7163,0.89982 18.653125,0.17426 6.307943,-1.16256 10.475689,-3.23856 14.419793,-7.18265 2.935608,-2.9356 4.460557,-5.27468 6.046854,-9.27503 1.534207,-3.86901 2.091571,-6.65956 1.98084,-9.91747 -0.08508,-2.50325 -0.18201,-2.96555 -0.948045,-4.52159 -2.810922,-5.70979 -9.822278,-8.17883 -22.1609,-7.80393 -2.910417,0.0884 -6.601354,0.33135 -8.202084,0.53982 -1.600729,0.20847 -3.00636,0.28609 -3.123626,0.17249 -0.474813,-0.45997 6.516926,-15.4682 8.759776,-18.80344 l 0.978434,-1.45498 4.630209,0.0864 c 6.310974,0.11776 17.383043,-0.39998 21.563542,-1.00832 15.02118,-2.18587 23.680977,-10.101233 24.635374,-22.517603 0.762831,-9.924127 -6.871431,-17.01686 -20.931207,-19.446479 -5.084046,-0.878557 -18.020557,-0.724379 -26.01416,0.310039 -21.517606,2.784628 -34.431442,13.348137 -46.992692,38.440126 -12.65433,25.277907 -23.15418,55.843127 -26.86995,78.218857 -1.6187,9.74755 -2.07447,19.42876 -1.16556,24.75807 2.68514,15.74401 15.31076,26.57251 33.57361,28.79469 3.45996,0.421 13.18844,0.14372 17.4625,-0.49774 z m 98.0281292,0.13775 c 6.678454,-1.08032 12.5444788,-2.97165 18.9457288,-6.10849 22.481832,-11.01683 38.942779,-35.33402 44.074161,-65.10928 0.83357,-4.83677 0.832829,-11.98325 -0.0026,-15.04791 -0.930328,-3.41716 -2.233533,-5.77044 -4.381262,-7.9115 -4.046643,-4.03407 -8.537972,-5.61524 -16.745453,-5.89522 -9.567996,-0.32639 -17.191012,1.06906 -22.278659,4.07825 -4.973796,2.94186 -9.033034,8.9741 -10.8949599,16.19041 -0.7992269,3.09756 -0.6552142,6.39318 0.3730361,8.53734 0.8698442,1.81382 3.0154298,3.86379 5.0527748,4.82761 1.402159,0.66331 4.547949,1.56099 6.559841,1.87188 0.865346,0.13372 0.991764,0.24482 0.988775,0.86894 -0.0053,1.09411 -2.194031,7.37137 -3.441463,9.86962 -3.90652,7.82368 -10.0001387,13.56125 -16.13429188,15.19151 -1.91426052,0.50876 -5.88293132,0.50321 -7.61322702,-0.0106 -5.2560011,-1.56088 -6.9376931,-7.16092 -5.0834931,-16.92799 2.9102849,-15.32977 14.9560238,-48.56019 23.449281,-64.6892 3.284856,-6.23804 7.492789,-11.392448 10.964493,-13.430687 5.2587,-3.087396 13.137595,-3.08021 15.086569,0.01376 0.8441,1.340006 0.590021,4.292817 -0.699162,8.125267 -0.966576,2.87344 -1.024175,3.22669 -1.035341,6.35 -0.01164,3.27493 -0.0029,3.32367 0.895641,4.98105 2.109365,3.89048 6.581855,5.99907 13.40366,6.31923 11.214762,0.52633 20.600539,-4.46995 25.701494,-13.68153 3.050593,-5.5089 5.050314,-14.427759 4.745832,-21.16667 C 79.712501,80.433561 77.463225,75.41311 72.388278,70.632595 65.303954,63.959274 53.276762,60.466429 37.371943,60.463429 24.734331,60.461048 14.973825,62.409411 5.6496697,66.795761 -5.7518881,72.15937 -15.796689,81.926613 -24.298866,95.916692 c -6.842218,11.258688 -14.816545,28.872978 -20.183251,44.582298 -7.46673,21.85646 -11.308062,41.78295 -10.359115,53.73677 1.686542,21.24517 13.483702,33.72734 34.587319,36.59558 2.958518,0.40211 15.120462,0.16203 18.3629574,-0.36251 z m 119.8562508,-0.0342 c 13.40425,-1.73524 23.9466,-7.03017 33.48583,-16.81829 7.59487,-7.79304 14.01742,-17.88012 21.03245,-33.03302 10.05953,-21.72918 16.73828,-42.80893 20.20271,-63.76459 1.49476,-9.04173 1.90441,-18.423652 1.07926,-24.718326 -2.28968,-17.466594 -11.98264,-27.420878 -29.78571,-30.588742 -4.13443,-0.735671 -14.8763,-1.024541 -19.74138,-0.530879 -23.4591,2.380393 -38.56239,13.810664 -50.984684,38.585499 -3.229372,6.440628 -6.551401,14.326948 -11.391186,27.042028 -12.002004,31.53175 -17.752643,60.50037 -15.074107,75.93542 1.291299,7.44107 4.350332,13.61943 8.956305,18.08917 6.016731,5.83877 14.862625,9.26984 26.345512,10.21866 3.63832,0.30062 12.03571,0.0801 15.875,-0.41693 z m -5.60371,-38.04957 c -3.0045,-0.80899 -5.02412,-3.53314 -5.4188,-7.30907 -0.6477,-6.19691 7.20376,-32.2953 17.50989,-58.20309 8.28161,-20.81858 12.58297,-28.361819 17.44091,-30.585851 2.81154,-1.287171 7.09062,-1.481817 9.46695,-0.430633 1.42748,0.631447 2.73277,2.102147 3.1618,3.562485 0.51212,1.743139 0.38208,6.020959 -0.28366,9.330039 -2.03047,10.09264 -7.69747,28.05392 -14.65065,46.43438 -7.79946,20.61765 -12.17493,29.68733 -16.3345,33.85899 -3.05144,3.0603 -7.20585,4.33528 -10.89194,3.34275 z m -304.22338,37.54855 c 15.87785,-2.10857 26.31344,-8.33617 31.58422,-18.84838 1.70948,-3.40945 2.74914,-7.08766 3.33426,-11.79629 0.89281,-7.18477 -2.79052,-12.38166 -10.31935,-14.55981 -4.65066,-1.34546 -11.19025,-1.54689 -18.25072,-0.56211 -1.64097,0.22886 -3.07377,0.31983 -3.184,0.20214 -0.25488,-0.27212 1.17921,-3.36135 11.64501,-25.0848 15.53422,-32.24374 21.89817,-46.41859 27.12528,-60.417824 3.89653,-10.435704 5.64095,-17.100786 5.87567,-22.449722 0.23648,-5.389208 -0.56716,-8.338011 -2.97347,-10.910547 -2.20919,-2.361803 -4.85751,-3.480977 -9.51939,-4.022881 -6.37682,-0.741249 -14.21314,0.798534 -19.31022,3.794329 -7.54095,4.432168 -12.39558,11.227401 -22.64508,31.697264 -15.6552,31.265911 -29.26519,67.694201 -33.82639,90.539231 -3.38509,16.95445 -2.51307,26.06164 3.17207,33.12867 4.22681,5.25422 11.13969,8.53873 20.35877,9.67303 2.76903,0.34068 13.27528,0.10351 16.93334,-0.3823 z"
         id="path830"
         inkscape:connector-curvature="0" />
      <path
         style="fill:#040202;stroke-width:0.26458335"
         d="M -284.99405,148.83333 V -115.75001 H -20.410705 244.17264 V 148.83333 413.41668 H -20.410705 -284.99405 Z m 521.75836,0 V -108.34168 H -20.410705 -277.58572 V 148.83333 406.00835 H -20.410705 236.76431 Z m -255.98439,97.98861 c -0.436562,-0.0509 -1.924844,-0.22122 -3.307292,-0.37849 -6.361062,-0.72364 -13.590059,-2.79908 -19.234947,-5.52238 -5.64098,-2.7214 -9.775376,-5.6922 -14.307919,-10.281 l -2.983486,-3.02054 -2.175889,2.08413 c -8.915562,8.53953 -21.753386,14.11036 -37.497762,16.27169 -4.980355,0.68371 -15.096275,0.94316 -19.763115,0.50689 -13.76885,-1.28712 -26.62453,-6.88809 -34.59882,-15.074 -0.72213,-0.74131 -1.49604,-1.34493 -1.71979,-1.34142 -0.22375,0.003 -1.35932,0.84392 -2.52349,1.86754 -8.83966,7.77248 -21.60843,12.6479 -36.64479,13.99188 -3.95799,0.35378 -13.86412,0.35073 -17.1422,-0.005 -17.48664,-1.89897 -30.2842,-10.6634 -35.96807,-24.63284 -3.86662,-9.50315 -4.23608,-20.17752 -1.244,-35.94233 4.61019,-24.29052 18.19817,-60.94338 35.21307,-94.985417 9.14438,-18.295343 13.78876,-25.684235 20.04,-31.882293 7.43867,-7.375391 15.57761,-11.333171 26.1694,-12.725581 4.45255,-0.585337 13.34987,-0.396195 17.65175,0.375248 10.54842,1.891615 17.63874,6.924533 20.62953,14.643445 0.92642,2.391003 1.5012,5.453571 1.75223,9.33636 0.0999,1.544379 0.27365,2.864888 0.38622,2.934465 0.11258,0.06958 0.89379,-0.851337 1.73602,-2.046475 9.77397,-13.869309 23.29067,-21.912904 42.118025,-25.063832 7.250181,-1.213385 10.781694,-1.452775 21.611157,-1.464948 11.151217,-0.01254 12.716039,0.121687 18.917709,1.622663 10.233176,2.476712 19.251126,7.8148 23.834302,14.108486 0.635821,0.873104 1.305825,1.587461 1.488943,1.587461 0.183092,0 1.31707,-0.758354 2.519945,-1.68523 16.3853819,-12.625869 40.077815,-18.01971 65.157855,-14.833905 12.173507,1.546347 22.21463,5.345899 29.794625,11.274283 4.123584,3.225083 8.506037,8.292262 10.554336,12.203407 0.509323,0.972526 1.026371,1.769234 1.149006,1.770462 0.122608,0.0013 1.641051,-1.473655 3.374337,-3.277516 11.91525,-12.400577 26.33245,-19.399335 44.82145,-21.758329 5.43957,-0.694028 17.0365,-0.639974 22.48958,0.104826 7.87655,1.075801 13.58226,2.695144 19.44688,5.519232 16.62713,8.006723 25.74206,23.157419 26.97263,44.833404 1.0844,19.101634 -5.54458,48.744724 -17.7165,79.223324 -7.18984,18.00347 -14.17286,30.95821 -22.53377,41.80417 -3.35264,4.34909 -11.12565,12.08736 -15.20997,15.14195 -10.30571,7.70747 -21.22088,12.04259 -35.27698,14.01077 -4.87859,0.6831 -18.61293,0.67593 -23.415622,-0.0122 -9.416971,-1.34935 -17.722506,-4.33602 -24.333465,-8.7503 -7.240826,-4.83486 -11.984144,-10.36026 -15.919848,-18.54472 -0.942922,-1.96088 -1.856211,-3.55817 -2.029513,-3.54955 -0.173302,0.009 -1.14853,1.02957 -2.167176,2.26878 -1.018645,1.23917 -3.350921,3.71734 -5.182817,5.50701 -13.708883,13.39278 -31.019143,21.57965 -49.7975487,23.55165 -3.4525745,0.36258 -12.7956213,0.50768 -15.1342203,0.23505 z m 16.6687508,-16.20256 c 10.1611911,-1.54773 18.5693322,-4.78094 26.9404052,-10.35947 4.780545,-3.18579 7.393358,-5.32821 11.42844,-9.37099 8.756094,-8.77276 15.434284,-19.41906 20.220755,-32.23569 2.566062,-6.8711 4.873043,-16.03603 5.596361,-22.23244 0.404019,-3.46101 0.174334,-10.09897 -0.427302,-12.34996 -2.937695,-10.99131 -12.878515,-15.37172 -30.553449,-13.46333 -11.963586,1.29172 -18.327847,5.66583 -22.3237439,15.34296 -1.8068926,4.37584 -2.5235695,8.07392 -2.0554422,10.60622 0.9183424,4.96784 4.7200081,8.02481 11.5468931,9.28497 l 1.852084,0.34187 -0.06715,0.84987 c -0.111337,1.40904 -1.63031,5.83562 -3.008392,8.76705 -5.29725,11.26813 -14.4913097,17.80024 -22.7634815,16.17279 -4.2451865,-0.83519 -6.3213455,-3.28253 -6.8012475,-8.01722 -0.395552,-3.9024 0.196506,-8.15229 2.232105,-16.02219 5.2599696,-20.33598 18.0262218,-52.65573 24.832814,-62.86814 4.954508,-7.433559 10.225828,-10.679446 16.936456,-10.428822 3.00056,0.112061 4.829889,0.790974 5.823056,2.161072 0.88556,1.221629 0.709824,4.09487 -0.476726,7.79481 -1.738392,5.42076 -1.857852,8.38872 -0.456327,11.3369 0.857038,1.8028 2.775744,3.70827 4.732443,4.69981 3.209079,1.62617 8.600652,2.44495 13.08952,1.98782 13.776564,-1.40296 22.29845,-9.65698 25.487552,-24.686479 C 80.213702,93.315119 80.398196,86.776185 79.65096,83.163198 78.670546,78.422741 76.691119,74.740473 73.263204,71.280157 67.602099,65.565559 58.67638,62.067987 46.264299,60.700543 42.006333,60.231442 31.389265,60.305425 26.972469,60.834976 6.389578,63.302755 -8.1333753,72.206186 -20.540715,89.963337 c -11.951526,17.104823 -24.953353,48.458553 -31.101711,75.001383 -2.11009,9.10939 -3.112363,15.98946 -3.335232,22.89466 -0.302906,9.38495 1.075394,16.78321 4.336936,23.27931 5.832494,11.61669 16.688732,18.40127 31.94981,19.96694 3.669824,0.3765 12.1536092,0.12092 16.1395828,-0.48625 z m -96.7011248,-0.25445 c 22.423013,-3.64807 34.981186,-14.35989 35.873562,-30.5993 0.448884,-8.1688 -3.408085,-13.79688 -11.136953,-16.25111 -4.053174,-1.28701 -5.758416,-1.47807 -12.966738,-1.45272 -7.465042,0.0262 -11.022661,0.44 -18.456757,2.14649 -2.29309,0.52636 -4.24113,0.88513 -4.32899,0.79729 -0.40378,-0.40378 6.65949,-23.41208 7.4378,-24.22829 0.2883,-0.30237 0.75515,-0.29239 2.950431,0.063 6.012617,0.97343 7.532574,1.08964 14.117308,1.07934 5.89784,-0.009 7.063182,-0.0815 9.260417,-0.57446 6.932441,-1.55527 12.103754,-4.62354 15.619122,-9.26724 3.946515,-5.21322 6.652027,-13.73853 5.865757,-18.48351 -0.975542,-5.88722 -5.435447,-9.30049 -13.811962,-10.57061 -3.29597,-0.49977 -11.498157,-0.49222 -16.271876,0.015 -4.447905,0.47257 -4.365625,0.47085 -4.365625,0.0917 0,-1.12431 6.478916,-14.82664 8.707885,-18.4164 l 0.862505,-1.38906 7.1872,-0.004 c 12.156274,-0.007 19.67668,-0.62628 24.501489,-2.01923 5.835367,-1.684703 9.559076,-3.770186 13.141596,-7.360013 2.078146,-2.082387 2.598827,-2.795895 3.780874,-5.181045 2.215788,-4.471056 3.041783,-10.408248 2.00291,-14.396757 -1.809907,-6.9487 -9.014993,-12.006964 -20.100082,-14.111082 -3.445164,-0.653942 -19.221549,-0.631806 -24.738543,0.03471 -8.432075,1.018696 -14.071847,2.566395 -19.976043,5.481944 -5.030258,2.483991 -7.986323,4.657019 -12.571703,9.241584 -6.37921,6.37806 -11.10085,13.444565 -17.06221,25.535599 -11.08625,22.48556 -20.49193,48.83857 -24.83579,69.58542 -2.40635,11.49305 -3.52064,23.02156 -2.83393,29.3201 1.75103,16.06073 12.64584,27.30801 29.77152,30.73471 4.49989,0.90038 4.30484,0.88749 12.05399,0.79775 5.49129,-0.0636 7.7294,-0.19799 10.322836,-0.61992 z m 217.880294,0.12121 c 15.25485,-2.27513 26.61505,-8.81748 37.0214,-21.32058 7.67961,-9.22697 15.9084,-24.61276 23.59896,-44.12414 10.19961,-25.87701 16.21753,-53.99399 14.93644,-69.786212 -1.19205,-14.69483 -6.79714,-24.278422 -17.36346,-29.687982 -6.1394,-3.143139 -12.63658,-4.631084 -21.8271,-4.998702 -17.73827,-0.709522 -33.19026,4.26747 -43.96949,14.162295 -9.47957,8.701823 -16.343921,19.718378 -24.128942,38.724491 -11.571923,28.25133 -18.420875,52.29527 -20.398635,71.61142 -0.555678,5.42721 -0.427858,14.48112 0.256116,18.13848 1.609514,8.60682 5.806203,15.56557 12.239388,20.29474 5.025231,3.69419 13.223293,6.48713 21.511363,7.32853 3.51118,0.35647 14.87811,0.14176 18.12396,-0.34234 z m -6.98883,-38.43611 c -2.87862,-1.05312 -4.52054,-3.98425 -4.52054,-8.06995 0,-6.88557 6.07779,-27.43327 15.18708,-51.34412 7.48459,-19.64625 13.16972,-31.23626 16.92939,-34.513203 0.59881,-0.521912 1.86264,-1.319557 2.80853,-1.77255 1.56234,-0.748218 2.00282,-0.83249 4.81126,-0.920517 2.84136,-0.08906 3.2072,-0.04392 4.52186,0.557958 2.42509,1.11024 3.36738,3.043974 3.36603,6.907592 0,3.0335 -0.48871,5.84536 -2.1164,12.20372 -3.75872,14.68297 -12.16753,38.82562 -19.58933,56.24317 -5.53632,12.99276 -8.89465,18.03974 -13.41461,20.15982 -1.55699,0.7303 -2.11315,0.84757 -4.30173,0.90707 -1.79887,0.0489 -2.84565,-0.0532 -3.68154,-0.35899 z m -301.9982,37.78777 c 19.62216,-3.04506 30.85941,-12.79035 33.30321,-28.88155 0.48985,-3.2254 0.48441,-5.06285 -0.0207,-7.00219 -1.43819,-5.52159 -6.04424,-8.90569 -13.74963,-10.10193 -3.11757,-0.48397 -11.50674,-0.33716 -15.21354,0.26628 -1.23693,0.20135 -2.34541,0.2789 -2.46329,0.17232 -0.28954,-0.26175 0.91872,-2.8934 9.47672,-20.64073 22.49369,-46.64675 30.32925,-65.013864 33.84678,-79.339298 2.15164,-8.762773 1.81322,-14.319269 -1.10468,-18.137564 -2.52317,-3.301765 -6.88103,-4.911823 -13.30413,-4.915358 -6.68922,-0.0037 -12.15302,1.376772 -16.8576,4.259146 -7.18706,4.403323 -12.12632,11.415605 -22.15822,31.458073 -14.01,27.990211 -26.42129,60.048331 -32.11284,82.946881 -5.72573,23.036 -4.83555,34.95545 3.18291,42.61914 4.55842,4.35673 9.8217,6.58667 18.60789,7.88381 0.43656,0.0645 4.00844,0.0805 7.9375,0.0356 5.56438,-0.0636 7.91443,-0.20124 10.62965,-0.62259 z M 217.36995,56.203889 c -2.76098,-0.649751 -6.32838,-3.255489 -7.72903,-5.645518 -3.8403,-6.552984 -1.4182,-14.717224 5.36,-18.067201 1.81401,-0.896533 2.22883,-0.994265 4.62926,-1.090679 3.23077,-0.129765 5.36644,0.378825 7.55063,1.798101 6.00797,3.904004 7.68741,11.688707 3.80251,17.625698 -1.689,2.581114 -3.88332,4.223422 -6.88073,5.149782 -1.79411,0.554468 -4.90228,0.660564 -6.73264,0.229817 z m 5.92003,-2.606199 c 2.1918,-0.682162 4.22624,-2.121033 5.37818,-3.803751 1.4114,-2.061707 1.83097,-3.427669 1.84391,-6.003102 0.0101,-1.982963 -0.0876,-2.463237 -0.81698,-4.021858 -1.59187,-3.401724 -4.77896,-5.635464 -8.48384,-5.946066 -7.11274,-0.596307 -12.6351,6.440112 -10.35841,13.198386 0.94858,2.815817 2.48994,4.623874 5.04603,5.919139 2.48028,1.256861 4.80139,1.463265 7.39111,0.657252 z m -7.83805,-3.525814 c -0.071,-0.18505 -0.097,-3.072315 -0.0579,-6.416146 l 0.0713,-6.079692 3.91371,-0.07328 c 4.66672,-0.08738 5.51149,0.168074 6.3005,1.905294 0.60373,1.329261 0.61352,1.713539 0.0778,3.052344 -0.27337,0.683194 -0.76597,1.264362 -1.38906,1.6388 -0.53102,0.319109 -1.01558,0.61952 -1.07678,0.667584 -0.0612,0.04806 0.13433,0.354809 0.4345,0.681656 0.78431,0.853946 2.7195,4.104326 2.7195,4.56768 0,0.298548 -0.34409,0.392216 -1.44079,0.392216 h -1.44076 l -0.9746,-1.854621 c -1.16504,-2.217097 -2.4992,-3.503219 -3.51237,-3.385934 -0.68215,0.07896 -0.7031,0.135284 -0.76822,2.065555 -0.10474,3.104515 -0.1388,3.175 -1.53389,3.175 -0.72189,0 -1.24495,-0.133022 -1.323,-0.336455 z m 7.12148,-7.620249 c 0.85468,-0.672288 0.90233,-1.621113 0.11808,-2.351739 -0.47326,-0.44092 -0.93245,-0.539474 -2.51354,-0.539474 h -1.93448 v 1.719791 1.719792 h 1.81639 c 1.43698,0 1.96205,-0.114549 2.51355,-0.54837 z"
         id="path828"
         inkscape:connector-curvature="0" />
    </g>
  </g>
</svg>
