<?xml version="1.0" encoding="UTF-8" standalone="no"?>
<!-- Created with Inkscape (http://www.inkscape.org/) -->

<svg
   xmlns:dc="http://purl.org/dc/elements/1.1/"
   xmlns:cc="http://creativecommons.org/ns#"
   xmlns:rdf="http://www.w3.org/1999/02/22-rdf-syntax-ns#"
   xmlns:svg="http://www.w3.org/2000/svg"
   xmlns="http://www.w3.org/2000/svg"
   xmlns:sodipodi="http://sodipodi.sourceforge.net/DTD/sodipodi-0.dtd"
   xmlns:inkscape="http://www.inkscape.org/namespaces/inkscape"
   width="100mm"
   height="100mm"
   viewBox="0 0 100 100"
   version="1.1"
   id="svg8"
   inkscape:version="0.92.3 (2405546, 2018-03-11)"
   sodipodi:docname="item_credit.svg">
  <defs
     id="defs2" />
  <sodipodi:namedview
     id="base"
     pagecolor="#ffffff"
     bordercolor="#666666"
     borderopacity="1.0"
     inkscape:pageopacity="0.0"
     inkscape:pageshadow="2"
     inkscape:zoom="1"
     inkscape:cx="226.84287"
     inkscape:cy="224.28431"
     inkscape:document-units="mm"
     inkscape:current-layer="layer1"
     showgrid="false"
     fit-margin-left="-0.1"
     inkscape:window-width="958"
     inkscape:window-height="991"
     inkscape:window-x="2392"
     inkscape:window-y="0"
     inkscape:window-maximized="0" />
  <metadata
     id="metadata5">
    <rdf:RDF>
      <cc:Work
         rdf:about="">
        <dc:format>image/svg+xml</dc:format>
        <dc:type
           rdf:resource="http://purl.org/dc/dcmitype/StillImage" />
        <dc:title></dc:title>
      </cc:Work>
    </rdf:RDF>
  </metadata>
  <g
     inkscape:label="Layer 1"
     inkscape:groupmode="layer"
     id="layer1"
     transform="translate(0,-197)">
    <g
       transform="matrix(7.1428571,0,0,7.1428571,0,197)"
       id="g2443">
      <path
         style="fill:#000000;fill-opacity:0"
         d="M 0,0.5 V 0 H 0.5 1 L 0.875,0.375 Q 0.75,0.75 0.375,0.875 L 0,1 V 0.5"
         id="path2429"
         inkscape:connector-curvature="0" />
      <path
         style="fill:#33ff33;fill-opacity:1"
         d="M 0.875,0.375 1,0 H 1.5 2 2.5 3 3.5 4 4.5 5 5.5 6 6.5 7 7.5 8 8.5 9 9.5 10 l 0.125,0.375 Q 10.25,0.75 10.5,1 10.75,1.25 10.875,1.625 11,2 11,2.5 q 0,0.5 0,1 0,0.5 0,1 0,0.5 0,1 0,0.5 0,1 0,0.5 0,1 0,0.5 0,1 Q 11,9 10.875,9.375 10.75,9.75 10.5,10 10.25,10.25 10,10.5 9.75,10.75 9.375,10.875 9,11 8.5,11 8,11 7.5,11 7,11 6.5,11 6,11 5.5,11 5,11 4.5,11 4,11 3.5,11 3,11 2.5,11 2,11 1.625,10.875 1.25,10.75 1,10.5 0.75,10.25 0.375,10.125 L 0,10 V 9.5 9 8.5 8 7.5 7 6.5 6 5.5 5 4.5 4 3.5 3 2.5 2 1.5 1 L 0.375,0.875 Q 0.75,0.75 0.875,0.375 M 7.5,9 Q 8,9 8.375,8.875 8.75,8.75 8.875,8.375 9,8 8.875,7.625 8.75,7.25 8.375,7.125 8,7 7.5,7 7,7 6.5,7 6,7 5.5,7 5,7 4.625,6.875 4.25,6.75 4.125,6.375 4,6 4,5.5 4,5 4.125,4.625 4.25,4.25 4.625,4.125 5,4 5.5,4 6,4 6.5,4 7,4 7.5,4 8,4 8.375,3.875 8.75,3.75 8.875,3.375 9,3 8.875,2.625 8.75,2.25 8.375,2.125 8,2 7.5,2 7,2 6.5,2 6,2 5.5,2 5,2 4.5,2 4,2 3.625,2.125 3.25,2.25 3,2.5 2.75,2.75 2.5,3 2.25,3.25 2.125,3.625 2,4 2,4.5 2,5 2,5.5 2,6 2,6.5 2,7 2.125,7.375 2.25,7.75 2.5,8 2.75,8.25 3,8.5 3.25,8.75 3.625,8.875 4,9 4.5,9 5,9 5.5,9 6,9 6.5,9 7,9 7.5,9"
         id="path2431"
         inkscape:connector-curvature="0" />
      <path
         style="fill:#000000;fill-opacity:0"
         d="M 10.125,0.375 10,0 H 10.5 11 11.5 12 12.5 13 13.5 14 V 0.5 1 1.5 2 2.5 3 3.5 4 L 13.625,3.875 Q 13.25,3.75 13,3.5 12.75,3.25 12.375,3.125 12,3 11.5,3 H 11 V 2.5 Q 11,2 10.875,1.625 10.75,1.25 10.5,1 10.25,0.75 10.125,0.375 M 11,2.625 V 3 3.125 3.25 3 Q 11,2.75 11,2.5 V 2.25 2.625"
         id="path2433"
         inkscape:connector-curvature="0" />
      <path
         style="fill:#339900;fill-opacity:1"
         d="M 3,2.5 Q 3.25,2.25 3.625,2.125 4,2 4.5,2 5,2 5.5,2 6,2 6.5,2 7,2 7.5,2 8,2 8.375,2.125 8.75,2.25 8.875,2.625 9,3 8.875,3.375 8.75,3.75 8.375,3.875 8,4 7.5,4 7,4 6.5,4 6,4 5.5,4 5,4 4.625,4.125 4.25,4.25 4.125,4.625 4,5 4,5.5 4,6 4.125,6.375 4.25,6.75 4.625,6.875 5,7 5.5,7 6,7 6.5,7 7,7 7.5,7 8,7 8.375,7.125 8.75,7.25 8.875,7.625 9,8 8.875,8.375 8.75,8.75 8.375,8.875 8,9 7.5,9 7,9 6.5,9 6,9 5.5,9 5,9 4.5,9 4,9 3.625,8.875 3.25,8.75 3,8.5 2.75,8.25 2.5,8 2.25,7.75 2.125,7.375 2,7 2,6.5 2,6 2,5.5 2,5 2,4.5 2,4 2.125,3.625 2.25,3.25 2.5,3 2.75,2.75 3,2.5"
         id="path2435"
         inkscape:connector-curvature="0" />
      <path
         style="fill:#444444;fill-opacity:1"
         d="M 11,3.5 V 3 h 0.5 Q 12,3 12.375,3.125 12.75,3.25 13,3.5 13.25,3.75 13.625,3.875 L 14,4 V 4.5 5 5.5 6 6.5 7 7.5 8 8.5 9 9.5 10 10.5 11 11.5 12 12.5 13 l -0.375,0.125 q -0.375,0.125 -0.5,0.5 L 13,14 H 12.5 12 11.5 11 10.5 10 9.5 9 8.5 8 7.5 7 6.5 6 5.5 5 4.5 4 L 3.875,13.625 Q 3.75,13.25 3.5,13 3.25,12.75 3.125,12.375 3,12 3,11.5 V 11 h 0.5 q 0.5,0 1,0 0.5,0 1,0 0.5,0 1,0 0.5,0 1,0 0.5,0 1,0 Q 9,11 9.375,10.875 9.75,10.75 10,10.5 10.25,10.25 10.5,10 10.75,9.75 10.875,9.375 11,9 11,8.5 11,8 11,7.5 11,7 11,6.5 11,6 11,5.5 11,5 11,4.5 11,4 11,3.5 M 3.375,11 H 3 2.875 2.75 3 q 0.25,0 0.5,0 H 3.75 3.375 M 11,2.875 V 3 3.375 3.75 3.5 Q 11,3.25 11,3 V 2.75 2.875"
         id="path2437"
         inkscape:connector-curvature="0" />
      <path
         style="fill:#000000;fill-opacity:0"
         d="M 0,10.5 V 10 l 0.375,0.125 Q 0.75,10.25 1,10.5 1.25,10.75 1.625,10.875 2,11 2.5,11 H 3 v 0.5 Q 3,12 3.125,12.375 3.25,12.75 3.5,13 3.75,13.25 3.875,13.625 L 4,14 H 3.5 3 2.5 2 1.5 1 0.5 0 V 13.5 13 12.5 12 11.5 11 10.5 M 3.125,11 H 3 2.625 2.25 2.5 Q 2.75,11 3,11 H 3.25 3.125"
         id="path2439"
         inkscape:connector-curvature="0" />
      <path
         style="fill:#000000;fill-opacity:0"
         d="m 13.125,13.625 q 0.125,-0.375 0.5,-0.5 L 14,13 V 13.5 14 H 13.5 13 l 0.125,-0.375"
         id="path2441"
         inkscape:connector-curvature="0" />
    </g>
  </g>
</svg>
