<?xml version="1.0" encoding="UTF-8" standalone="no"?>
<!-- Created with Inkscape (http://www.inkscape.org/) -->

<svg
   xmlns:dc="http://purl.org/dc/elements/1.1/"
   xmlns:cc="http://creativecommons.org/ns#"
   xmlns:rdf="http://www.w3.org/1999/02/22-rdf-syntax-ns#"
   xmlns:svg="http://www.w3.org/2000/svg"
   xmlns="http://www.w3.org/2000/svg"
   xmlns:sodipodi="http://sodipodi.sourceforge.net/DTD/sodipodi-0.dtd"
   xmlns:inkscape="http://www.inkscape.org/namespaces/inkscape"
   width="300mm"
   height="300mm"
   viewBox="0 0 300 300"
   version="1.1"
   id="svg2534"
   inkscape:version="0.92.3 (2405546, 2018-03-11)"
   sodipodi:docname="credits_ethereum.svg">
  <defs
     id="defs2528" />
  <sodipodi:namedview
     id="base"
     pagecolor="#ffffff"
     bordercolor="#666666"
     borderopacity="1.0"
     inkscape:pageopacity="0.0"
     inkscape:pageshadow="2"
     inkscape:zoom="0.49497475"
     inkscape:cx="254.60246"
     inkscape:cy="606.3152"
     inkscape:document-units="mm"
     inkscape:current-layer="layer1"
     showgrid="false"
     inkscape:window-width="1920"
     inkscape:window-height="1001"
     inkscape:window-x="2391"
     inkscape:window-y="-9"
     inkscape:window-maximized="1" />
  <metadata
     id="metadata2531">
    <rdf:RDF>
      <cc:Work
         rdf:about="">
        <dc:format>image/svg+xml</dc:format>
        <dc:type
           rdf:resource="http://purl.org/dc/dcmitype/StillImage" />
        <dc:title></dc:title>
      </cc:Work>
    </rdf:RDF>
  </metadata>
  <g
     inkscape:label="Layer 1"
     inkscape:groupmode="layer"
     id="layer1"
     transform="translate(0,3)">
    <g
       id="g3100"
       transform="matrix(0.34838879,0,0,0.34838879,157.12552,95.140245)">
      <path
         style="fill:#8b8b8b;stroke-width:0.26458335"
         d="m -152.26676,393.93816 c -72.429,-102.07051 -131.76477,-185.77997 -131.85725,-186.02097 -0.12535,-0.32666 -0.0589,-0.3963 0.26101,-0.27353 0.23605,0.0906 59.50301,35.06666 131.70436,77.72463 76.156836,44.99494 131.457756,77.51115 131.710002,77.44371 0.239149,-0.0639 59.608873,-35.05679 131.932728,-77.76192 72.32386,-42.70515 131.70628,-77.72358 131.96095,-77.81875 0.6451,-0.24109 0.57988,0.0875 -0.26459,1.33289 -3.25599,4.80166 -263.25995,370.75965 -263.476194,370.84519 -0.155067,0.0614 -59.542021,-83.40071 -131.971016,-185.47125 z m -0.17103,-158.59548 c -72.39662,-42.79842 -131.83004,-78.01531 -132.07426,-78.25973 -0.41571,-0.41606 7.98856,-14.43757 131.76251,-219.830076 122.827408,-203.821794 132.237211,-219.354254 132.63882,-218.942714 0.660109,0.67645 263.72821,437.33904 263.9086,438.0577 0.12999,0.51795 -0.0209,0.74401 -0.85822,1.28458 -3.24597,2.09592 -262.782516,155.33333 -263.218073,155.41109 -0.340162,0.0607 -47.544379,-27.69931 -132.159377,-77.72085 z"
         id="path3106"
         inkscape:connector-curvature="0" />
      <path
         style="fill:#363636;stroke-width:0.26458335"
         d="m -20.344877,470.97097 0.06646,-107.59004 131.312607,-77.53914 c 72.22194,-42.64652 131.37593,-77.47582 131.45329,-77.39845 0.16013,0.1601 -262.287875,369.89369 -262.657947,370.02934 -0.144622,0.053 -0.214313,-42.90983 -0.174414,-107.50171 z M -152.50755,234.76181 c -72.43102,-42.81673 -131.69084,-77.96993 -131.68852,-78.11823 0.002,-0.14827 59.19738,-27.17774 131.54455,-60.065444 72.347173,-32.887709 131.697927,-59.953155 131.890565,-60.145454 0.289832,-0.289322 0.35025,-27.717248 0.35025,-159.005142 0,-132.86487 0.05781,-158.59253 0.355626,-158.26808 0.195607,0.21308 59.210314,98.0782 131.143829,217.478049 71.93352,119.399845 131.2253,217.759021 131.75954,218.575941 0.84522,1.29241 0.91697,1.51916 0.55253,1.74596 -5.86502,3.64996 -263.431795,155.65102 -263.751623,155.65102 -0.255204,0 -59.72574,-35.03187 -132.156747,-77.84862 z"
         id="path3104"
         inkscape:connector-curvature="0" />
      <path
         style="fill:#131313;stroke-width:0.26458335"
         d="m -20.410705,174.81543 c 0,-96.520981 0.08364,-137.614054 0.280458,-137.810878 0.349436,-0.349435 263.112257,119.014828 263.112257,119.523008 0,0.29266 -262.683579,155.80487 -263.194277,155.81453 -0.109141,0.003 -0.198438,-61.88493 -0.198438,-137.52666 z"
         id="path3102"
         inkscape:connector-curvature="0" />
    </g>
  </g>
</svg>
