<?xml version="1.0" encoding="UTF-8" standalone="no"?>
<!-- Created with Inkscape (http://www.inkscape.org/) -->

<svg
   xmlns:dc="http://purl.org/dc/elements/1.1/"
   xmlns:cc="http://creativecommons.org/ns#"
   xmlns:rdf="http://www.w3.org/1999/02/22-rdf-syntax-ns#"
   xmlns:svg="http://www.w3.org/2000/svg"
   xmlns="http://www.w3.org/2000/svg"
   xmlns:sodipodi="http://sodipodi.sourceforge.net/DTD/sodipodi-0.dtd"
   xmlns:inkscape="http://www.inkscape.org/namespaces/inkscape"
   width="300mm"
   height="300mm"
   viewBox="0 0 300 300"
   version="1.1"
   id="svg7392"
   inkscape:version="0.92.3 (2405546, 2018-03-11)"
   sodipodi:docname="credits_raiblocks.svg"
   inkscape:export-filename="C:\Users\curff\Desktop\Workspaces\C &amp; C++\Spybot\SpybotClient\resources\achievements\credits_raiblocks.png"
   inkscape:export-xdpi="4.23"
   inkscape:export-ydpi="4.23">
  <defs
     id="defs7386" />
  <sodipodi:namedview
     id="base"
     pagecolor="#ffffff"
     bordercolor="#666666"
     borderopacity="1.0"
     inkscape:pageopacity="0.0"
     inkscape:pageshadow="2"
     inkscape:zoom="0.70710678"
     inkscape:cx="38.768705"
     inkscape:cy="635.73207"
     inkscape:document-units="mm"
     inkscape:current-layer="layer1"
     showgrid="false"
     inkscape:window-width="1920"
     inkscape:window-height="1001"
     inkscape:window-x="2391"
     inkscape:window-y="-9"
     inkscape:window-maximized="1" />
  <metadata
     id="metadata7389">
    <rdf:RDF>
      <cc:Work
         rdf:about="">
        <dc:format>image/svg+xml</dc:format>
        <dc:type
           rdf:resource="http://purl.org/dc/dcmitype/StillImage" />
        <dc:title />
      </cc:Work>
    </rdf:RDF>
  </metadata>
  <g
     inkscape:label="Layer 1"
     inkscape:groupmode="layer"
     id="layer1"
     transform="translate(0,3)">
    <g
       id="g8046"
       transform="matrix(2.0826422,0,0,2.0826422,-162.66036,-241.77704)">
      <path
         style="fill:#dcdee0;stroke-width:0.26458335"
         d="M 118.98598,240.73285 87.897442,222.7693 v -36.15385 -36.15384 l 30.691668,-17.73176 c 16.88042,-9.75246 30.94126,-17.85039 31.24632,-17.99539 0.47367,-0.22513 5.11947,2.37166 31.81709,17.78432 l 31.26243,18.04796 -0.0671,36.10467 -0.0671,36.10466 -31.08854,17.96257 c -17.0987,9.87941 -31.20761,17.96149 -31.35313,17.96016 -0.14552,-0.001 -14.25443,-8.086 -31.35313,-17.96595 z m 34.66042,-56.0886 c 1.09141,-0.62445 2.52016,-1.46875 3.175,-1.87624 0.65485,-0.40748 1.91242,-1.13675 2.79461,-1.6206 0.88219,-0.48385 3.76659,-2.12282 6.40979,-3.64216 2.6432,-1.51934 4.77891,-2.78578 4.74602,-2.81431 -0.0329,-0.0285 -4.22698,-2.45808 -9.32021,-5.39899 -5.09323,-2.9409 -9.64737,-5.58347 -10.12031,-5.87237 l -0.8599,-0.52527 v 11.82597 11.82597 l 0.59531,-0.38333 c 0.32743,-0.21083 1.48829,-0.89423 2.57969,-1.51867 z"
         id="path8068"
         inkscape:connector-curvature="0" />
      <path
         style="fill:#cecfd1;stroke-width:0.26458335"
         d="M 118.91984,240.65891 87.76515,222.64033 V 186.61616 150.592 l 31.13205,-17.9705 c 17.12262,-9.88377 31.26129,-17.97049 31.41927,-17.97049 0.15797,0 14.30683,8.09399 31.44191,17.98665 l 31.15469,17.98666 v 36.01252 36.01253 l -31.115,17.96749 c -17.11324,9.88212 -31.25192,17.98844 -31.41927,18.01405 -0.16735,0.0256 -14.32388,-8.06179 -31.45896,-17.972 z m 31.55156,-42.13498 v -11.77396 h 10.19134 10.19133 l -0.071,-6.1065 -0.071,-6.1065 -10.04218,-5.79975 c -5.52319,-3.18986 -10.13564,-5.79975 -10.24988,-5.79975 -0.11424,0 -0.23869,5.27883 -0.27657,11.73072 l -0.0689,11.73072 -10.00266,-5.77759 c -5.50146,-3.17768 -10.0556,-5.7776 -10.12031,-5.7776 -0.0647,0 -0.11721,5.32805 -0.11667,11.84011 l 0.001,11.8401 10.11932,5.8664 c 5.56563,3.22652 10.20862,5.87566 10.31776,5.88698 0.10907,0.0113 0.19837,-5.2777 0.19837,-11.75338 z"
         id="path8066"
         inkscape:connector-curvature="0" />
      <path
         style="fill:#99d2e4;stroke-width:0.26458335"
         d="m 119.38286,240.83512 c -17.02594,-9.83096 -31.033642,-17.95539 -31.12823,-18.05429 -0.09459,-0.0989 -0.256709,-16.37232 -0.360269,-36.16315 l -0.188291,-35.98333 31.17829,-17.99167 c 17.14805,-9.89542 31.30002,-17.99167 31.44881,-17.99167 0.14879,0 14.29013,8.09399 31.42521,17.98665 l 31.15469,17.98666 v 36.01252 36.01253 l -31.11498,17.96749 c -17.11323,9.88212 -31.19238,17.99567 -31.28698,18.03011 -0.0946,0.0344 -14.10231,-7.98089 -31.12825,-17.81185 z m 41.30424,-36.39887 10.1625,-5.86164 -0.0688,-12.01869 -0.0688,-12.01869 -10.04218,-5.79988 c -5.52319,-3.18993 -10.14486,-5.79988 -10.27037,-5.79988 -0.12552,0 -4.78994,2.63274 -10.36539,5.85053 l -10.13718,5.85054 -0.1967,11.93173 c -0.1117,6.77556 -0.0967,11.9682 0.0346,12.01612 0.12724,0.0464 4.75572,2.70009 10.28551,5.89704 5.52979,3.19696 10.15543,5.81305 10.27921,5.81355 0.12377,5.3e-4 4.79816,-2.63683 10.38753,-5.86073 z"
         id="path8064"
         inkscape:connector-curvature="0" />
      <path
         style="fill:#6bccf3;stroke-width:0.26458335"
         d="M 119.23394,240.73562 88.162025,222.79437 V 186.6213 150.44822 L 118.85369,132.701 c 17.07996,-9.87635 30.98503,-17.75569 31.35313,-17.76632 0.41685,-0.012 12.08497,6.57432 31.5525,17.81056 l 30.89104,17.82964 -0.0671,36.11775 -0.0671,36.11775 -30.1625,17.4356 c -16.58937,9.58958 -30.5867,17.65954 -31.10517,17.93324 l -0.94267,0.49765 z m 48.30309,-40.20844 3.43958,-2.00828 0.0688,-11.91185 0.0688,-11.91184 -10.15396,-5.86716 c -5.58469,-3.22693 -10.26184,-5.90219 -10.39369,-5.94501 -0.13184,-0.0428 -4.90581,2.60105 -10.60883,5.87526 l -10.36912,5.95313 5.3e-4,11.90625 5.3e-4,11.90625 10.3747,5.96514 10.3747,5.96515 6.87916,-3.95939 c 3.78355,-2.17765 8.42698,-4.8631 10.31875,-5.96765 z"
         id="path8062"
         inkscape:connector-curvature="0" />
      <path
         style="fill:#b9d430;stroke-width:0.26458335"
         d="M 119.24844,240.74399 88.162025,222.79437 V 186.6213 150.44822 l 30.691665,-17.72744 c 16.88042,-9.7501 30.8405,-17.78745 31.0224,-17.86077 0.26314,-0.10607 0.33073,4.78645 0.33073,23.9391 v 24.07242 l -10.3091,5.91995 -10.30911,5.91995 v 11.90625 11.90625 l 10.24296,5.88182 c 5.63363,3.235 10.34442,5.9052 10.46842,5.93378 0.12401,0.0286 4.85521,-2.61824 10.51378,-5.88182 l 10.28831,-5.93378 0.003,-5.88698 0.003,-5.88698 h 20.76979 20.7698 v 17.96427 17.96426 l -30.62553,17.67085 c -16.84403,9.71897 -30.8646,17.82237 -31.15682,18.00756 -0.47775,0.30277 -3.66406,-1.47219 -31.6177,-17.61292 z m 51.86356,-60.14558 0.003,-5.88698 19.487,-11.24479 c 10.71785,-6.18464 20.06286,-11.57462 20.76669,-11.97775 l 1.2797,-0.73296 v 17.86473 17.86473 h -20.7698 -20.76979 l 0.003,-5.88698 z"
         id="path8060"
         inkscape:connector-curvature="0" />
      <path
         style="fill:#5bafb0;stroke-width:0.26458335"
         d="m 119.38075,240.82526 c -17.02478,-9.82759 -31.036687,-17.94841 -31.137577,-18.04629 -0.100889,-0.0979 8.986788,-5.47624 20.194837,-11.95191 11.20805,-6.47568 20.59862,-11.87761 20.86794,-12.00429 0.38302,-0.18016 2.70936,1.05013 10.68032,5.6483 5.60486,3.23325 10.26908,5.88804 10.36492,5.89953 0.0958,0.0115 4.80401,-2.64931 10.46258,-5.91289 l 10.28831,-5.93378 0.003,-5.88698 0.003,-5.88698 h 20.76979 20.7698 v 17.96427 17.96426 l -30.62553,17.67085 c -16.84403,9.71897 -30.86459,17.82236 -31.15679,18.00754 -0.47771,0.30275 -3.65198,-1.46474 -31.48542,-17.53163 z m -31.286707,-72.35848 0.06798,-18.01861 30.691667,-17.72742 c 16.88042,-9.75008 30.8405,-17.78742 31.0224,-17.86074 0.26314,-0.10607 0.33073,4.78645 0.33073,23.9391 v 24.07242 l -10.3091,5.91995 -10.30911,5.91995 -0.01,5.88698 -0.01,5.88698 H 108.79769 88.026061 Z m 83.017957,12.13163 0.003,-5.88698 19.487,-11.24479 c 10.71785,-6.18464 20.06286,-11.57462 20.76669,-11.97775 l 1.2797,-0.73296 v 17.86473 17.86473 h -20.7698 -20.76979 l 0.003,-5.88698 z"
         id="path8058"
         inkscape:connector-curvature="0" />
      <path
         style="fill:#1eafe5;stroke-width:0.26458335"
         d="m 119.05671,240.61807 c -16.91428,-9.78308 -30.805486,-17.83966 -30.869341,-17.90352 -0.06386,-0.0639 9.051527,-5.4138 20.256411,-11.88878 11.20488,-6.47497 20.58237,-11.87164 20.83888,-11.99261 0.35255,-0.16626 2.96281,1.22189 10.69527,5.68781 l 10.22889,5.90775 v 24.01167 c 0,13.20642 -0.0893,24.00119 -0.19844,23.98838 -0.10914,-0.0128 -14.03739,-8.02762 -30.95167,-17.8107 z m 31.41833,-6.1549 0.004,-24.03299 10.31512,-5.94327 10.31511,-5.94327 v -5.89683 -5.89684 h 20.76979 20.7698 v 17.96215 17.96215 l -30.85805,17.82275 c -16.97193,9.80251 -30.96177,17.86243 -31.08854,17.91094 -0.12991,0.0497 -0.22891,-10.39964 -0.22686,-23.94479 z M 88.029734,168.6104 c 0,-11.71121 0.09019,-17.81925 0.261552,-17.71334 0.143854,0.0889 0.208473,0.007 0.143598,-0.18283 -0.07736,-0.22593 9.991207,-6.17148 29.259326,-17.2778 16.1575,-9.31333 30.08272,-17.33115 30.94494,-17.81736 l 1.56767,-0.88402 -0.004,24.03506 -0.004,24.03507 -10.20533,5.88196 -10.20533,5.88197 -0.83706,-0.40467 c -0.75708,-0.366 -0.78799,-0.36552 -0.32347,0.005 0.28247,0.22532 0.60989,0.40968 0.7276,0.40968 0.11771,0 0.21401,2.67891 0.21401,5.95313 v 5.95312 H 108.79951 88.02972 v -17.87499 z m 39.952086,5.04949 c 0,-0.069 -0.35719,-0.3102 -0.79375,-0.53596 -0.43656,-0.22576 -0.79375,-0.35168 -0.79375,-0.27983 0,0.0719 0.32742,0.30827 0.7276,0.52537 0.40018,0.2171 0.75737,0.3995 0.79375,0.40532 0.0364,0.006 0.0661,-0.0459 0.0661,-0.1149 z m -1.85209,-1.05582 c 0,-0.0676 -0.26789,-0.2528 -0.59531,-0.41147 -0.57166,-0.27703 -0.57491,-0.27214 -0.0817,0.12298 0.28247,0.22631 0.55037,0.41147 0.59531,0.41147 0.045,0 0.0817,-0.0553 0.0817,-0.12298 z m -1.85208,-1.05833 c 0,-0.0676 -0.26789,-0.2528 -0.59531,-0.41147 -0.57167,-0.27703 -0.57491,-0.27215 -0.0817,0.12298 0.28247,0.22631 0.55036,0.41147 0.59531,0.41147 0.045,0 0.0817,-0.0553 0.0817,-0.12298 z m -1.32292,-0.79627 c 0,-0.069 -0.35718,-0.3102 -0.79375,-0.53596 -0.43656,-0.22575 -0.79375,-0.35168 -0.79375,-0.27983 0,0.0718 0.32743,0.30827 0.72761,0.52537 0.40018,0.21711 0.75737,0.3995 0.79375,0.40533 0.0364,0.006 0.0661,-0.0459 0.0661,-0.11491 z m -1.85208,-1.05833 c 0,-0.069 -0.35719,-0.3102 -0.79375,-0.53596 -0.43656,-0.22576 -0.79375,-0.35168 -0.79375,-0.27983 0,0.0719 0.32742,0.30827 0.72761,0.52537 0.40018,0.2171 0.75736,0.3995 0.79375,0.40532 0.0364,0.006 0.0661,-0.0459 0.0661,-0.1149 z m -1.85208,-1.05833 c 0,-0.069 -0.35719,-0.31021 -0.79375,-0.53596 -0.43656,-0.22576 -0.79375,-0.35168 -0.79375,-0.27983 0,0.0718 0.32742,0.30826 0.7276,0.52537 0.40018,0.2171 0.75737,0.39949 0.79375,0.40532 0.0364,0.006 0.0661,-0.0459 0.0661,-0.1149 z m -1.85209,-1.05582 c 0,-0.0676 -0.26789,-0.2528 -0.59531,-0.41147 -0.57166,-0.27703 -0.57491,-0.27215 -0.0817,0.12298 0.28247,0.22631 0.55036,0.41147 0.59531,0.41147 0.045,0 0.0817,-0.0553 0.0817,-0.12298 z m -1.32291,-0.79627 c 0,-0.069 -0.35719,-0.3102 -0.79375,-0.53596 -0.43656,-0.22575 -0.79375,-0.35168 -0.79375,-0.27983 0,0.0718 0.32742,0.30827 0.7276,0.52537 0.40018,0.21711 0.75737,0.3995 0.79375,0.40533 0.0364,0.006 0.0661,-0.0459 0.0661,-0.11491 z m -1.85209,-1.05833 c 0,-0.069 -0.35718,-0.3102 -0.79375,-0.53596 -0.43656,-0.22576 -0.79375,-0.35168 -0.79375,-0.27983 0,0.0719 0.32743,0.30827 0.72761,0.52537 0.40018,0.2171 0.75737,0.3995 0.79375,0.40532 0.0364,0.006 0.0661,-0.0459 0.0661,-0.1149 z m -1.85208,-1.05582 c 0,-0.0676 -0.26789,-0.2528 -0.59531,-0.41147 -0.57167,-0.27703 -0.57491,-0.27214 -0.0817,0.12298 0.28247,0.22631 0.55036,0.41147 0.59531,0.41147 0.045,0 0.0817,-0.0553 0.0817,-0.12298 z m -1.85208,-1.05833 c 0,-0.0676 -0.26789,-0.2528 -0.59532,-0.41147 -0.57166,-0.27703 -0.57491,-0.27215 -0.0817,0.12298 0.28248,0.22631 0.55037,0.41147 0.59532,0.41147 0.0449,0 0.0817,-0.0553 0.0817,-0.12298 z m -1.32292,-0.79627 c 0,-0.069 -0.35719,-0.3102 -0.79375,-0.53596 -0.43656,-0.22575 -0.79375,-0.35168 -0.79375,-0.27983 0,0.0718 0.32742,0.30827 0.7276,0.52537 0.40019,0.21711 0.75737,0.3995 0.79375,0.40533 0.0364,0.006 0.0661,-0.0459 0.0661,-0.11491 z m -1.85208,-1.05833 c 0,-0.069 -0.35719,-0.3102 -0.79375,-0.53596 -0.43657,-0.22576 -0.79375,-0.35168 -0.79375,-0.27983 0,0.0719 0.32742,0.30827 0.7276,0.52537 0.40018,0.2171 0.75737,0.3995 0.79375,0.40532 0.0364,0.006 0.0661,-0.0459 0.0661,-0.1149 z m -1.85209,-1.05582 c 0,-0.0676 -0.26789,-0.2528 -0.59531,-0.41147 -0.57166,-0.27703 -0.57491,-0.27214 -0.0817,0.12298 0.28247,0.22631 0.55036,0.41147 0.59531,0.41147 0.045,0 0.0817,-0.0553 0.0817,-0.12298 z m -1.32291,-0.79626 c 0,-0.069 -0.35719,-0.31021 -0.79375,-0.53596 -0.43657,-0.22576 -0.79375,-0.35168 -0.79375,-0.27983 0,0.0719 0.32742,0.30826 0.7276,0.52537 0.40018,0.2171 0.75737,0.39949 0.79375,0.40532 0.0364,0.006 0.0661,-0.0459 0.0661,-0.1149 z m -1.85209,-1.05834 c 0,-0.069 -0.35718,-0.3102 -0.79375,-0.53596 -0.43656,-0.22575 -0.79375,-0.35168 -0.79375,-0.27983 0,0.0718 0.32743,0.30827 0.72761,0.52537 0.40018,0.21711 0.75737,0.3995 0.79375,0.40533 0.0364,0.006 0.0661,-0.0459 0.0661,-0.11491 z m -1.85208,-1.05582 c 0,-0.0676 -0.26789,-0.2528 -0.595312,-0.41147 -0.571666,-0.27702 -0.574912,-0.27214 -0.08172,0.12299 0.282472,0.22631 0.550362,0.41147 0.595312,0.41147 0.045,0 0.0817,-0.0554 0.0817,-0.12299 z m -1.852083,-1.05833 c 0,-0.0676 -0.26789,-0.2528 -0.595312,-0.41147 -0.571666,-0.27703 -0.574912,-0.27214 -0.08172,0.12298 0.282474,0.22631 0.550365,0.41147 0.595312,0.41147 0.04495,0 0.08172,-0.0553 0.08172,-0.12298 z m -1.322917,-0.79626 c 0,-0.069 -0.357187,-0.31021 -0.79375,-0.53596 -0.436562,-0.22576 -0.79375,-0.35168 -0.79375,-0.27983 0,0.0719 0.327422,0.30826 0.727605,0.52537 0.400182,0.2171 0.757369,0.39949 0.79375,0.40532 0.03638,0.006 0.06614,-0.0459 0.06614,-0.1149 z m -1.852083,-1.05834 c 0,-0.069 -0.357187,-0.3102 -0.79375,-0.53596 -0.436562,-0.22575 -0.79375,-0.35168 -0.79375,-0.27983 0,0.0718 0.327422,0.30827 0.727604,0.52537 0.400183,0.21711 0.75737,0.3995 0.79375,0.40533 0.03638,0.006 0.06615,-0.0459 0.06615,-0.11491 z m -1.852083,-1.05582 c 0,-0.0676 -0.267891,-0.2528 -0.595313,-0.41147 -0.571665,-0.27702 -0.574912,-0.27214 -0.08172,0.12299 0.282475,0.22631 0.550366,0.41147 0.595313,0.41147 0.04495,0 0.08172,-0.0554 0.08172,-0.12299 z M 91.7339,152.76032 c 0,-0.0676 -0.26789,-0.2528 -0.595312,-0.41147 -0.571666,-0.27703 -0.574912,-0.27214 -0.08172,0.12298 0.282475,0.22631 0.550365,0.41147 0.595312,0.41147 0.04495,0 0.08172,-0.0553 0.08172,-0.12298 z m -1.322916,-0.79626 c 0,-0.069 -0.357188,-0.31021 -0.79375,-0.53596 -0.436563,-0.22576 -0.79375,-0.35168 -0.79375,-0.27983 0,0.0719 0.327421,0.30826 0.727604,0.52537 0.400182,0.2171 0.75737,0.39949 0.79375,0.40532 0.03638,0.006 0.06615,-0.0459 0.06615,-0.1149 z m 80.701016,28.63435 0.003,-5.88698 19.487,-11.24479 c 10.71785,-6.18464 20.06286,-11.57462 20.76669,-11.97775 l 1.2797,-0.73296 v 17.86473 17.86473 h -20.7698 -20.76979 l 0.003,-5.88698 z"
         id="path8056"
         inkscape:connector-curvature="0" />
      <path
         style="fill:#3fb198;stroke-width:0.26458335"
         d="m 119.05671,240.61807 c -16.91428,-9.78308 -30.805486,-17.83966 -30.869341,-17.90352 -0.06386,-0.0639 9.051527,-5.4138 20.256411,-11.88878 11.20488,-6.47497 20.58237,-11.87164 20.83888,-11.99261 0.35255,-0.16626 2.96281,1.22189 10.69527,5.68781 l 10.22889,5.90775 v 24.01167 c 0,13.20642 -0.0893,24.00119 -0.19844,23.98838 -0.10914,-0.0128 -14.03739,-8.02762 -30.95167,-17.8107 z m 31.41949,-6.16134 0.005,-24.02655 10.31396,-5.93645 10.31395,-5.93644 v -5.90366 -5.90366 h 20.76979 20.7698 v 17.94492 17.94493 l -30.89011,17.81676 c -16.98956,9.79922 -30.9794,17.864 -31.08854,17.92173 -0.10914,0.0577 -0.19628,-10.70697 -0.19364,-23.92158 z M 88.029734,168.6104 c 0,-11.71121 0.09019,-17.81925 0.261552,-17.71334 0.143854,0.0889 0.208473,0.007 0.143598,-0.18283 -0.07736,-0.22593 9.991207,-6.17148 29.259326,-17.2778 16.1575,-9.31333 30.08272,-17.33115 30.94494,-17.81736 l 1.56767,-0.88402 -0.004,24.03506 -0.004,24.03507 -10.20533,5.88196 -10.20533,5.88197 -0.83706,-0.40467 c -0.75708,-0.366 -0.78799,-0.36552 -0.32347,0.005 0.28247,0.22532 0.60989,0.40968 0.7276,0.40968 0.11771,0 0.21401,2.67891 0.21401,5.95313 v 5.95312 H 108.79951 88.02972 v -17.87499 z m 39.952086,5.04949 c 0,-0.069 -0.35719,-0.3102 -0.79375,-0.53596 -0.43656,-0.22576 -0.79375,-0.35168 -0.79375,-0.27983 0,0.0719 0.32742,0.30827 0.7276,0.52537 0.40018,0.2171 0.75737,0.3995 0.79375,0.40532 0.0364,0.006 0.0661,-0.0459 0.0661,-0.1149 z m -1.85209,-1.05582 c 0,-0.0676 -0.26789,-0.2528 -0.59531,-0.41147 -0.57166,-0.27703 -0.57491,-0.27214 -0.0817,0.12298 0.28247,0.22631 0.55037,0.41147 0.59531,0.41147 0.045,0 0.0817,-0.0553 0.0817,-0.12298 z m -1.85208,-1.05833 c 0,-0.0676 -0.26789,-0.2528 -0.59531,-0.41147 -0.57167,-0.27703 -0.57491,-0.27215 -0.0817,0.12298 0.28247,0.22631 0.55036,0.41147 0.59531,0.41147 0.045,0 0.0817,-0.0553 0.0817,-0.12298 z m -1.32292,-0.79627 c 0,-0.069 -0.35718,-0.3102 -0.79375,-0.53596 -0.43656,-0.22575 -0.79375,-0.35168 -0.79375,-0.27983 0,0.0718 0.32743,0.30827 0.72761,0.52537 0.40018,0.21711 0.75737,0.3995 0.79375,0.40533 0.0364,0.006 0.0661,-0.0459 0.0661,-0.11491 z m -1.85208,-1.05833 c 0,-0.069 -0.35719,-0.3102 -0.79375,-0.53596 -0.43656,-0.22576 -0.79375,-0.35168 -0.79375,-0.27983 0,0.0719 0.32742,0.30827 0.72761,0.52537 0.40018,0.2171 0.75736,0.3995 0.79375,0.40532 0.0364,0.006 0.0661,-0.0459 0.0661,-0.1149 z m -1.85208,-1.05833 c 0,-0.069 -0.35719,-0.31021 -0.79375,-0.53596 -0.43656,-0.22576 -0.79375,-0.35168 -0.79375,-0.27983 0,0.0718 0.32742,0.30826 0.7276,0.52537 0.40018,0.2171 0.75737,0.39949 0.79375,0.40532 0.0364,0.006 0.0661,-0.0459 0.0661,-0.1149 z m -1.85209,-1.05582 c 0,-0.0676 -0.26789,-0.2528 -0.59531,-0.41147 -0.57166,-0.27703 -0.57491,-0.27215 -0.0817,0.12298 0.28247,0.22631 0.55036,0.41147 0.59531,0.41147 0.045,0 0.0817,-0.0553 0.0817,-0.12298 z m -1.32291,-0.79627 c 0,-0.069 -0.35719,-0.3102 -0.79375,-0.53596 -0.43656,-0.22575 -0.79375,-0.35168 -0.79375,-0.27983 0,0.0718 0.32742,0.30827 0.7276,0.52537 0.40018,0.21711 0.75737,0.3995 0.79375,0.40533 0.0364,0.006 0.0661,-0.0459 0.0661,-0.11491 z m -1.85209,-1.05833 c 0,-0.069 -0.35718,-0.3102 -0.79375,-0.53596 -0.43656,-0.22576 -0.79375,-0.35168 -0.79375,-0.27983 0,0.0719 0.32743,0.30827 0.72761,0.52537 0.40018,0.2171 0.75737,0.3995 0.79375,0.40532 0.0364,0.006 0.0661,-0.0459 0.0661,-0.1149 z m -1.85208,-1.05582 c 0,-0.0676 -0.26789,-0.2528 -0.59531,-0.41147 -0.57167,-0.27703 -0.57491,-0.27214 -0.0817,0.12298 0.28247,0.22631 0.55036,0.41147 0.59531,0.41147 0.045,0 0.0817,-0.0553 0.0817,-0.12298 z m -1.85208,-1.05833 c 0,-0.0676 -0.26789,-0.2528 -0.59532,-0.41147 -0.57166,-0.27703 -0.57491,-0.27215 -0.0817,0.12298 0.28248,0.22631 0.55037,0.41147 0.59532,0.41147 0.0449,0 0.0817,-0.0553 0.0817,-0.12298 z m -1.32292,-0.79627 c 0,-0.069 -0.35719,-0.3102 -0.79375,-0.53596 -0.43656,-0.22575 -0.79375,-0.35168 -0.79375,-0.27983 0,0.0718 0.32742,0.30827 0.7276,0.52537 0.40019,0.21711 0.75737,0.3995 0.79375,0.40533 0.0364,0.006 0.0661,-0.0459 0.0661,-0.11491 z m -1.85208,-1.05833 c 0,-0.069 -0.35719,-0.3102 -0.79375,-0.53596 -0.43657,-0.22576 -0.79375,-0.35168 -0.79375,-0.27983 0,0.0719 0.32742,0.30827 0.7276,0.52537 0.40018,0.2171 0.75737,0.3995 0.79375,0.40532 0.0364,0.006 0.0661,-0.0459 0.0661,-0.1149 z m -1.85209,-1.05582 c 0,-0.0676 -0.26789,-0.2528 -0.59531,-0.41147 -0.57166,-0.27703 -0.57491,-0.27214 -0.0817,0.12298 0.28247,0.22631 0.55036,0.41147 0.59531,0.41147 0.045,0 0.0817,-0.0553 0.0817,-0.12298 z m -1.32291,-0.79626 c 0,-0.069 -0.35719,-0.31021 -0.79375,-0.53596 -0.43657,-0.22576 -0.79375,-0.35168 -0.79375,-0.27983 0,0.0719 0.32742,0.30826 0.7276,0.52537 0.40018,0.2171 0.75737,0.39949 0.79375,0.40532 0.0364,0.006 0.0661,-0.0459 0.0661,-0.1149 z m -1.85209,-1.05834 c 0,-0.069 -0.35718,-0.3102 -0.79375,-0.53596 -0.43656,-0.22575 -0.79375,-0.35168 -0.79375,-0.27983 0,0.0718 0.32743,0.30827 0.72761,0.52537 0.40018,0.21711 0.75737,0.3995 0.79375,0.40533 0.0364,0.006 0.0661,-0.0459 0.0661,-0.11491 z m -1.85208,-1.05582 c 0,-0.0676 -0.26789,-0.2528 -0.595312,-0.41147 -0.571666,-0.27702 -0.574912,-0.27214 -0.08172,0.12299 0.282472,0.22631 0.550362,0.41147 0.595312,0.41147 0.045,0 0.0817,-0.0554 0.0817,-0.12299 z m -1.852083,-1.05833 c 0,-0.0676 -0.26789,-0.2528 -0.595312,-0.41147 -0.571666,-0.27703 -0.574912,-0.27214 -0.08172,0.12298 0.282474,0.22631 0.550365,0.41147 0.595312,0.41147 0.04495,0 0.08172,-0.0553 0.08172,-0.12298 z m -1.322917,-0.79626 c 0,-0.069 -0.357187,-0.31021 -0.79375,-0.53596 -0.436562,-0.22576 -0.79375,-0.35168 -0.79375,-0.27983 0,0.0719 0.327422,0.30826 0.727605,0.52537 0.400182,0.2171 0.757369,0.39949 0.79375,0.40532 0.03638,0.006 0.06614,-0.0459 0.06614,-0.1149 z m -1.852083,-1.05834 c 0,-0.069 -0.357187,-0.3102 -0.79375,-0.53596 -0.436562,-0.22575 -0.79375,-0.35168 -0.79375,-0.27983 0,0.0718 0.327422,0.30827 0.727604,0.52537 0.400183,0.21711 0.75737,0.3995 0.79375,0.40533 0.03638,0.006 0.06615,-0.0459 0.06615,-0.11491 z m -1.852083,-1.05582 c 0,-0.0676 -0.267891,-0.2528 -0.595313,-0.41147 -0.571665,-0.27702 -0.574912,-0.27214 -0.08172,0.12299 0.282475,0.22631 0.550366,0.41147 0.595313,0.41147 0.04495,0 0.08172,-0.0554 0.08172,-0.12299 z M 91.7339,152.76032 c 0,-0.0676 -0.26789,-0.2528 -0.595312,-0.41147 -0.571666,-0.27703 -0.574912,-0.27214 -0.08172,0.12298 0.282475,0.22631 0.550365,0.41147 0.595312,0.41147 0.04495,0 0.08172,-0.0553 0.08172,-0.12298 z m -1.322916,-0.79626 c 0,-0.069 -0.357188,-0.31021 -0.79375,-0.53596 -0.436563,-0.22576 -0.79375,-0.35168 -0.79375,-0.27983 0,0.0719 0.327421,0.30826 0.727604,0.52537 0.400182,0.2171 0.75737,0.39949 0.79375,0.40532 0.03638,0.006 0.06615,-0.0459 0.06615,-0.1149 z"
         id="path8054"
         inkscape:connector-curvature="0" />
      <path
         style="fill:#1892d1;stroke-width:0.26458335"
         d="m 119.05671,240.61807 c -16.91428,-9.78308 -30.805486,-17.83966 -30.869341,-17.90352 -0.06386,-0.0639 9.051527,-5.4138 20.256411,-11.88878 11.20488,-6.47497 20.58237,-11.87164 20.83888,-11.99261 0.35255,-0.16626 2.96281,1.22189 10.69527,5.68781 l 10.22889,5.90775 v 24.01167 c 0,13.20642 -0.0893,24.00119 -0.19844,23.98838 -0.10914,-0.0128 -14.03739,-8.02762 -30.95167,-17.8107 z m 31.41949,-6.16134 0.005,-24.02655 10.31396,-5.93645 10.31395,-5.93644 v -5.90366 -5.90366 h 20.76979 20.7698 v 17.94492 17.94493 l -30.89011,17.81676 c -16.98956,9.79922 -30.9794,17.864 -31.08854,17.92173 -0.10914,0.0577 -0.19628,-10.70697 -0.19364,-23.92158 z M 108.99002,162.62317 C 92.620113,153.175 88.349426,150.60277 88.617104,150.35258 c 0.186269,-0.1741 13.852266,-8.11054 30.368876,-17.63653 16.51662,-9.52599 30.2981,-17.46205 30.62553,-17.63568 l 0.59531,-0.31568 -0.003,24.02024 -0.003,24.02025 -10.09071,5.82083 c -5.54989,3.20146 -10.16208,5.85017 -10.24931,5.88602 -0.0872,0.0358 -9.47881,-5.31414 -20.87018,-11.88886 z"
         id="path8052"
         inkscape:connector-curvature="0" />
      <path
         style="fill:#48b648;stroke-width:0.26458335"
         d="m 119.05671,240.61807 c -16.91428,-9.78308 -30.805486,-17.83966 -30.869341,-17.90352 -0.06386,-0.0639 9.051527,-5.4138 20.256411,-11.88878 11.20488,-6.47497 20.58237,-11.87164 20.83888,-11.99261 0.35255,-0.16626 2.96281,1.22189 10.69527,5.68781 l 10.22889,5.90775 v 24.01167 c 0,13.20642 -0.0893,24.00119 -0.19844,23.98838 -0.10914,-0.0128 -14.03739,-8.02762 -30.95167,-17.8107 z m -10.06669,-77.9949 C 92.620113,153.175 88.349426,150.60277 88.617104,150.35258 c 0.186269,-0.1741 13.852266,-8.11054 30.368876,-17.63653 16.51662,-9.52599 30.2981,-17.46205 30.62553,-17.63568 l 0.59531,-0.31568 -0.003,24.02024 -0.003,24.02025 -10.09071,5.82083 c -5.54989,3.20146 -10.16208,5.85017 -10.24931,5.88602 -0.0872,0.0358 -9.47881,-5.31414 -20.87018,-11.88886 z"
         id="path8050"
         inkscape:connector-curvature="0" />
      <path
         style="fill:#2b8299;stroke-width:0.26458335"
         d="M 108.99002,162.62317 C 92.620113,153.175 88.349426,150.60277 88.617104,150.35258 c 0.186269,-0.1741 13.852266,-8.11054 30.368876,-17.63653 16.51662,-9.52599 30.2981,-17.46205 30.62553,-17.63568 l 0.59531,-0.31568 -0.003,24.02024 -0.003,24.02025 -10.09071,5.82083 c -5.54989,3.20146 -10.16208,5.85017 -10.24931,5.88602 -0.0872,0.0358 -9.47881,-5.31414 -20.87018,-11.88886 z"
         id="path8048"
         inkscape:connector-curvature="0" />
    </g>
    <path
       style="opacity:1;fill:#ffffff;fill-opacity:0;fill-rule:evenodd;stroke:none;stroke-width:13.49831295;stroke-linecap:square;stroke-linejoin:round;stroke-miterlimit:4;stroke-dasharray:none;stroke-dashoffset:0;stroke-opacity:1;paint-order:fill markers stroke"
       d="m 304.65874,582.80605 c -29.00883,-16.75763 -51.00553,-29.3611 -51.72637,-29.63771 -0.43349,-0.16635 -0.58056,0.11875 -0.68925,1.33616 -0.12605,1.41195 -0.14363,1.37155 -0.20056,-0.46087 l -0.0624,-2.00849 26.33928,-15.17908 c 36.11398,-20.81213 50.71793,-29.04434 51.00875,-28.75352 0.0695,0.0695 -0.0192,5.74377 -0.19711,12.60943 -0.36215,13.97367 -0.7209,45.60697 -0.72178,63.64373 -3.1e-4,6.53125 -0.12111,11.87177 -0.26843,11.86781 -0.14732,-0.004 -10.71428,-6.04181 -23.48214,-13.41746 z"
       id="path8080"
       inkscape:connector-curvature="0"
       transform="scale(0.26458333)" />
    <path
       style="opacity:1;fill:#ffffff;fill-opacity:0;fill-rule:evenodd;stroke:none;stroke-width:13.49831295;stroke-linecap:square;stroke-linejoin:round;stroke-miterlimit:4;stroke-dasharray:none;stroke-dashoffset:0;stroke-opacity:1;paint-order:fill markers stroke"
       d="m 322.33368,682.88362 c -7.38367,-4.15707 -39.73853,-22.75202 -58.53487,-33.6411 l -12.2885,-7.11896 0.22701,-43.92857 c 0.12486,-24.16072 0.3252,-44.27305 0.4452,-44.69408 0.20543,-0.72073 0.53481,-0.58728 5.63292,2.28232 6.35186,3.57529 29.5256,16.89273 53.40885,30.6929 9.30749,5.37802 16.97956,9.72136 17.04907,9.65186 0.0695,-0.0695 0.15523,-11.84715 0.1905,-26.17255 0.0744,-30.21371 0.46786,-56.46838 0.89613,-59.79617 0.17701,-1.37546 0.37152,15.80969 0.47732,42.17296 l 0.17857,44.49439 5.53572,-3.27966 c 17.00895,-10.07705 27.07442,-15.9315 40.53571,-23.57706 8.25,-4.68573 18.3607,-10.49842 22.46822,-12.91709 4.10751,-2.41867 7.50067,-4.3565 7.54034,-4.30628 0.0397,0.0502 0.16774,10.17613 0.28459,22.50203 l 0.21245,22.41071 h -38.33915 -38.33915 l -0.17343,43.48214 c -0.0954,23.91518 -0.31531,43.92717 -0.48872,44.47109 l -0.31528,0.98895 z"
       id="path8082"
       inkscape:connector-curvature="0"
       transform="scale(0.26458333)" />
  </g>
</svg>
