<?xml version="1.0" encoding="UTF-8" standalone="no"?>
<!-- Created with Inkscape (http://www.inkscape.org/) -->

<svg
   xmlns:dc="http://purl.org/dc/elements/1.1/"
   xmlns:cc="http://creativecommons.org/ns#"
   xmlns:rdf="http://www.w3.org/1999/02/22-rdf-syntax-ns#"
   xmlns:svg="http://www.w3.org/2000/svg"
   xmlns="http://www.w3.org/2000/svg"
   xmlns:sodipodi="http://sodipodi.sourceforge.net/DTD/sodipodi-0.dtd"
   xmlns:inkscape="http://www.inkscape.org/namespaces/inkscape"
   width="300mm"
   height="300mm"
   viewBox="0 0 300 300"
   version="1.1"
   id="svg8878"
   inkscape:version="0.92.3 (2405546, 2018-03-11)"
   sodipodi:docname="credits_garlicoin.svg">
  <defs
     id="defs8872" />
  <sodipodi:namedview
     id="base"
     pagecolor="#ffffff"
     bordercolor="#666666"
     borderopacity="1.0"
     inkscape:pageopacity="0.0"
     inkscape:pageshadow="2"
     inkscape:zoom="0.35"
     inkscape:cx="-77.142857"
     inkscape:cy="560"
     inkscape:document-units="mm"
     inkscape:current-layer="layer1"
     showgrid="false"
     inkscape:window-width="1920"
     inkscape:window-height="1001"
     inkscape:window-x="2391"
     inkscape:window-y="-9"
     inkscape:window-maximized="1" />
  <metadata
     id="metadata8875">
    <rdf:RDF>
      <cc:Work
         rdf:about="">
        <dc:format>image/svg+xml</dc:format>
        <dc:type
           rdf:resource="http://purl.org/dc/dcmitype/StillImage" />
        <dc:title></dc:title>
      </cc:Work>
    </rdf:RDF>
  </metadata>
  <g
     inkscape:label="Layer 1"
     inkscape:groupmode="layer"
     id="layer1"
     transform="translate(0,3)">
    <g
       id="g9434"
       transform="matrix(1.0870624,0,0,1.0870533,40.711835,-16.425143)">
      <path
         style="fill:#fbd76a;stroke-width:0.26458335"
         d="m 89.676877,287.88354 c -0.217916,-0.34547 -1.054828,-0.5162 -3.835106,-0.78235 -23.743381,-2.27287 -47.780274,-11.68728 -67.585528,-26.47086 -18.59078111,-13.87704 -34.351237,-33.57605 -43.358164,-54.19342 -0.699297,-1.60073 -1.484125,-3.38667 -1.744064,-3.96875 -1.746633,-3.91126 -4.92412,-13.8038 -6.228382,-19.39097 -2.002864,-8.57983 -3.117413,-15.97464 -3.535283,-23.45592 -0.135773,-2.43079 -0.312222,-3.72394 -0.517462,-3.79236 -0.366514,-0.12217 -0.456446,-10.90763 -0.09095,-10.90763 0.121267,0 0.220486,-0.17859 0.220486,-0.39688 0,-0.21828 -0.128984,-0.39869 -0.286632,-0.40092 -0.157647,-0.002 -0.117724,-0.11096 0.08872,-0.24163 0.270939,-0.17149 0.43185,-1.14555 0.578463,-3.50168 0.647703,-10.40877 3.084464,-22.76931 6.547828,-33.21402 4.250218,-12.817689 8.826796,-22.142278 16.628269,-33.879412 C -5.1189298,60.766485 7.075187,48.177272 19.976035,38.787043 34.784817,28.008071 51.503468,20.463546 70.246869,16.101622 c 6.911533,-1.608437 15.395535,-2.778336 21.942526,-3.025759 1.238287,-0.0468 2.005766,-0.192169 2.072568,-0.392576 0.124082,-0.372248 12.497407,-0.470428 12.497407,-0.09916 0,0.120502 1.69664,0.362952 3.77031,0.538779 13.04649,1.106214 22.08056,2.919557 33.66823,6.757982 12.04146,3.98874 21.39393,8.542183 32.14688,15.651362 23.03145,15.226963 41.20672,37.256733 51.44315,62.352904 2.58619,6.340476 5.49751,15.349546 6.64977,20.577796 1.48701,6.74699 2.06997,10.20249 2.74275,16.25733 0.37526,3.37704 0.60222,4.55946 0.9198,4.79167 0.46148,0.33745 0.58174,1.44058 0.15703,1.44058 -0.14552,0 -0.26459,0.47625 -0.26459,1.05834 0,0.58209 0.11907,1.05833 0.26459,1.05833 0.17042,0 0.26458,2.77812 0.26458,7.80521 0,5.02708 -0.0942,7.8052 -0.26458,7.8052 -0.14552,0 -0.26459,0.47625 -0.26459,1.05834 0,0.64238 0.12386,1.05833 0.31515,1.05833 0.17335,0 0.10358,0.1547 -0.15499,0.3438 -0.3728,0.2726 -0.54613,1.08067 -0.83707,3.9026 -1.37765,13.36269 -4.96424,27.19797 -10.25069,39.54215 -1.65163,3.85667 -4.69954,10.09616 -6.0099,12.30313 -0.47521,0.80036 -1.16283,1.99099 -1.52805,2.64583 -2.8906,5.18293 -8.64166,13.35045 -13.47391,19.13533 -6.13894,7.34919 -15.83374,16.5319 -23.22377,21.99709 -4.04449,2.99104 -12.52895,8.60925 -13.00145,8.60925 -0.0742,0 -1.04924,0.55545 -2.16685,1.23432 -3.30109,2.00523 -12.66373,6.43549 -17.24555,8.16037 -6.4499,2.42811 -12.48317,4.26609 -18.58091,5.66047 -5.86736,1.34172 -13.03489,2.52292 -17.2313,2.83972 -1.78201,0.13454 -2.491,0.29998 -2.85802,0.66701 -0.26846,0.26844 -0.4881,0.36905 -0.4881,0.22352 0,-0.14552 -0.65485,-0.26459 -1.45521,-0.26459 -0.80037,0 -1.45521,0.11906 -1.45521,0.26459 0,0.17011 -2.64583,0.26459 -7.40833,0.26459 -4.762504,0 -7.408337,-0.0945 -7.408337,-0.26459 0,-0.147 -0.705557,-0.26459 -1.5875,-0.26459 -0.881944,0 -1.5875,0.11758 -1.5875,0.26459 0,0.40937 -0.369115,0.31286 -0.678326,-0.17732 z"
         id="path9438"
         inkscape:connector-curvature="0" />
      <path
         style="fill:#333231;stroke-width:0.26458335"
         d="M 93.500233,269.78406 C 57.645064,267.72643 24.344838,249.2484 3.1743238,219.66296 -24.455311,181.05101 -26.469726,129.41023 -1.9318489,88.763093 23.223176,47.093641 70.775041,24.748405 118.63784,32.105835 c 18.72939,2.879066 35.59527,9.743902 51.35695,20.903572 3.73267,2.642828 4.95881,3.715142 4.62723,4.046726 -0.29564,0.29564 -4.84133,1.953051 -11.67885,4.258244 l -4.53808,1.529961 -3.48354,-2.105078 C 140.91176,52.273276 125.60158,47.319183 109.21236,45.948599 103.7795,45.494267 91.903835,45.769243 86.783328,46.467939 63.783352,49.606289 43.254778,59.668875 26.894088,75.824124 9.3538078,93.144152 -1.3456566,115.71481 -3.7086477,140.381 c -0.5028486,5.24902 -0.5028486,14.67945 0,19.92848 2.74067062,28.60861 16.6289937,54.20333 39.1628077,72.17291 14.863271,11.85271 32.20297,19.14415 51.990626,21.86233 4.77929,0.65652 17.847124,0.80976 23.222954,0.27232 24.67222,-2.46657 46.67946,-12.84598 63.9684,-30.16982 17.35119,-17.38622 27.72199,-39.37297 30.17641,-63.9759 0.53949,-5.4078 0.38847,-18.4756 -0.26838,-23.22296 -2.1215,-15.33302 -6.73382,-28.54269 -14.45448,-41.397606 l -2.10838,-3.510446 2.61999,-7.377743 c 3.15872,-8.894765 3.13475,-8.832953 3.42436,-8.832953 0.31918,0 3.80253,4.575845 6.04241,7.9375 3.64463,5.469925 6.42826,10.418951 9.05663,16.101808 15.24687,32.96552 14.71181,70.99467 -1.45347,103.30526 -2.73713,5.47088 -3.9477,7.54649 -7.66907,13.14918 -11.61061,17.4803 -27.2524,31.2954 -46.14696,40.75775 -18.64453,9.33715 -39.41182,13.60483 -60.354967,12.40295 z m 9.025807,-33.04367 c -13.770553,-1.35271 -26.219556,-6.93873 -35.718754,-16.02744 -0.800365,-0.76578 -2.227898,-1.77721 -3.172299,-2.24763 -9.200327,-4.58276 -23.403716,-18.70993 -30.581055,-30.41696 -0.847551,-1.38244 -2.245281,-3.27645 -3.106069,-4.20889 -8.396419,-9.09534 -13.542541,-19.91928 -15.42129,-32.4359 -0.621556,-4.14095 -0.62821,-12.75898 -0.01304,-16.88179 2.356647,-15.79382 9.131605,-29.26455 20.39705,-40.555676 5.82136,-5.834637 11.912571,-10.222564 19.064404,-13.733423 9.115801,-4.47498 17.602949,-6.634729 27.252084,-6.934923 6.126938,-0.190614 9.498563,0.148389 17.594792,1.769084 10.260527,2.053939 15.309577,2.644756 22.621867,2.647103 12.9487,0.0042 24.3318,-2.546368 47.4068,-10.622082 8.15449,-2.853883 9.4118,-3.224403 10.93383,-3.222127 2.21278,0.0033 3.83505,0.758928 5.42425,2.526503 1.21238,1.348457 1.9851,3.226846 1.98302,4.820457 -5.2e-4,0.446532 -1.02725,3.788437 -2.2815,7.426458 -9.09436,26.378856 -11.27399,35.460406 -11.65255,48.551046 -0.24039,8.31266 0.36849,14.1199 2.67705,25.53229 1.41567,6.99839 1.73306,9.72244 1.73306,14.874 0,23.38838 -13.01022,45.97734 -33.92765,58.90679 -8.22278,5.08265 -17.47453,8.44972 -27.05881,9.84772 -3.23414,0.47175 -11.09685,0.68582 -14.1552,0.38539 z m 13.75833,-15.36966 c 17.4956,-2.99287 32.90466,-14.739 41.01171,-31.26269 5.26499,-10.73102 6.74211,-21.90788 4.36336,-33.01593 -0.9428,-4.40257 -2.16669,-11.59373 -2.53296,-14.88281 -0.17421,-1.56435 -0.41486,-2.84427 -0.53478,-2.84427 -0.11992,0 -2.22561,4.07789 -4.67933,9.06198 -12.40919,25.20606 -20.9807,38.24679 -30.99899,47.16198 -5.79826,5.15982 -12.25128,9.62189 -18.53526,12.81659 -5.557619,2.82542 -13.021292,5.47474 -17.991668,6.38635 -0.945885,0.17348 -1.818261,0.40376 -1.938612,0.51173 -0.924563,0.82943 8.693756,4.86695 14.109446,5.92278 5.553094,1.08262 11.938074,1.13459 17.727084,0.14429 z M 81.268278,200.58738 c 11.699579,-1.71116 25.057372,-9.01126 34.623282,-18.92178 3.05243,-3.16239 4.63103,-5.21143 8.13169,-10.555 10.29753,-15.71861 23.88756,-43.18136 36.81686,-74.399537 3.90097,-9.419011 4.36863,-10.615912 4.23343,-10.834674 -0.16194,-0.262015 -0.8781,0.01109 -10.02771,3.82379 -37.04571,15.437241 -65.038203,29.592311 -80.296115,40.603651 -3.375388,2.43595 -9.121172,8.14032 -11.9892,11.90277 -6.05573,7.94429 -10.333043,16.87739 -12.13154,25.33655 -0.535051,2.51659 -0.618225,3.64437 -0.614672,8.33438 0.0045,5.93564 0.183528,7.08458 1.741342,11.17529 0.820777,2.1553 0.896485,2.25012 5.362398,6.71604 4.465915,4.46591 4.560731,4.54162 6.716038,5.36239 5.391274,2.0531 10.458788,2.47634 17.434197,1.45613 z m -44.90557,-37.14527 c 3.538127,-16.45054 14.896359,-33.92348 29.229621,-44.9654 8.814578,-6.79049 24.378394,-15.64891 42.974561,-24.459735 1.79449,-0.850231 3.16371,-1.631323 3.0427,-1.735762 -0.12101,-0.104439 -2.30361,-0.45054 -4.85022,-0.769112 -2.54662,-0.318572 -7.249584,-1.112544 -10.451042,-1.764379 -3.201459,-0.651836 -7.190053,-1.315927 -8.863542,-1.475759 -8.397079,-0.801989 -18.443475,1.190601 -26.722917,5.300189 -12.875263,6.39077 -23.081369,17.429098 -28.339651,30.650528 -3.957241,9.95008 -4.620443,21.67259 -1.795335,31.73369 1.212318,4.31745 4.437858,11.11471 4.979162,10.49271 0.109534,-0.12586 0.468032,-1.479 0.796663,-3.00697 z"
         id="path9436"
         inkscape:connector-curvature="0" />
    </g>
  </g>
</svg>
