<?xml version="1.0" encoding="UTF-8" standalone="no"?>
<!-- Created with Inkscape (http://www.inkscape.org/) -->

<svg
   xmlns:dc="http://purl.org/dc/elements/1.1/"
   xmlns:cc="http://creativecommons.org/ns#"
   xmlns:rdf="http://www.w3.org/1999/02/22-rdf-syntax-ns#"
   xmlns:svg="http://www.w3.org/2000/svg"
   xmlns="http://www.w3.org/2000/svg"
   xmlns:sodipodi="http://sodipodi.sourceforge.net/DTD/sodipodi-0.dtd"
   xmlns:inkscape="http://www.inkscape.org/namespaces/inkscape"
   width="300mm"
   height="300mm"
   viewBox="0 0 300 300"
   version="1.1"
   id="svg847"
   inkscape:version="0.92.3 (2405546, 2018-03-11)"
   sodipodi:docname="credits_bitcoincash.svg"
   inkscape:export-filename="C:\Users\curff\Desktop\Workspaces\C &amp; C++\Spybot\SpybotClient\resources\achievements\credits_bitcoincash.png"
   inkscape:export-xdpi="4.23"
   inkscape:export-ydpi="4.23">
  <defs
     id="defs841" />
  <sodipodi:namedview
     id="base"
     pagecolor="#ffffff"
     bordercolor="#666666"
     borderopacity="1.0"
     inkscape:pageopacity="0.0"
     inkscape:pageshadow="2"
     inkscape:zoom="0.49497475"
     inkscape:cx="638.35874"
     inkscape:cy="634.18353"
     inkscape:document-units="mm"
     inkscape:current-layer="layer1"
     showgrid="false"
     inkscape:window-width="1920"
     inkscape:window-height="1001"
     inkscape:window-x="2391"
     inkscape:window-y="-9"
     inkscape:window-maximized="1" />
  <metadata
     id="metadata844">
    <rdf:RDF>
      <cc:Work
         rdf:about="">
        <dc:format>image/svg+xml</dc:format>
        <dc:type
           rdf:resource="http://purl.org/dc/dcmitype/StillImage" />
        <dc:title />
      </cc:Work>
    </rdf:RDF>
  </metadata>
  <g
     inkscape:label="Layer 1"
     inkscape:groupmode="layer"
     id="layer1"
     transform="translate(0,3)">
    <path
       style="fill:#4cca47;fill-opacity:1;stroke-width:0.43886036"
       d="m 144.25125,296.92445 c -17.79983,-1.24593 -28.69106,-3.26134 -42.13249,-7.79651 C 57.942496,274.22269 22.677077,239.0307 7.9126709,195.11798 -6.9415441,150.93815 -0.66444812,102.51331 24.913161,63.967168 47.043339,30.616417 81.526801,7.3358225 120.13288,-0.31794984 132.02377,-2.6753621 135.46389,-2.987025 149.73269,-2.9997239 c 14.59827,-0.01245 18.87575,0.3856362 31.0141,2.89035165 19.34153,3.99102795 36.76338,11.40835525 53.61943,22.82835225 14.60988,9.898222 28.64291,23.784422 38.86028,38.45368 30.96383,44.45535 35.40912,102.66796 11.56633,151.46553 -5.24188,10.72823 -9.84439,18.00959 -17.90648,28.32874 -4.23794,5.42441 -17.43951,18.58997 -23.3113,23.24775 -22.47802,17.83054 -49.12585,28.82348 -77.17878,31.83831 -6.13805,0.65966 -18.32138,1.13909 -22.14502,0.87146 z m 8.0337,-60.97695 c 4.17737,-1.05775 7.70628,-2.03442 7.84204,-2.17039 0.1357,-0.13592 -1.24674,-6.22872 -3.07222,-13.53943 -1.8255,-7.31072 -3.14583,-13.39945 -2.93408,-13.53053 0.58151,-0.35997 12.30201,-3.19799 12.44509,-3.0135 0.0684,0.0882 1.57778,5.94446 3.35416,13.01385 1.77639,7.06938 3.35608,13.05808 3.51044,13.30822 0.1819,0.29493 3.01352,-0.2328 8.05519,-1.50126 4.27602,-1.07583 7.84737,-2.02896 7.93633,-2.11808 0.0889,-0.089 -1.31519,-6.0689 -3.12037,-13.28846 -1.80516,-7.21954 -3.19637,-13.35021 -3.0916,-13.62371 0.10483,-0.27349 1.74189,-0.8628 3.638,-1.30959 16.24147,-3.82694 28.01065,-12.81019 33.9388,-25.90497 5.81642,-12.84803 1.43272,-29.46636 -10.015,-37.96625 -4.01454,-2.98078 -10.63423,-6.08436 -15.41947,-7.22927 l -3.84678,-0.92038 2.20461,-2.87435 c 8.02044,-10.45698 8.91346,-22.40948 2.49649,-33.414146 -3.61506,-6.19956 -11.64027,-11.759174 -20.38221,-14.120175 -4.86224,-1.313176 -15.46002,-1.331643 -20.49999,-0.03569 l -3.39788,0.873693 -0.41747,-1.586472 c -0.22963,-0.872552 -1.72231,-6.823985 -3.31709,-13.2254 -1.59477,-6.401414 -3.04981,-11.791937 -3.2334,-11.978956 -0.32535,-0.331375 -15.23167,3.321493 -15.77509,3.865761 -0.15041,0.150437 1.23108,6.237491 3.06976,13.526564 1.83866,7.289073 3.31547,13.287421 3.28179,13.329647 -0.17424,0.218455 -12.6103,3.304498 -12.74807,3.163461 -0.0891,-0.09109 -1.65547,-6.074064 -3.48085,-13.295244 -1.8254,-7.2212 -3.41448,-13.225192 -3.5313,-13.3422 -0.24606,-0.246447 -14.71093,3.305701 -15.53268,3.814384 -0.419957,0.259954 0.23773,3.472945 2.79039,13.631703 1.83694,7.310362 3.2787,13.350335 3.20389,13.42215 -0.0748,0.07179 -7.502267,2.009914 -16.505497,4.306882 -9.00323,2.296989 -16.440131,4.247081 -16.526481,4.333567 -0.219561,0.219907 3.786828,16.310491 4.168254,16.740721 0.171125,0.19297 3.547605,-0.46671 7.503217,-1.46615 8.025416,-2.02776 9.94655,-2.06204 12.715393,-0.22681 0.906546,0.60085 1.999693,1.88987 2.510184,2.95998 0.49738,1.04258 5.07138,18.55864 10.16446,38.92456 8.36058,33.43182 9.21222,37.17439 8.76689,38.52589 -0.79977,2.42709 -2.48745,3.46909 -7.73619,4.77635 -2.61673,0.65173 -5.47632,1.37466 -6.35461,1.60649 l -1.59688,0.42152 0.19702,9.32901 c 0.10835,5.13096 0.27808,9.73409 0.37726,10.2292 0.17299,0.86355 0.85034,0.73137 16.64743,-3.24839 9.05688,-2.28169 16.56377,-4.0517 16.68194,-3.93336 0.11809,0.11827 1.72842,6.17532 3.57835,13.45991 1.84993,7.28457 3.47582,13.23978 3.61309,13.23379 0.13736,-0.006 3.66748,-0.87633 7.84483,-1.93408 z m -3.55046,-49.33223 c -0.54967,-1.04712 -8.79073,-34.81162 -8.55439,-35.04834 0.15745,-0.1577 5.28176,-1.56267 11.3875,-3.12229 9.64943,-2.46482 11.78948,-2.86703 16.36349,-3.0754 6.10571,-0.27813 9.72091,0.37626 14.00189,2.53449 3.53476,1.78204 6.062,4.32025 7.50241,7.53496 1.06048,2.36679 1.16131,3.02157 0.98852,6.42007 -0.2531,4.97781 -1.5223,7.50026 -5.99493,11.91444 -5.41856,5.3477 -8.13292,6.49481 -26.01959,10.99602 -9.19905,2.31495 -9.40781,2.35479 -9.6749,1.84605 z m -13.03765,-51.60664 c -0.002,-0.0604 -1.86325,-7.41936 -4.13647,-16.35328 -2.27321,-8.93391 -4.07689,-16.29978 -4.00818,-16.36861 0.46693,-0.46766 19.93742,-4.997519 22.43466,-5.21948 5.72449,-0.508807 12.05937,1.33183 16.06075,4.6665 0.92658,0.7722 2.24548,2.61828 3.06959,4.29651 1.26972,2.58566 1.44499,3.36952 1.44499,6.46264 0,4.64436 -1.40507,7.64915 -5.44543,11.64538 -4.07778,4.03324 -6.88408,5.27014 -18.99001,8.36996 -10.69579,2.73875 -10.42462,2.67374 -10.4299,2.50038 z"
       id="path1403"
       inkscape:connector-curvature="0" />
  </g>
</svg>
