<?xml version="1.0" encoding="UTF-8" standalone="no"?>
<!-- Created with Inkscape (http://www.inkscape.org/) -->

<svg
   xmlns:dc="http://purl.org/dc/elements/1.1/"
   xmlns:cc="http://creativecommons.org/ns#"
   xmlns:rdf="http://www.w3.org/1999/02/22-rdf-syntax-ns#"
   xmlns:svg="http://www.w3.org/2000/svg"
   xmlns="http://www.w3.org/2000/svg"
   xmlns:sodipodi="http://sodipodi.sourceforge.net/DTD/sodipodi-0.dtd"
   xmlns:inkscape="http://www.inkscape.org/namespaces/inkscape"
   width="300mm"
   height="300mm"
   viewBox="0 0 300 300"
   version="1.1"
   id="svg8"
   inkscape:version="0.92.3 (2405546, 2018-03-11)"
   sodipodi:docname="credits_bitcoin.svg">
  <defs
     id="defs2" />
  <sodipodi:namedview
     id="base"
     pagecolor="#ffffff"
     bordercolor="#666666"
     borderopacity="1.0"
     inkscape:pageopacity="0.0"
     inkscape:pageshadow="2"
     inkscape:zoom="0.45254834"
     inkscape:cx="256.49615"
     inkscape:cy="545.57501"
     inkscape:document-units="mm"
     inkscape:current-layer="layer1"
     showgrid="false"
     inkscape:window-width="1920"
     inkscape:window-height="1001"
     inkscape:window-x="2391"
     inkscape:window-y="-9"
     inkscape:window-maximized="1" />
  <metadata
     id="metadata5">
    <rdf:RDF>
      <cc:Work
         rdf:about="">
        <dc:format>image/svg+xml</dc:format>
        <dc:type
           rdf:resource="http://purl.org/dc/dcmitype/StillImage" />
        <dc:title></dc:title>
      </cc:Work>
    </rdf:RDF>
  </metadata>
  <g
     inkscape:label="Layer 1"
     inkscape:groupmode="layer"
     id="layer1"
     transform="translate(0,3)">
    <path
       style="fill:#f89c2e;fill-opacity:1;stroke-width:0.41662446"
       d="M 138.74418,296.64414 C 131.574,295.91366 125.49589,295.04312 120.38619,294.01482 74.194845,284.71897 35.493126,254.66056 14.971996,212.14297 6.9208122,195.46176 2.4481163,179.55683 0.59030451,161.00158 -0.65224678,148.59126 0.11334493,132.30589 2.5537592,119.23571 12.597277,65.445536 51.386508,21.341356 103.63658,4.3023588 c 14.62958,-4.77077012 26.7765,-6.8270093 42.63811,-7.2178138 10.89077,-0.2683319 17.2009,0.1408991 27.46595,1.7812324 55.63962,8.8911118 101.38192,48.0265186 118.89129,101.7190126 5.02736,15.41638 7.35011,30.11716 7.34146,46.4644 -0.0187,35.44103 -12.37566,69.26712 -35.34613,96.75725 -7.0841,8.47799 -18.3728,18.82085 -27.90189,25.56411 -11.71627,8.29104 -26.70053,15.81545 -40.48702,20.33072 -9.5504,3.12789 -23.00919,5.87121 -33.32995,6.79368 -4.41209,0.39438 -20.76661,0.49535 -24.16422,0.14913 z m 9.84679,-70.7901 c 1.80229,-7.23866 3.38982,-13.34496 3.52788,-13.56954 0.15877,-0.25835 2.3783,-0.0751 6.04104,0.49852 8.24466,1.29137 18.76156,1.56117 24.36063,0.62494 12.4982,-2.08984 20.30139,-7.88907 25.55144,-18.98945 2.92133,-6.17668 4.83137,-13.84743 4.83137,-19.40283 0,-2.62802 -1.13161,-7.78994 -2.26084,-10.31296 -2.17718,-4.86445 -7.12625,-10.00556 -12.71068,-13.20388 -1.37605,-0.78811 -2.5075,-1.53929 -2.51431,-1.6693 -0.006,-0.13006 1.06563,-0.57142 2.3832,-0.9809 3.91372,-1.21632 7.21931,-3.19683 10.13727,-6.07364 3.28199,-3.23569 5.34674,-6.79886 6.88054,-11.8738 0.98758,-3.26768 1.13816,-4.49932 1.17138,-9.58236 0.0335,-5.12067 -0.0859,-6.21167 -0.97828,-8.93648 -3.08517,-9.42102 -12.39749,-17.108507 -27.98693,-23.103774 l -4.00588,-1.540552 3.33226,-13.324683 c 1.83273,-7.328565 3.22644,-13.430482 3.09712,-13.559823 -0.12928,-0.129278 -3.77396,-1.123508 -8.09919,-2.209288 l -7.86404,-1.974131 -3.2532,13.055481 c -2.15752,8.658367 -3.43331,13.055482 -3.78794,13.055482 -0.83785,0 -12.29883,-2.791812 -12.56867,-3.061644 -0.13274,-0.132742 1.21383,-6.066693 2.9922,-13.186711 1.77838,-7.12002 3.15947,-13.019438 3.0691,-13.109806 -0.19246,-0.192469 -15.14239,-3.971788 -15.71128,-3.971788 -0.21197,0 -1.85998,5.92877 -3.66227,13.175061 -1.82826,7.35072 -3.50522,13.263412 -3.79336,13.374897 -0.28405,0.10991 -7.76279,-1.605429 -16.61942,-3.811851 -8.85662,-2.206422 -16.14202,-3.959945 -16.18978,-3.896692 -0.0477,0.0633 -0.96629,3.677124 -2.04121,8.030856 -1.07492,4.353717 -2.043113,8.211972 -2.151528,8.573888 -0.160125,0.534435 0.762488,0.878069 4.912018,1.829578 8.78247,2.013875 11.37087,3.179002 13.17435,5.930251 2.00449,3.057879 2.14327,2.305057 -7.79617,42.289029 -5.05301,20.32705 -9.47357,37.51188 -9.82347,38.1885 -0.838863,1.62216 -2.49523,2.8874 -4.198271,3.20689 -0.931905,0.17482 -3.556474,-0.27674 -8.110091,-1.3954 l -6.732311,-1.65388 -1.036557,2.34377 c -4.128306,9.33439 -6.880405,15.96545 -6.700754,16.14511 0.116524,0.11653 7.444632,2.03893 16.284603,4.27192 8.839971,2.233 16.158711,4.14605 16.263901,4.25122 0.10518,0.10519 -1.29195,6.09283 -3.1047,13.3059 -1.81276,7.21306 -3.301034,13.32571 -3.307286,13.58363 -0.0094,0.3783 14.373316,4.32221 15.762026,4.32221 0.20556,0 1.82839,-5.85878 3.60629,-13.01952 1.77792,-7.16074 3.38803,-13.19137 3.57804,-13.40141 0.27661,-0.3058 11.78735,2.30673 12.92792,2.93416 0.14534,0.08 -1.20879,6.00649 -3.00917,13.1701 -1.80036,7.1636 -3.27851,13.22127 -3.28476,13.46147 -0.008,0.31497 12.64375,3.7485 15.87646,4.30862 0.1455,0.0251 1.73902,-5.87673 3.54131,-13.11539 z m -1.5143,-36.40097 c -3.92743,-0.66372 -18.72586,-4.09203 -19.11184,-4.42756 -0.27339,-0.23765 8.75305,-36.41777 9.08571,-36.41777 0.17581,0 4.33157,1.00818 9.23499,2.24041 12.30172,3.09139 18.43589,5.43886 23.9138,9.15151 6.7175,4.55278 9.75491,10.36993 8.67937,16.62244 -1.1889,6.91161 -5.47462,11.30906 -12.67609,13.00658 -3.69616,0.87124 -13.46206,0.78157 -19.12594,-0.17561 z m 8.95744,-53.74335 c -4.21121,-0.75582 -12.5157,-2.72318 -14.20337,-3.36483 -0.91409,-0.34754 -0.9049,-0.39593 3.16258,-16.64956 2.24363,-8.96555 4.14581,-16.364564 4.22707,-16.442241 0.32739,-0.312993 16.20514,3.939981 19.31244,5.172991 7.04887,2.79706 11.70066,6.29231 13.98728,10.50969 1.33159,2.45597 1.42661,2.88613 1.40976,6.38307 -0.0225,4.66922 -1.1024,7.68815 -3.70981,10.371 -3.42244,3.52142 -7.60951,4.83997 -15.22853,4.79555 -2.65152,-0.0157 -6.65179,-0.36186 -8.95742,-0.77567 z"
       id="path839"
       inkscape:connector-curvature="0" />
  </g>
</svg>
