<?xml version="1.0" encoding="UTF-8" standalone="no"?>
<!-- Created with Inkscape (http://www.inkscape.org/) -->

<svg
   xmlns:dc="http://purl.org/dc/elements/1.1/"
   xmlns:cc="http://creativecommons.org/ns#"
   xmlns:rdf="http://www.w3.org/1999/02/22-rdf-syntax-ns#"
   xmlns:svg="http://www.w3.org/2000/svg"
   xmlns="http://www.w3.org/2000/svg"
   xmlns:sodipodi="http://sodipodi.sourceforge.net/DTD/sodipodi-0.dtd"
   xmlns:inkscape="http://www.inkscape.org/namespaces/inkscape"
   width="300mm"
   height="300mm"
   viewBox="0 0 300 300"
   version="1.1"
   id="svg1968"
   inkscape:version="0.92.3 (2405546, 2018-03-11)"
   sodipodi:docname="credits_ripple.svg"
   inkscape:export-filename="C:\Users\curff\Desktop\Workspaces\C &amp; C++\Spybot\SpybotClient\resources\achievements\credits_ripple.png"
   inkscape:export-xdpi="4.23"
   inkscape:export-ydpi="4.23">
  <defs
     id="defs1962" />
  <sodipodi:namedview
     id="base"
     pagecolor="#ffffff"
     bordercolor="#666666"
     borderopacity="1.0"
     inkscape:pageopacity="0.0"
     inkscape:pageshadow="2"
     inkscape:zoom="0.49497475"
     inkscape:cx="-195.39778"
     inkscape:cy="582.60652"
     inkscape:document-units="mm"
     inkscape:current-layer="layer1"
     showgrid="false"
     inkscape:window-width="1920"
     inkscape:window-height="1001"
     inkscape:window-x="2391"
     inkscape:window-y="-9"
     inkscape:window-maximized="1" />
  <metadata
     id="metadata1965">
    <rdf:RDF>
      <cc:Work
         rdf:about="">
        <dc:format>image/svg+xml</dc:format>
        <dc:type
           rdf:resource="http://purl.org/dc/dcmitype/StillImage" />
        <dc:title />
      </cc:Work>
    </rdf:RDF>
  </metadata>
  <g
     inkscape:label="Layer 1"
     inkscape:groupmode="layer"
     id="layer1"
     transform="translate(0,3)">
    <path
       style="fill:#1176a8;fill-opacity:1;stroke-width:1.00667083"
       d="m 138.35115,296.57826 c -13.04017,-0.78893 -24.57849,-3.14674 -37.67241,-7.69818 C 50.016808,271.27016 13.332452,229.08282 2.2952587,175.73821 -0.76755049,160.93516 -0.76464928,133.73968 2.3013487,118.28742 12.269806,68.048153 46.648821,26.408776 93.775704,7.4949176 114.99497,-1.0212158 130.4152,-3.6272247 155.15285,-2.8778275 c 20.17411,0.6111523 32.28116,2.88888644 48.40097,9.1058038 42.48647,16.3856407 75.21272,50.2555437 89.4019,92.5261107 5.74985,17.129073 7.00411,25.672383 7.04226,47.967733 0.0305,17.99804 -0.26271,21.95148 -2.30597,31.06508 -12.79119,57.0505 -54.96268,100.78214 -110.85068,114.95172 -6.44676,1.63445 -15.57455,3.18777 -20.28398,3.45179 -4.70944,0.26387 -10.60252,0.60328 -13.09575,0.75392 -2.49324,0.15057 -9.29295,-0.0152 -15.11049,-0.36614 z m 56.24878,-70.78412 c 6.80244,-3.46799 13.10445,-9.73475 16.28995,-16.19877 2.10092,-4.2632 2.48113,-6.4866 2.49438,-14.58666 0.0148,-8.97988 -0.19162,-9.93847 -3.41757,-15.87958 -6.07898,-11.19537 -14.89173,-16.68191 -29.46089,-18.34126 -9.3492,-1.06482 -12.45892,-2.72167 -15.20606,-8.10171 -2.29569,-4.49592 -2.22727,-8.7149 0.20594,-12.70002 2.90575,-4.75899 6.17353,-6.41907 13.82477,-7.02312 13.85804,-1.09409 24.33476,-7.74441 30.07595,-19.0913 2.63855,-5.21483 2.97515,-6.90422 2.97552,-14.933801 4.8e-4,-10.507264 -1.8623,-15.664265 -8.18106,-22.648716 -4.99689,-5.523335 -9.77545,-8.496628 -17.04906,-10.60821 -11.31694,-3.285409 -24.67331,0.631798 -33.20262,9.737754 -6.79091,7.250028 -8.91884,12.697549 -8.99065,23.01619 -0.0531,7.627923 0.29385,9.295873 3.21442,15.454083 3.84315,8.10349 4.21356,13.67682 1.23339,18.55817 -3.65074,5.97967 -12.53457,7.77997 -18.64898,3.77915 -1.28912,-0.84346 -3.978,-3.99218 -5.97531,-6.99707 -3.90082,-5.86876 -7.46708,-8.98505 -14.63715,-12.79032 -3.86498,-2.05121 -5.94372,-2.40552 -14.103121,-2.40378 -8.513846,0.002 -10.157422,0.31064 -14.893047,2.79802 -6.798772,3.5711 -12.504384,9.28222 -16.006541,16.02208 -2.397628,4.61421 -2.767765,6.5106 -2.804658,14.36953 -0.03693,7.88673 0.313917,9.77855 2.722518,14.67625 3.483093,7.08262 9.726633,13.3019 16.871834,16.80627 4.708017,2.30906 6.842754,2.72068 14.109894,2.72068 7.339301,0 9.383361,-0.40245 14.307531,-2.81725 5.38748,-2.64194 7.27514,-4.42514 18.43185,-17.41176 5.57175,-6.48561 14.78381,-6.40995 20.56812,0.16881 3.99694,4.546 4.25047,10.65855 0.69943,16.86304 -7.34897,12.84035 -5.58054,28.46109 4.45267,39.33081 8.01594,8.6843 15.53488,11.81294 27.16648,11.30411 5.78958,-0.25322 8.81181,-0.97114 12.93206,-3.07173 z"
       id="path2526"
       inkscape:connector-curvature="0" />
  </g>
</svg>
