<?xml version="1.0" encoding="UTF-8" standalone="no"?>
<!-- Created with Inkscape (http://www.inkscape.org/) -->

<svg
   xmlns:dc="http://purl.org/dc/elements/1.1/"
   xmlns:cc="http://creativecommons.org/ns#"
   xmlns:rdf="http://www.w3.org/1999/02/22-rdf-syntax-ns#"
   xmlns:svg="http://www.w3.org/2000/svg"
   xmlns="http://www.w3.org/2000/svg"
   xmlns:sodipodi="http://sodipodi.sourceforge.net/DTD/sodipodi-0.dtd"
   xmlns:inkscape="http://www.inkscape.org/namespaces/inkscape"
   width="100mm"
   height="100mm"
   viewBox="0 0 100 100"
   version="1.1"
   id="svg8"
   inkscape:version="0.92.3 (2405546, 2018-03-11)"
   sodipodi:docname="item_coin.svg">
  <defs
     id="defs2" />
  <sodipodi:namedview
     id="base"
     pagecolor="#ffffff"
     bordercolor="#666666"
     borderopacity="1.0"
     inkscape:pageopacity="0.0"
     inkscape:pageshadow="2"
     inkscape:zoom="0.70710678"
     inkscape:cx="295.8594"
     inkscape:cy="130.23376"
     inkscape:document-units="mm"
     inkscape:current-layer="layer1"
     showgrid="false"
     fit-margin-left="-0.1"
     inkscape:window-width="958"
     inkscape:window-height="991"
     inkscape:window-x="2392"
     inkscape:window-y="0"
     inkscape:window-maximized="0" />
  <metadata
     id="metadata5">
    <rdf:RDF>
      <cc:Work
         rdf:about="">
        <dc:format>image/svg+xml</dc:format>
        <dc:type
           rdf:resource="http://purl.org/dc/dcmitype/StillImage" />
        <dc:title></dc:title>
      </cc:Work>
    </rdf:RDF>
  </metadata>
  <g
     inkscape:label="Layer 1"
     inkscape:groupmode="layer"
     id="layer1"
     transform="translate(0,-197)">
    <g
       transform="matrix(4.1666667,0,0,4.1666667,0,197)"
       id="g2526">
      <path
         style="fill:#000000;fill-opacity:0"
         d="M 0,0.5 V 0 H 0.5 1 1.5 2 2.5 3 3.5 4 4.5 5 5.5 6 6.5 7 7.5 8 L 7.875,0.375 Q 7.75,0.75 7.375,0.875 7,1 6.5,1 6,1 5.875,1.375 5.75,1.75 5.375,1.875 5,2 4.875,2.375 4.75,2.75 4.375,2.875 4,3 3.875,3.375 3.75,3.75 3.375,3.875 3,4 2.875,4.375 2.75,4.75 2.375,4.875 2,5 1.875,5.375 1.75,5.75 1.375,5.875 1,6 1,6.5 1,7 1.046875,7.546875 L 1.09375,8.09375 0.546875,8.046875 0,8 V 7.5 7 6.5 6 5.5 5 4.5 4 3.5 3 2.5 2 1.5 1 0.5"
         id="path2492"
         inkscape:connector-curvature="0" />
      <path
         style="fill:#000000;fill-opacity:1"
         d="M 7.875,0.375 8,0 H 8.5 9 9.5 10 10.5 11 11.5 12 12.5 13 l 0.125,0.375 q 0.125,0.375 0.5,0.5 Q 14,1 14.5,1 q 0.5,0 0.625,0.375 0.125,0.375 0.5,0.5 0.375,0.125 0.5,0.5 0.125,0.375 0.5,0.5 0.375,0.125 0.5,0.5 0.125,0.375 0.5,0.5 0.375,0.125 0.5,0.5 0.125,0.375 0.5,0.5 0.375,0.125 0.5,0.5 0.125,0.375 0.5,0.5 Q 20,6 20,6.5 V 7 l 0.125,0.375 q 0.125,0.375 0.5,0.5 L 21,8 v 0.5 q 0,0.5 0,1 0,0.5 0,1 0,0.5 0,1 0,0.5 0,1 0,0.5 -0.375,0.625 -0.375,0.125 -0.5,0.5 Q 20,14 20,14.5 q 0,0.5 -0.375,0.625 -0.375,0.125 -0.5,0.5 -0.125,0.375 -0.5,0.5 -0.375,0.125 -0.5,0.5 -0.125,0.375 -0.5,0.5 -0.375,0.125 -0.5,0.5 -0.125,0.375 -0.5,0.5 -0.375,0.125 -0.5,0.5 -0.125,0.375 -0.5,0.5 -0.375,0.125 -0.5,0.5 Q 15,20 14.5,20 14,20 13.453125,19.953125 L 12.90625,19.90625 12.828125,19.953125 12.75,20 12.90625,19.90625 Q 13.0625,19.8125 13.125,19.625 L 13.1875,19.4375 13.09375,19.71875 13,20 13.125,19.625 q 0.125,-0.375 0.5,-0.5 Q 14,19 14.375,18.875 14.75,18.75 15,18.5 15.25,18.25 15.5,18 15.75,17.75 16,17.5 16.25,17.25 16.5,17 16.75,16.75 17,16.5 17.25,16.25 17.5,16 17.75,15.75 18,15.5 18.25,15.25 18.5,15 18.75,14.75 18.875,14.375 19,14 19.125,13.625 19.25,13.25 19.5,13 19.75,12.75 19.875,12.375 20,12 20,11.5 20,11 20,10.5 20,10 20,9.5 20,9 19.875,8.625 19.75,8.25 19.5,8 19.25,7.75 19.125,7.375 19,7 18.875,6.625 18.75,6.25 18.5,6 18.25,5.75 18,5.5 17.75,5.25 17.5,5 17.25,4.75 17,4.5 16.75,4.25 16.5,4 16.25,3.75 16,3.5 15.75,3.25 15.5,3 15.25,2.75 15,2.5 14.75,2.25 14.375,2.125 14,2 13.625,1.875 13.25,1.75 13,1.5 12.75,1.25 12.375,1.125 12,1 11.5,1 11,1 10.5,1 10,1 9.5,1 9,1 8.625,1.125 8.25,1.25 8,1.5 7.75,1.75 7.375,1.875 7,2 6.625,2.125 6.25,2.25 6,2.5 5.75,2.75 5.5,3 5.25,3.25 5,3.5 4.75,3.75 4.5,4 4.25,4.25 4,4.5 3.75,4.75 3.5,5 3.25,5.25 3,5.5 2.75,5.75 2.5,6 2.25,6.25 2.125,6.625 2,7 1.875,7.375 1.75,7.75 1.375,7.875 L 1,8 1.28125,7.90625 1.5625,7.8125 1.375,7.875 Q 1.1875,7.9375 1.09375,8.09375 L 1,8.25 1.046875,8.171875 1.09375,8.09375 1.046875,7.546875 Q 1,7 1,6.5 1,6 1.375,5.875 1.75,5.75 1.875,5.375 2,5 2.375,4.875 2.75,4.75 2.875,4.375 3,4 3.375,3.875 3.75,3.75 3.875,3.375 4,3 4.375,2.875 4.75,2.75 4.875,2.375 5,2 5.375,1.875 5.75,1.75 5.875,1.375 6,1 6.5,1 7,1 7.375,0.875 7.75,0.75 7.875,0.375"
         id="path2494"
         inkscape:connector-curvature="0" />
      <path
         style="fill:#000000;fill-opacity:0"
         d="M 13.125,0.375 13,0 H 13.5 14 14.5 15 15.5 16 16.5 17 17.5 18 18.5 19 19.5 20 20.5 21 21.5 22 22.5 23 23.5 24 V 0.5 1 1.5 2 2.5 3 3.5 4 4.5 5 5.5 6 6.5 7 7.5 8 8.5 9 9.5 10 10.5 11 H 23.5 Q 23,11 23,10.5 23,10 23,9.5 23,9 22.5,9 22,9 22,8.5 22,8 21.5,8 H 21 V 7.5 Q 21,7 20.5,7 H 20 V 6.5 Q 20,6 19.625,5.875 19.25,5.75 19.125,5.375 19,5 18.625,4.875 18.25,4.75 18.125,4.375 18,4 17.625,3.875 17.25,3.75 17.125,3.375 17,3 16.625,2.875 16.25,2.75 16.125,2.375 16,2 15.625,1.875 15.25,1.75 15.125,1.375 15,1 14.5,1 14,1 13.625,0.875 13.25,0.75 13.125,0.375"
         id="path2496"
         inkscape:connector-curvature="0" />
      <path
         style="fill:#cccc00;fill-opacity:1"
         d="M 8,1.5 Q 8.25,1.25 8.625,1.125 9,1 9.5,1 10,1 10.5,1 11,1 11.5,1 12,1 12.375,1.125 12.75,1.25 13,1.5 13.25,1.75 13.625,1.875 14,2 14.375,2.125 14.75,2.25 15,2.5 15.25,2.75 15.5,3 15.75,3.25 16,3.5 16.25,3.75 16.5,4 16.75,4.25 17,4.5 17.25,4.75 17.5,5 17.75,5.25 18,5.5 18.25,5.75 18.5,6 18.75,6.25 18.875,6.625 19,7 19.125,7.375 19.25,7.75 19.5,8 19.75,8.25 19.875,8.625 20,9 20,9.5 q 0,0.5 0,1 0,0.5 0,1 0,0.5 -0.125,0.875 Q 19.75,12.75 19.5,13 19.25,13.25 19.125,13.625 19,14 18.875,14.375 18.75,14.75 18.5,15 18.25,15.25 18,15.5 17.75,15.75 17.5,16 17.25,16.25 17,16.5 16.75,16.75 16.5,17 16.25,17.25 16,17.5 15.75,17.75 15.5,18 15.25,18.25 15,18.5 14.75,18.75 14.375,18.875 14,19 13.625,19.125 13.25,19.25 13.125,19.625 13,20 12.5,20 q -0.5,0 -1,0 -0.5,0 -1,0 -0.5,0 -1,0 Q 9,20 8.5,20 8,20 7.875,19.625 7.75,19.25 7.375,19.125 7,19 6.625,18.875 6.25,18.75 6,18.5 5.75,18.25 5.5,18 5.25,17.75 5,17.5 4.75,17.25 4.5,17 4.25,16.75 4,16.5 3.75,16.25 3.5,16 3.25,15.75 3,15.5 2.75,15.25 2.5,15 2.25,14.75 2.125,14.375 2,14 1.875,13.625 1.75,13.25 1.375,13.125 1,13 1,12.5 1,12 1,11.5 1,11 1,10.5 1,10 1,9.5 1,9 1,8.5 1,8 1.375,7.875 1.75,7.75 1.875,7.375 2,7 2.125,6.625 2.25,6.25 2.5,6 2.75,5.75 3,5.5 3.25,5.25 3.5,5 3.75,4.75 4,4.5 4.25,4.25 4.5,4 4.75,3.75 5,3.5 5.25,3.25 5.5,3 5.75,2.75 6,2.5 6.25,2.25 6.625,2.125 7,2 7.375,1.875 7.75,1.75 8,1.5 M 11.5,19 Q 12,19 12.375,18.875 12.75,18.75 13,18.5 13.25,18.25 13.625,18.125 14,18 14.375,17.875 14.75,17.75 15,17.5 15.25,17.25 15.5,17 15.75,16.75 16,16.5 16.25,16.25 16.5,16 16.75,15.75 17,15.5 17.25,15.25 17.5,15 17.75,14.75 17.875,14.375 18,14 18.125,13.625 18.25,13.25 18.5,13 18.75,12.75 18.875,12.375 19,12 19,11.5 19,11 19,10.5 19,10 19,9.5 19,9 18.875,8.625 18.75,8.25 18.5,8 18.25,7.75 18.125,7.375 18,7 17.875,6.625 17.75,6.25 17.5,6 17.25,5.75 17,5.5 16.75,5.25 16.5,5 16.25,4.75 16,4.5 15.75,4.25 15.5,4 15.25,3.75 15,3.5 14.75,3.25 14.375,3.125 14,3 13.625,2.875 13.25,2.75 13,2.5 12.75,2.25 12.375,2.125 12,2 11.5,2 11,2 10.5,2 10,2 9.5,2 9,2 8.625,2.125 8.25,2.25 8,2.5 7.75,2.75 7.375,2.875 7,3 6.625,3.125 6.25,3.25 6,3.5 5.75,3.75 5.5,4 5.25,4.25 5,4.5 4.75,4.75 4.5,5 4.25,5.25 4,5.5 3.75,5.75 3.5,6 3.25,6.25 3.125,6.625 3,7 2.875,7.375 2.75,7.75 2.5,8 2.25,8.25 2.125,8.625 2,9 2,9.5 2,10 2,10.5 2,11 2,11.5 2,12 2.125,12.375 2.25,12.75 2.5,13 2.75,13.25 2.875,13.625 3,14 3.125,14.375 3.25,14.75 3.5,15 3.75,15.25 4,15.5 4.25,15.75 4.5,16 4.75,16.25 5,16.5 5.25,16.75 5.5,17 5.75,17.25 6,17.5 6.25,17.75 6.625,17.875 7,18 7.375,18.125 7.75,18.25 8,18.5 8.25,18.75 8.625,18.875 9,19 9.5,19 q 0.5,0 1,0 0.5,0 1,0"
         id="path2498"
         inkscape:connector-curvature="0" />
      <path
         style="fill:#333333;fill-opacity:1"
         d="M 8,2.5 Q 8.25,2.25 8.625,2.125 9,2 9.5,2 10,2 10.5,2 11,2 11.5,2 12,2 12.375,2.125 12.75,2.25 13,2.5 13.25,2.75 13.625,2.875 14,3 14.375,3.125 14.75,3.25 15,3.5 15.25,3.75 15.5,4 15.75,4.25 16,4.5 16.25,4.75 16.5,5 16.75,5.25 17,5.5 17.25,5.75 17.5,6 17.75,6.25 17.875,6.625 18,7 18.125,7.375 18.25,7.75 18.5,8 18.75,8.25 18.875,8.625 19,9 19,9.5 q 0,0.5 0,1 0,0.5 0,1 0,0.5 -0.125,0.875 Q 18.75,12.75 18.5,13 18.25,13.25 18.125,13.625 18,14 17.875,14.375 17.75,14.75 17.5,15 17.25,15.25 17,15.5 16.75,15.75 16.5,16 16.25,16.25 16,16.5 15.75,16.75 15.5,17 15.25,17.25 15,17.5 14.75,17.75 14.375,17.875 14,18 13.625,18.125 13.25,18.25 13,18.5 12.75,18.75 12.375,18.875 12,19 11.5,19 11,19 10.5,19 10,19 9.5,19 9,19 8.625,18.875 8.25,18.75 8,18.5 7.75,18.25 7.375,18.125 7,18 6.625,17.875 6.25,17.75 6,17.5 5.75,17.25 5.5,17 5.25,16.75 5,16.5 4.75,16.25 4.5,16 4.25,15.75 4,15.5 3.75,15.25 3.5,15 3.25,14.75 3.125,14.375 3,14 2.875,13.625 2.75,13.25 2.5,13 2.25,12.75 2.125,12.375 2,12 2,11.5 2,11 2,10.5 2,10 2,9.5 2,9 2.125,8.625 2.25,8.25 2.5,8 2.75,7.75 2.875,7.375 3,7 3.125,6.625 3.25,6.25 3.5,6 3.75,5.75 4,5.5 4.25,5.25 4.5,5 4.75,4.75 5,4.5 5.25,4.25 5.5,4 5.75,3.75 6,3.5 6.25,3.25 6.625,3.125 7,3 7.375,2.875 7.75,2.75 8,2.5 M 11.5,18 Q 12,18 12.375,17.875 12.75,17.75 13,17.5 13.25,17.25 13.625,17.125 14,17 14.375,16.875 14.75,16.75 15,16.5 15.25,16.25 15.5,16 15.75,15.75 16,15.5 16.25,15.25 16.5,15 16.75,14.75 16.875,14.375 17,14 17.125,13.625 17.25,13.25 17.5,13 17.75,12.75 17.875,12.375 18,12 18,11.5 18,11 18,10.5 18,10 18,9.5 18,9 17.875,8.625 17.75,8.25 17.375,8.125 17,8 17,7.5 17,7 16.875,6.625 16.75,6.25 16.5,6 16.25,5.75 16,5.5 15.75,5.25 15.5,5 15.25,4.75 15,4.5 14.75,4.25 14.375,4.125 14,4 13.625,3.875 13.25,3.75 13,3.5 12.75,3.25 12.375,3.125 12,3 11.5,3 11,3 10.5,3 10,3 9.5,3 9,3 8.625,3.125 8.25,3.25 8,3.5 7.75,3.75 7.375,3.875 7,4 6.625,4.125 6.25,4.25 6,4.5 5.75,4.75 5.5,5 5.25,5.25 5,5.5 4.75,5.75 4.5,6 4.25,6.25 4.125,6.625 4,7 3.875,7.375 3.75,7.75 3.5,8 3.25,8.25 3.125,8.625 3,9 3,9.5 3,10 3,10.5 3,11 3,11.5 3,12 3.125,12.375 3.25,12.75 3.5,13 3.75,13.25 3.875,13.625 4,14 4.125,14.375 4.25,14.75 4.5,15 4.75,15.25 5,15.5 5.25,15.75 5.5,16 5.75,16.25 6,16.5 6.25,16.75 6.625,16.875 7,17 7.5,17 8,17 8.125,17.375 8.25,17.75 8.625,17.875 9,18 9.5,18 q 0.5,0 1,0 0.5,0 1,0"
         id="path2500"
         inkscape:connector-curvature="0" />
      <path
         style="fill:#cccc33;fill-opacity:1"
         d="M 8,3.5 Q 8.25,3.25 8.625,3.125 9,3 9.5,3 10,3 10.5,3 11,3 11.5,3 12,3 12.375,3.125 12.75,3.25 13,3.5 13.25,3.75 13.625,3.875 14,4 14.375,4.125 14.75,4.25 15,4.5 15.25,4.75 15.5,5 15.75,5.25 16,5.5 16.25,5.75 16.5,6 16.75,6.25 16.875,6.625 17,7 17,7.5 V 8 7.625 7.25 7.5 q 0,0.25 0.09375,0.40625 L 17.1875,8.0625 17.140625,7.984375 17.09375,7.90625 17.046875,8.453125 Q 17,9 17,9.5 q 0,0.5 0,1 0,0.5 0,1 0,0.5 -0.125,0.875 Q 16.75,12.75 16.5,13 16.25,13.25 16.125,13.625 16,14 15.875,14.375 15.75,14.75 15.5,15 15.25,15.25 15,15.5 14.75,15.75 14.375,15.875 14,16 13.625,16.125 13.25,16.25 13,16.5 12.75,16.75 12.375,16.875 12,17 11.5,17 11,17 10.5,17 10,17 9.5,17 9,17 8.453125,17.046875 L 7.90625,17.09375 7.984375,17.140625 8.0625,17.1875 7.90625,17.09375 Q 7.75,17 7.5,17 H 7.25 7.625 8 7.5 Q 7,17 6.625,16.875 6.25,16.75 6,16.5 5.75,16.25 5.5,16 5.25,15.75 5,15.5 4.75,15.25 4.5,15 4.25,14.75 4.125,14.375 4,14 3.875,13.625 3.75,13.25 3.5,13 3.25,12.75 3.125,12.375 3,12 3,11.5 3,11 3,10.5 3,10 3,9.5 3,9 3.125,8.625 3.25,8.25 3.5,8 3.75,7.75 3.875,7.375 4,7 4.125,6.625 4.25,6.25 4.5,6 4.75,5.75 5,5.5 5.25,5.25 5.5,5 5.75,4.75 6,4.5 6.25,4.25 6.625,4.125 7,4 7.375,3.875 7.75,3.75 8,3.5 M 8.5,11 Q 9,11 9.375,10.875 9.75,10.75 10,10.5 10.25,10.25 10.5,10 10.75,9.75 10.875,9.375 11,9 11,8.5 11,8 10.875,7.625 10.75,7.25 10.5,7 10.25,6.75 10,6.5 9.75,6.25 9.375,6.125 9,6 8.5,6 8,6 7.625,6.125 7.25,6.25 7,6.5 6.75,6.75 6.5,7 6.25,7.25 6.125,7.625 6,8 6,8.5 6,9 6.125,9.375 6.25,9.75 6.5,10 6.75,10.25 7,10.5 7.25,10.75 7.625,10.875 8,11 8.5,11 m 4.5,1.5 q 0.25,0.25 0.5,0.25 0.25,0 0.5,-0.25 0.25,-0.25 0.5,-0.5 0.25,-0.25 0.25,-0.5 0,-0.25 -0.25,-0.5 -0.25,-0.25 -0.5,-0.5 -0.25,-0.25 -0.5,-0.25 -0.25,0 -0.5,0.25 -0.25,0.25 -0.5,0.5 -0.25,0.25 -0.25,0.5 0,0.25 0.25,0.5 0.25,0.25 0.5,0.5"
         id="path2502"
         inkscape:connector-curvature="0" />
      <path
         style="fill:#ffff99;fill-opacity:1"
         d="M 7,6.5 Q 7.25,6.25 7.625,6.125 8,6 8.5,6 9,6 9.375,6.125 9.75,6.25 10,6.5 10.25,6.75 10.5,7 10.75,7.25 10.875,7.625 11,8 11,8.5 11,9 10.875,9.375 10.75,9.75 10.5,10 10.25,10.25 10,10.5 9.75,10.75 9.375,10.875 9,11 8.5,11 8,11 7.625,10.875 7.25,10.75 7,10.5 6.75,10.25 6.5,10 6.25,9.75 6.125,9.375 6,9 6,8.5 6,8 6.125,7.625 6.25,7.25 6.5,7 6.75,6.75 7,6.5 M 7.625,8.875 Q 8,9 8.375,8.875 8.75,8.75 8.875,8.375 9,8 8.875,7.625 8.75,7.25 8.375,7.125 8,7 7.625,7.125 7.25,7.25 7.125,7.625 7,8 7.125,8.375 q 0.125,0.375 0.5,0.5"
         id="path2504"
         inkscape:connector-curvature="0" />
      <path
         style="fill:#ffffff;fill-opacity:1"
         d="M 7.125,7.625 Q 7.25,7.25 7.625,7.125 8,7 8.375,7.125 8.75,7.25 8.875,7.625 9,8 8.875,8.375 8.75,8.75 8.375,8.875 8,9 7.625,8.875 7.25,8.75 7.125,8.375 7,8 7.125,7.625"
         id="path2506"
         inkscape:connector-curvature="0" />
      <path
         style="fill:#000000;fill-opacity:0.58823529"
         d="M 20.125,7.375 20,7 h 0.5 Q 21,7 21,7.5 V 8 L 20.625,7.875 q -0.375,-0.125 -0.5,-0.5"
         id="path2508"
         inkscape:connector-curvature="0" />
      <path
         style="fill:#333333;fill-opacity:1"
         d="M 0,8.5 V 8 L 0.546875,8.046875 1.09375,8.09375 1.140625,8.015625 1.1875,7.9375 1.09375,8.09375 Q 1,8.25 1,8.5 V 8.75 8.375 8 8.5 q 0,0.5 0,1 0,0.5 0,1 0,0.5 0,1 0,0.5 0,1 V 13 12.625 12.25 12.5 q 0,0.25 0.09375,0.40625 L 1.1875,13.0625 1.140625,12.984375 1.09375,12.90625 0.546875,12.953125 0,13 V 12.5 12 11.5 11 10.5 10 9.5 9 8.5"
         id="path2510"
         inkscape:connector-curvature="0" />
      <path
         style="fill:#ffff99;fill-opacity:1"
         d="M 17.046875,8.453125 17.09375,7.90625 17.046875,7.828125 17,7.75 17.09375,7.90625 Q 17.1875,8.0625 17.375,8.125 L 17.5625,8.1875 17.28125,8.09375 17,8 17.375,8.125 q 0.375,0.125 0.5,0.5 Q 18,9 18,9.5 q 0,0.5 0,1 0,0.5 0,1 0,0.5 -0.125,0.875 Q 17.75,12.75 17.5,13 17.25,13.25 17.125,13.625 17,14 16.875,14.375 16.75,14.75 16.5,15 16.25,15.25 16,15.5 15.75,15.75 15.5,16 15.25,16.25 15,16.5 14.75,16.75 14.375,16.875 14,17 13.625,17.125 13.25,17.25 13,17.5 12.75,17.75 12.375,17.875 12,18 11.5,18 11,18 10.5,18 10,18 9.5,18 9,18 8.625,17.875 8.25,17.75 8.125,17.375 L 8,17 8.09375,17.28125 8.1875,17.5625 8.125,17.375 Q 8.0625,17.1875 7.90625,17.09375 L 7.75,17 7.828125,17.04687 7.90625,17.09374 8.453125,17.04687 Q 9,17 9.5,17 q 0.5,0 1,0 0.5,0 1,0 0.5,0 0.875,-0.125 Q 12.75,16.75 13,16.5 13.25,16.25 13.625,16.125 14,16 14.375,15.875 14.75,15.75 15,15.5 15.25,15.25 15.5,15 15.75,14.75 15.875,14.375 16,14 16.125,13.625 16.25,13.25 16.5,13 16.75,12.75 16.875,12.375 17,12 17,11.5 17,11 17,10.5 17,10 17,9.5 17,9 17.04687,8.453125"
         id="path2512"
         inkscape:connector-curvature="0" />
      <path
         style="fill:#000000;fill-opacity:0.58823529"
         d="M 21,8.5 V 8 h 0.5 Q 22,8 22,8.5 22,9 22.5,9 23,9 23,9.5 q 0,0.5 0,1 0,0.5 0.5,0.5 H 24 V 11.5 12 12.5 13 13.5 14 14.5 15 15.5 16 H 23.5 Q 23,16 23,16.5 23,17 23,17.5 23,18 22.5,18 22,18 22,18.5 22,19 21.5,19 21,19 21,19.5 21,20 20.5,20 20,20 20,20.5 20,21 19.5,21 19,21 19,21.5 19,22 18.5,22 18,22 18,22.5 18,23 17.5,23 17,23 16.5,23 16,23 16,23.5 V 24 H 15.5 15 14.5 14 13.5 13 12.5 12 11.5 11 V 23.5 Q 11,23 10.5,23 10,23 9.5,23 9,23 9,22.5 9,22 8.5,22 8,22 7.875,21.625 7.75,21.25 7.375,21.125 7,21 7,20.5 V 20 L 7.546875,19.95313 8.09375,19.90626 8.171875,20.328135 Q 8.25,20.75 8.625,20.875 9,21 9.5,21 q 0.5,0 1,0 0.5,0 1,0 0.5,0 0.875,-0.125 0.375,-0.125 0.453125,-0.546875 l 0.07813,-0.421875 0.546875,0.04687 Q 14,20 14.5,20 q 0.5,0 0.625,-0.375 0.125,-0.375 0.5,-0.5 0.375,-0.125 0.5,-0.5 0.125,-0.375 0.5,-0.5 0.375,-0.125 0.5,-0.5 0.125,-0.375 0.5,-0.5 0.375,-0.125 0.5,-0.5 0.125,-0.375 0.5,-0.5 0.375,-0.125 0.5,-0.5 0.125,-0.375 0.5,-0.5 Q 20,15 20,14.5 20,14 20.125,13.625 20.25,13.25 20.625,13.125 21,13 21,12.5 q 0,-0.5 0,-1 0,-0.5 0,-1 0,-0.5 0,-1 0,-0.5 0,-1"
         id="path2514"
         inkscape:connector-curvature="0" />
      <path
         style="fill:#ffff99;fill-opacity:1"
         d="m 13,10.5 q 0.25,-0.25 0.5,-0.25 0.25,0 0.5,0.25 0.25,0.25 0.5,0.5 0.25,0.25 0.25,0.5 0,0.25 -0.25,0.5 -0.25,0.25 -0.5,0.5 -0.25,0.25 -0.5,0.25 -0.25,0 -0.5,-0.25 -0.25,-0.25 -0.5,-0.5 -0.25,-0.25 -0.25,-0.5 0,-0.25 0.25,-0.5 0.25,-0.25 0.5,-0.5"
         id="path2516"
         inkscape:connector-curvature="0" />
      <path
         style="fill:#000000;fill-opacity:0"
         d="M 0,13.5 V 13 L 0.546875,12.953125 1.09375,12.90625 1.046875,13.453125 Q 1,14 1,14.5 q 0,0.5 0.375,0.625 0.375,0.125 0.5,0.5 0.125,0.375 0.5,0.5 0.375,0.125 0.5,0.5 0.125,0.375 0.5,0.5 0.375,0.125 0.5,0.5 0.125,0.375 0.5,0.5 0.375,0.125 0.5,0.5 0.125,0.375 0.5,0.5 0.375,0.125 0.5,0.5 Q 6,20 6.5,20 H 7 v 0.5 q 0,0.5 0.375,0.625 0.375,0.125 0.5,0.5 Q 8,22 8.5,22 9,22 9,22.5 9,23 9.5,23 q 0.5,0 1,0 0.5,0 0.5,0.5 V 24 H 10.5 10 9.5 9 8.5 8 7.5 7 6.5 6 5.5 5 4.5 4 3.5 3 2.5 2 1.5 1 0.5 0 V 23.5 23 22.5 22 21.5 21 20.5 20 19.5 19 18.5 18 17.5 17 16.5 16 15.5 15 14.5 14 13.5"
         id="path2518"
         inkscape:connector-curvature="0" />
      <path
         style="fill:#000000;fill-opacity:1"
         d="M 1.046875,13.453125 1.09375,12.90625 1.046875,12.828125 1,12.75 1.09375,12.90625 Q 1.1875,13.0625 1.375,13.125 L 1.5625,13.1875 1.28125,13.09375 1,13 1.375,13.125 q 0.375,0.125 0.5,0.5 Q 2,14 2.125,14.375 2.25,14.75 2.5,15 2.75,15.25 3,15.5 3.25,15.75 3.5,16 3.75,16.25 4,16.5 4.25,16.75 4.5,17 4.75,17.25 5,17.5 5.25,17.75 5.5,18 5.75,18.25 6,18.5 6.25,18.75 6.625,18.875 7,19 7.375,19.125 q 0.375,0.125 0.5,0.5 L 8,20 7.90625,19.71875 7.8125,19.4375 7.875,19.625 q 0.0625,0.1875 0.21875,0.28125 L 8.25,20 8.171875,19.953125 8.09375,19.90625 7.546875,19.953125 7,20 H 6.5 Q 6,20 5.875,19.625 5.75,19.25 5.375,19.125 5,19 4.875,18.625 4.75,18.25 4.375,18.125 4,18 3.875,17.625 3.75,17.25 3.375,17.125 3,17 2.875,16.625 2.75,16.25 2.375,16.125 2,16 1.875,15.625 1.75,15.25 1.375,15.125 1,15 1,14.5 1,14 1.046875,13.453125"
         id="path2520"
         inkscape:connector-curvature="0" />
      <path
         style="fill:#000000;fill-opacity:0"
         d="M 23,16.5 Q 23,16 23.5,16 H 24 V 16.5 17 17.5 18 18.5 19 19.5 20 20.5 21 21.5 22 22.5 23 23.5 24 H 23.5 23 22.5 22 21.5 21 20.5 20 19.5 19 18.5 18 17.5 17 16.5 16 V 23.5 Q 16,23 16.5,23 17,23 17.5,23 18,23 18,22.5 18,22 18.5,22 19,22 19,21.5 19,21 19.5,21 20,21 20,20.5 20,20 20.5,20 21,20 21,19.5 21,19 21.5,19 22,19 22,18.5 22,18 22.5,18 23,18 23,17.5 q 0,-0.5 0,-1"
         id="path2522"
         inkscape:connector-curvature="0" />
      <path
         style="fill:#333333;fill-opacity:1"
         d="M 8.171875,20.328125 8.09375,19.90625 8.015625,19.859375 7.9375,19.8125 8.09375,19.90625 Q 8.25,20 8.5,20 H 8.75 8.375 8 8.5 q 0.5,0 1,0 0.5,0 1,0 0.5,0 1,0 0.5,0 1,0 H 13 12.625 12.25 12.5 q 0.25,0 0.40625,-0.09375 l 0.15625,-0.09375 -0.07813,0.04687 -0.07813,0.04687 -0.07813,0.421875 Q 12.75,20.75 12.375,20.875 12,21 11.5,21 11,21 10.5,21 10,21 9.5,21 9,21 8.625,20.875 8.25,20.75 8.171875,20.328125"
         id="path2524"
         inkscape:connector-curvature="0" />
    </g>
  </g>
</svg>
