<?xml version="1.0" encoding="UTF-8" standalone="no"?>
<!-- Created with Inkscape (http://www.inkscape.org/) -->

<svg
   xmlns:dc="http://purl.org/dc/elements/1.1/"
   xmlns:cc="http://creativecommons.org/ns#"
   xmlns:rdf="http://www.w3.org/1999/02/22-rdf-syntax-ns#"
   xmlns:svg="http://www.w3.org/2000/svg"
   xmlns="http://www.w3.org/2000/svg"
   xmlns:sodipodi="http://sodipodi.sourceforge.net/DTD/sodipodi-0.dtd"
   xmlns:inkscape="http://www.inkscape.org/namespaces/inkscape"
   width="100mm"
   height="100mm"
   viewBox="0 0 100 100"
   version="1.1"
   id="svg8"
   inkscape:version="0.92.3 (2405546, 2018-03-11)"
   sodipodi:docname="item_files.svg">
  <defs
     id="defs2" />
  <sodipodi:namedview
     id="base"
     pagecolor="#ffffff"
     bordercolor="#666666"
     borderopacity="1.0"
     inkscape:pageopacity="0.0"
     inkscape:pageshadow="2"
     inkscape:zoom="1"
     inkscape:cx="218.90578"
     inkscape:cy="263.86901"
     inkscape:document-units="mm"
     inkscape:current-layer="layer1"
     showgrid="false"
     fit-margin-left="-0.1"
     inkscape:window-width="958"
     inkscape:window-height="991"
     inkscape:window-x="2392"
     inkscape:window-y="0"
     inkscape:window-maximized="0" />
  <metadata
     id="metadata5">
    <rdf:RDF>
      <cc:Work
         rdf:about="">
        <dc:format>image/svg+xml</dc:format>
        <dc:type
           rdf:resource="http://purl.org/dc/dcmitype/StillImage" />
        <dc:title></dc:title>
      </cc:Work>
    </rdf:RDF>
  </metadata>
  <g
     inkscape:label="Layer 1"
     inkscape:groupmode="layer"
     id="layer1"
     transform="translate(0,-197)">
    <g
       transform="matrix(4,0,0,4,8,197)"
       id="g2416">
      <path
         style="fill:#fffbf0;fill-opacity:1"
         d="M 0,0.5 V 0 H 0.5 1 1.5 2 2.5 3 3.5 4 4.5 5 5.5 6 6.5 7 7.5 8 8.5 9 9.5 10 10.5 11 11.5 12 12.5 13 13.5 14 v 0.5 q 0,0.5 0,1 0,0.5 0,1 0,0.5 0,1 0,0.5 0,1 0,0.5 0,1 0,0.5 0,1 0,0.5 0,1 0,0.5 0,1 0,0.5 0,1 0,0.5 0,1 0,0.5 0,1 0,0.5 0,1 0,0.5 0,1 0,0.5 0,1 0,0.5 0,1 0,0.5 0,1 0,0.5 -0.125,0.875 -0.125,0.375 -0.5,0.5 Q 13,18 12.5,18 q -0.5,0 -1,0 -0.5,0 -1,0 -0.5,0 -1,0 -0.5,0 -1,0 -0.5,0 -1,0 -0.5,0 -1,0 -0.5,0 -1,0 -0.5,0 -1,0 -0.5,0 -1,0 -0.5,0 -1,0 -0.5,0 -1,0 -0.5,0 -1,0 H 0 V 17.5 17 16.5 16 15.5 15 14.5 14 13.5 13 12.5 12 11.5 11 10.5 10 9.5 9 8.5 8 7.5 7 6.5 6 5.5 5 4.5 4 3.5 3 2.5 2 1.5 1 0.5 M 1.125,7.375 Q 1.25,7.75 1.5,7.75 1.75,7.75 1.875,7.375 2,7 2,6.5 2,6 1.875,5.625 1.75,5.25 1.5,5.25 1.25,5.25 1.125,5.625 1,6 1,6.5 1,7 1.125,7.375 m 0.5,-3.5 Q 2,4 2.375,3.875 2.75,3.75 2.875,3.375 3,3 3,2.5 3,2 2.875,1.625 2.75,1.25 2.375,1.125 2,1 1.625,1.125 1.25,1.25 1.125,1.625 1,2 1,2.5 1,3 1.125,3.375 q 0.125,0.375 0.5,0.5 m -0.5,7.5 Q 1.25,11.75 1.5,11.75 1.75,11.75 1.875,11.375 2,11 2,10.5 2,10 1.875,9.625 1.75,9.25 1.5,9.25 1.25,9.25 1.125,9.625 1,10 1,10.5 1,11 1.125,11.375 m 0.5,4.5 Q 2,16 2.375,15.875 2.75,15.75 2.875,15.375 3,15 3,14.5 3,14 2.875,13.625 2.75,13.25 2.375,13.125 2,13 1.625,13.125 1.25,13.25 1.125,13.625 1,14 1,14.5 q 0,0.5 0.125,0.875 0.125,0.375 0.5,0.5 m 1.5,-4.5 Q 3.25,11.75 3.5,11.75 3.75,11.75 3.875,11.375 4,11 4,10.5 4,10 3.875,9.625 3.75,9.25 3.5,9.25 3.25,9.25 3.125,9.625 3,10 3,10.5 3,11 3.125,11.375 m 0.5,-3.5 Q 4,8 4.375,7.875 4.75,7.75 4.875,7.375 5,7 5,6.5 5,6 4.875,5.625 4.75,5.25 4.375,5.125 4,5 3.625,5.125 3.25,5.25 3.125,5.625 3,6 3,6.5 3,7 3.125,7.375 q 0.125,0.375 0.5,0.5 m 2.5,-4.5 Q 6.25,3.75 6.5,3.75 6.75,3.75 6.875,3.375 7,3 7,2.5 7,2 6.875,1.625 6.75,1.25 6.5,1.25 6.25,1.25 6.125,1.625 6,2 6,2.5 6,3 6.125,3.375 m -2,0 Q 4.25,3.75 4.5,3.75 4.75,3.75 4.875,3.375 5,3 5,2.5 5,2 4.875,1.625 4.75,1.25 4.5,1.25 4.25,1.25 4.125,1.625 4,2 4,2.5 4,3 4.125,3.375 m 0,12 Q 4.25,15.75 4.5,15.75 4.75,15.75 4.875,15.375 5,15 5,14.5 5,14 4.875,13.625 4.75,13.25 4.5,13.25 4.25,13.25 4.125,13.625 4,14 4,14.5 4,15 4.125,15.375 m 1,-4 Q 5.25,11.75 5.5,11.75 5.75,11.75 5.875,11.375 6,11 6,10.5 6,10 5.875,9.625 5.75,9.25 5.5,9.25 5.25,9.25 5.125,9.625 5,10 5,10.5 5,11 5.125,11.375 m 1,-4 Q 6.25,7.75 6.5,7.75 6.75,7.75 6.875,7.375 7,7 7,6.5 7,6 6.875,5.625 6.75,5.25 6.5,5.25 6.25,5.25 6.125,5.625 6,6 6,6.5 6,7 6.125,7.375 m 0,8 Q 6.25,15.75 6.5,15.75 6.75,15.75 6.875,15.375 7,15 7,14.5 7,14 6.875,13.625 6.75,13.25 6.5,13.25 6.25,13.25 6.125,13.625 6,14 6,14.5 6,15 6.125,15.375 m 1.5,-3.5 Q 8,12 8.375,11.875 8.75,11.75 8.875,11.375 9,11 9,10.5 9,10 8.875,9.625 8.75,9.25 8.375,9.125 8,9 7.625,9.125 7.25,9.25 7.125,9.625 7,10 7,10.5 q 0,0.5 0.125,0.875 0.125,0.375 0.5,0.5 m 1,-4 Q 9,8 9.375,7.875 9.75,7.75 9.875,7.375 10,7 10,6.5 10,6 9.875,5.625 9.75,5.25 9.375,5.125 9,5 8.625,5.125 8.25,5.25 8.125,5.625 8,6 8,6.5 8,7 8.125,7.375 q 0.125,0.375 0.5,0.5 m 0,-4 Q 9,4 9.375,3.875 9.75,3.75 9.875,3.375 10,3 10,2.5 10,2 9.875,1.625 9.75,1.25 9.375,1.125 9,1 8.625,1.125 8.25,1.25 8.125,1.625 8,2 8,2.5 8,3 8.125,3.375 q 0.125,0.375 0.5,0.5 m 0,12 Q 9,16 9.375,15.875 9.75,15.75 9.875,15.375 10,15 10,14.5 10,14 9.875,13.625 9.75,13.25 9.375,13.125 9,13 8.625,13.125 8.25,13.25 8.125,13.625 8,14 8,14.5 q 0,0.5 0.125,0.875 0.125,0.375 0.5,0.5 m 1.5,-4.5 q 0.125,0.375 0.375,0.375 0.25,0 0.375,-0.375 Q 11,11 11,10.5 11,10 10.875,9.625 10.75,9.25 10.5,9.25 10.25,9.25 10.125,9.625 10,10 10,10.5 q 0,0.5 0.125,0.875 m 1,-4 Q 11.25,7.75 11.5,7.75 11.75,7.75 11.875,7.375 12,7 12,6.5 12,6 11.875,5.625 11.75,5.25 11.5,5.25 11.25,5.25 11.125,5.625 11,6 11,6.5 11,7 11.125,7.375 m 0.5,-3.5 Q 12,4 12.375,3.875 12.75,3.75 12.875,3.375 13,3 13,2.5 13,2 12.875,1.625 12.75,1.25 12.375,1.125 12,1 11.625,1.125 11.25,1.25 11.125,1.625 11,2 11,2.5 q 0,0.5 0.125,0.875 0.125,0.375 0.5,0.5 m 0,12 q 0.375,0.125 0.75,0 0.375,-0.125 0.5,-0.5 Q 13,15 13,14.5 13,14 12.875,13.625 12.75,13.25 12.375,13.125 12,13 11.625,13.125 11.25,13.25 11.125,13.625 11,14 11,14.5 q 0,0.5 0.125,0.875 0.125,0.375 0.5,0.5 m 0.5,-4.5 q 0.125,0.375 0.375,0.375 0.25,0 0.375,-0.375 Q 13,11 13,10.5 13,10 12.875,9.625 12.75,9.25 12.5,9.25 12.25,9.25 12.125,9.625 12,10 12,10.5 q 0,0.5 0.125,0.875"
         id="path2358"
         inkscape:connector-curvature="0" />
      <path
         style="fill:#000000;fill-opacity:0"
         d="M 14,0.5 V 0 H 14.5 15 15.5 16 16.5 17 17.5 18 18.5 19 19.5 20 20.5 21 V 0.5 1 1.5 2 2.5 3 3.5 4 4.5 5 H 20.5 Q 20,5 19.5,5 19,5 18.4375,5.0625 L 17.875,5.125 17.9375,5.1875 18,5.25 17.875,5.125 Q 17.75,5 17.5,5 H 17.25 17.625 18 17.5 17 V 4.5 Q 17,4 16.875,3.625 16.75,3.25 16.375,3.125 16,3 15.5,3 H 15 V 2.5 Q 15,2 14.875,1.625 14.75,1.25 14.375,1.125 L 14,1 V 0.5 m 0,0.125 V 1 1.125 1.25 1 Q 14,0.75 14,0.5 V 0.25 0.625 m 1,2 V 3 3.125 3.25 3 Q 15,2.75 15,2.5 V 2.25 2.625 m 2,2 V 5 5.125 5.25 5 Q 17,4.75 17,4.5 V 4.25 4.625"
         id="path2360"
         inkscape:connector-curvature="0" />
      <path
         style="fill:#999999;fill-opacity:1"
         d="M 1.125,1.625 Q 1.25,1.25 1.625,1.125 2,1 2.375,1.125 2.75,1.25 2.875,1.625 3,2 3,2.5 3,3 2.875,3.375 2.75,3.75 2.375,3.875 2,4 1.625,3.875 1.25,3.75 1.125,3.375 1,3 1,2.5 1,2 1.125,1.625"
         id="path2362"
         inkscape:connector-curvature="0" />
      <path
         style="fill:#c0c0c0;fill-opacity:1"
         d="M 4.125,1.625 Q 4.25,1.25 4.5,1.25 4.75,1.25 4.875,1.625 5,2 5,2.5 5,3 4.875,3.375 4.75,3.75 4.5,3.75 4.25,3.75 4.125,3.375 4,3 4,2.5 4,2 4.125,1.625"
         id="path2364"
         inkscape:connector-curvature="0" />
      <path
         style="fill:#c0c0c0;fill-opacity:1"
         d="M 6.125,1.625 Q 6.25,1.25 6.5,1.25 6.75,1.25 6.875,1.625 7,2 7,2.5 7,3 6.875,3.375 6.75,3.75 6.5,3.75 6.25,3.75 6.125,3.375 6,3 6,2.5 6,2 6.125,1.625"
         id="path2366"
         inkscape:connector-curvature="0" />
      <path
         style="fill:#999999;fill-opacity:1"
         d="M 8.125,1.625 Q 8.25,1.25 8.625,1.125 9,1 9.375,1.125 9.75,1.25 9.875,1.625 10,2 10,2.5 10,3 9.875,3.375 9.75,3.75 9.375,3.875 9,4 8.625,3.875 8.25,3.75 8.125,3.375 8,3 8,2.5 8,2 8.125,1.625"
         id="path2368"
         inkscape:connector-curvature="0" />
      <path
         style="fill:#999999;fill-opacity:1"
         d="m 11.125,1.625 q 0.125,-0.375 0.5,-0.5 0.375,-0.125 0.75,0 0.375,0.125 0.5,0.5 Q 13,2 13,2.5 13,3 12.875,3.375 12.75,3.75 12.375,3.875 12,4 11.625,3.875 11.25,3.75 11.125,3.375 11,3 11,2.5 11,2 11.125,1.625"
         id="path2370"
         inkscape:connector-curvature="0" />
      <path
         style="fill:#808080;fill-opacity:1"
         d="M 14,1.5 V 1 l 0.375,0.125 q 0.375,0.125 0.5,0.5 Q 15,2 15,2.5 q 0,0.5 0,1 0,0.5 0,1 0,0.5 0,1 0,0.5 0,1 0,0.5 0,1 0,0.5 0,1 0,0.5 0,1 0,0.5 0,1 0,0.5 0,1 0,0.5 0,1 0,0.5 0,1 0,0.5 0,1 0,0.5 0,1 0,0.5 0,1 0,0.5 0,1 0,0.5 -0.125,0.875 -0.125,0.375 -0.5,0.5 Q 14,19 13.5,19 q -0.5,0 -1,0 -0.5,0 -1,0 -0.5,0 -1,0 -0.5,0 -1,0 Q 9,19 8.5,19 8,19 7.5,19 7,19 6.5,19 6,19 5.5,19 5,19 4.5,19 4,19 3.5,19 3,19 2.515625,18.984375 L 2.03125,18.96875 2.046875,19.078125 2.0625,19.1875 2.03125,18.96875 Q 2,18.75 2,18.5 V 18.25 18.625 19 18.5 18 h 0.5 q 0.5,0 1,0 0.5,0 1,0 0.5,0 1,0 0.5,0 1,0 0.5,0 1,0 0.5,0 1,0 0.5,0 1,0 0.5,0 1,0 0.5,0 1,0 0.5,0 1,0 0.5,0 0.875,-0.125 0.375,-0.125 0.5,-0.5 Q 14,17 14,16.5 q 0,-0.5 0,-1 0,-0.5 0,-1 0,-0.5 0,-1 0,-0.5 0,-1 0,-0.5 0,-1 0,-0.5 0,-1 0,-0.5 0,-1 0,-0.5 0,-1 0,-0.5 0,-1 0,-0.5 0,-1 0,-0.5 0,-1 0,-0.5 0,-1 0,-0.5 0,-1 0,-0.5 0,-1 0,-0.5 0,-1 M 2.375,18 H 2 1.875 1.75 2 q 0.25,0 0.5,0 H 2.75 2.375 M 14,0.875 V 1 1.375 1.75 1.5 Q 14,1.25 14,1 V 0.75 0.875"
         id="path2372"
         inkscape:connector-curvature="0" />
      <path
         style="fill:#fffbf0;fill-opacity:1"
         d="M 15,3.5 V 3 H 15.5 16 15.625 15.25 15.5 q 0.25,0 0.46875,0.03125 L 16.1875,3.0625 16.078125,3.046875 15.96875,3.03125 15.984375,3.515625 Q 16,4 16,4.5 q 0,0.5 0,1 0,0.5 0,1 0,0.5 0,1 0,0.5 0,1 0,0.5 0,1 0,0.5 0,1 0,0.5 0,1 0,0.5 0,1 0,0.5 0,1 0,0.5 0,1 0,0.5 0,1 0,0.5 0,1 0,0.5 0,1 0,0.5 0,1 0,0.5 -0.125,0.875 -0.125,0.375 -0.5,0.5 Q 15,20 14.5,20 q -0.5,0 -1,0 -0.5,0 -1,0 -0.5,0 -1,0 -0.5,0 -1,0 -0.5,0 -1,0 Q 9,20 8.5,20 8,20 7.5,20 7,20 6.5,20 6,20 5.5,20 5,20 4.5,20 4,20 3.5,20 3,20 2.625,19.875 2.25,19.75 2.125,19.375 L 2,19 2.09375,19.28125 2.1875,19.5625 2.125,19.375 Q 2.0625,19.1875 2.03125,18.96875 L 2,18.75 2.015625,18.859375 2.03125,18.96875 2.515625,18.984375 Q 3,19 3.5,19 q 0.5,0 1,0 0.5,0 1,0 0.5,0 1,0 0.5,0 1,0 0.5,0 1,0 0.5,0 1,0 0.5,0 1,0 0.5,0 1,0 0.5,0 1,0 0.5,0 1,0 0.5,0 0.875,-0.125 0.375,-0.125 0.5,-0.5 Q 15,18 15,17.5 q 0,-0.5 0,-1 0,-0.5 0,-1 0,-0.5 0,-1 0,-0.5 0,-1 0,-0.5 0,-1 0,-0.5 0,-1 0,-0.5 0,-1 0,-0.5 0,-1 0,-0.5 0,-1 0,-0.5 0,-1 0,-0.5 0,-1 0,-0.5 0,-1 0,-0.5 0,-1 0,-0.5 0,-1 M 15,2.875 V 3 3.375 3.75 3.5 Q 15,3.25 15,3 V 2.75 2.875"
         id="path2374"
         inkscape:connector-curvature="0" />
      <path
         style="fill:#808080;fill-opacity:1"
         d="M 15.984375,3.515625 15.96875,3.03125 15.859375,3.015625 15.75,3 15.96875,3.03125 Q 16.1875,3.0625 16.375,3.125 L 16.5625,3.1875 16.28125,3.09375 16,3 16.375,3.125 q 0.375,0.125 0.5,0.5 Q 17,4 17,4.5 q 0,0.5 0,1 0,0.5 0,1 0,0.5 0,1 0,0.5 0,1 0,0.5 0,1 0,0.5 0,1 0,0.5 0,1 0,0.5 0,1 0,0.5 0,1 0,0.5 0,1 0,0.5 0,1 0,0.5 0,1 0,0.5 0,1 0,0.5 0,1 0,0.5 0,1 0,0.5 -0.125,0.875 -0.125,0.375 -0.5,0.5 Q 16,21 15.5,21 q -0.5,0 -1,0 -0.5,0 -1,0 -0.5,0 -1,0 -0.5,0 -1,0 -0.5,0 -1,0 -0.5,0 -1,0 Q 9,21 8.5,21 8,21 7.5,21 7,21 6.5,21 6,21 5.5,21 5,21 4.5,21 4,21 3.625,20.875 3.25,20.75 3.140625,20.359375 L 3.03125,19.96875 2.921875,19.953125 2.8125,19.9375 3.03125,19.96875 Q 3.25,20 3.5,20 H 3.75 3.375 3 3.5 q 0.5,0 1,0 0.5,0 1,0 0.5,0 1,0 0.5,0 1,0 0.5,0 1,0 0.5,0 1,0 0.5,0 1,0 0.5,0 1,0 0.5,0 1,0 0.5,0 1,0 0.5,0 1,0 0.5,0 0.875,-0.125 0.375,-0.125 0.5,-0.5 Q 16,19 16,18.5 q 0,-0.5 0,-1 0,-0.5 0,-1 0,-0.5 0,-1 0,-0.5 0,-1 0,-0.5 0,-1 0,-0.5 0,-1 0,-0.5 0,-1 0,-0.5 0,-1 0,-0.5 0,-1 Q 16,9 16,8.5 16,8 16,7.5 16,7 16,6.5 16,6 16,5.5 16,5 16,4.5 16,4 15.98437,3.515625"
         id="path2376"
         inkscape:connector-curvature="0" />
      <path
         style="fill:#c0c0c0;fill-opacity:1"
         d="M 1.125,5.625 Q 1.25,5.25 1.5,5.25 1.75,5.25 1.875,5.625 2,6 2,6.5 2,7 1.875,7.375 1.75,7.75 1.5,7.75 1.25,7.75 1.125,7.375 1,7 1,6.5 1,6 1.125,5.625"
         id="path2378"
         inkscape:connector-curvature="0" />
      <path
         style="fill:#999999;fill-opacity:1"
         d="M 3.125,5.625 Q 3.25,5.25 3.625,5.125 4,5 4.375,5.125 4.75,5.25 4.875,5.625 5,6 5,6.5 5,7 4.875,7.375 4.75,7.75 4.375,7.875 4,8 3.625,7.875 3.25,7.75 3.125,7.375 3,7 3,6.5 3,6 3.125,5.625"
         id="path2380"
         inkscape:connector-curvature="0" />
      <path
         style="fill:#c0c0c0;fill-opacity:1"
         d="M 6.125,5.625 Q 6.25,5.25 6.5,5.25 6.75,5.25 6.875,5.625 7,6 7,6.5 7,7 6.875,7.375 6.75,7.75 6.5,7.75 6.25,7.75 6.125,7.375 6,7 6,6.5 6,6 6.125,5.625"
         id="path2382"
         inkscape:connector-curvature="0" />
      <path
         style="fill:#999999;fill-opacity:1"
         d="M 8.125,5.625 Q 8.25,5.25 8.625,5.125 9,5 9.375,5.125 9.75,5.25 9.875,5.625 10,6 10,6.5 10,7 9.875,7.375 9.75,7.75 9.375,7.875 9,8 8.625,7.875 8.25,7.75 8.125,7.375 8,7 8,6.5 8,6 8.125,5.625"
         id="path2384"
         inkscape:connector-curvature="0" />
      <path
         style="fill:#c0c0c0;fill-opacity:1"
         d="M 11.125,5.625 Q 11.25,5.25 11.5,5.25 q 0.25,0 0.375,0.375 Q 12,6 12,6.5 12,7 11.875,7.375 11.75,7.75 11.5,7.75 11.25,7.75 11.125,7.375 11,7 11,6.5 11,6 11.125,5.625"
         id="path2386"
         inkscape:connector-curvature="0" />
      <path
         style="fill:#fffbf0;fill-opacity:1"
         d="M 17,5.5 V 5 h 0.5 q 0.5,0 0.5,0.5 0,0.5 0,1 0,0.5 0,1 0,0.5 0,1 0,0.5 0,1 0,0.5 0,1 0,0.5 0,1 0,0.5 0,1 0,0.5 0,1 0,0.5 0,1 0,0.5 0,1 0,0.5 0,1 0,0.5 0,1 0,0.5 0,1 0,0.5 0,1 0,0.5 0,1 0,0.5 -0.125,0.875 -0.125,0.375 -0.5,0.5 Q 17,22 16.5,22 q -0.5,0 -1,0 -0.5,0 -1,0 -0.5,0 -1,0 -0.5,0 -1,0 -0.5,0 -1,0 -0.5,0 -1,0 -0.5,0 -1,0 Q 9,22 8.5,22 8,22 7.5,22 7,22 6.5,22 6,22 5.5,22 5,22 4.625,21.875 4.25,21.75 4.140625,21.359375 L 4.03125,20.96875 3.921875,20.953125 3.8125,20.9375 4.03125,20.96875 Q 4.25,21 4.5,21 H 4.75 4.375 4 4.5 q 0.5,0 1,0 0.5,0 1,0 0.5,0 1,0 0.5,0 1,0 0.5,0 1,0 0.5,0 1,0 0.5,0 1,0 0.5,0 1,0 0.5,0 1,0 0.5,0 1,0 0.5,0 1,0 0.5,0 0.875,-0.125 0.375,-0.125 0.5,-0.5 Q 17,20 17,19.5 q 0,-0.5 0,-1 0,-0.5 0,-1 0,-0.5 0,-1 0,-0.5 0,-1 0,-0.5 0,-1 0,-0.5 0,-1 0,-0.5 0,-1 0,-0.5 0,-1 0,-0.5 0,-1 0,-0.5 0,-1 0,-0.5 0,-1 0,-0.5 0,-1 0,-0.5 0,-1 0,-0.5 0,-1 M 17,4.875 V 5 5.375 5.75 5.5 Q 17,5.25 17,5 V 4.75 4.875"
         id="path2388"
         inkscape:connector-curvature="0" />
      <path
         style="fill:#33333b;fill-opacity:1"
         d="M 18,5.5 V 5 5.375 5.75 5.5 Q 18,5.25 17.875,5.125 L 17.75,5 17.8125,5.0625 17.875,5.125 18.4375,5.0625 Q 19,5 19.5,5 20,5 20.5,5 H 21 V 5.5 6 6.5 7 7.5 8 8.5 9 9.5 10 10.5 11 11.5 12 12.5 13 13.5 14 14.5 15 15.5 16 16.5 17 17.5 18 18.5 19 19.5 20 20.5 21 21.5 22 22.5 23 23.5 24 24.5 25 H 20.5 20 19.5 19 18.5 18 17.5 17 16.5 16 15.5 15 14.5 14 13.5 13 12.5 12 11.5 11 10.5 10 9.5 9 8.5 8 7.5 7 6.5 6 V 24.5 Q 6,24 6,23.5 6,23 6,22.5 V 22 h 0.5 q 0.5,0 1,0 0.5,0 1,0 0.5,0 1,0 0.5,0 1,0 0.5,0 1,0 0.5,0 1,0 0.5,0 1,0 0.5,0 1,0 0.5,0 1,0 0.5,0 1,0 0.5,0 0.875,-0.125 0.375,-0.125 0.5,-0.5 Q 18,21 18,20.5 q 0,-0.5 0,-1 0,-0.5 0,-1 0,-0.5 0,-1 0,-0.5 0,-1 0,-0.5 0,-1 0,-0.5 0,-1 0,-0.5 0,-1 0,-0.5 0,-1 0,-0.5 0,-1 0,-0.5 0,-1 0,-0.5 0,-1 0,-0.5 0,-1 0,-0.5 0,-1 0,-0.5 0,-1 0,-0.5 0,-1 M 6.375,22 H 6 5.875 5.75 6 q 0.25,0 0.5,0 H 6.75 6.375"
         id="path2390"
         inkscape:connector-curvature="0" />
      <path
         style="fill:#c0c0c0;fill-opacity:1"
         d="M 1.125,9.625 Q 1.25,9.25 1.5,9.25 1.75,9.25 1.875,9.625 2,10 2,10.5 2,11 1.875,11.375 1.75,11.75 1.5,11.75 1.25,11.75 1.125,11.375 1,11 1,10.5 1,10 1.125,9.625"
         id="path2392"
         inkscape:connector-curvature="0" />
      <path
         style="fill:#c0c0c0;fill-opacity:1"
         d="M 3.125,9.625 Q 3.25,9.25 3.5,9.25 3.75,9.25 3.875,9.625 4,10 4,10.5 4,11 3.875,11.375 3.75,11.75 3.5,11.75 3.25,11.75 3.125,11.375 3,11 3,10.5 3,10 3.125,9.625"
         id="path2394"
         inkscape:connector-curvature="0" />
      <path
         style="fill:#c0c0c0;fill-opacity:1"
         d="M 5.125,9.625 Q 5.25,9.25 5.5,9.25 5.75,9.25 5.875,9.625 6,10 6,10.5 6,11 5.875,11.375 5.75,11.75 5.5,11.75 5.25,11.75 5.125,11.375 5,11 5,10.5 5,10 5.125,9.625"
         id="path2396"
         inkscape:connector-curvature="0" />
      <path
         style="fill:#999999;fill-opacity:1"
         d="M 7.125,9.625 Q 7.25,9.25 7.625,9.125 8,9 8.375,9.125 8.75,9.25 8.875,9.625 9,10 9,10.5 9,11 8.875,11.375 8.75,11.75 8.375,11.875 8,12 7.625,11.875 7.25,11.75 7.125,11.375 7,11 7,10.5 7,10 7.125,9.625"
         id="path2398"
         inkscape:connector-curvature="0" />
      <path
         style="fill:#c0c0c0;fill-opacity:1"
         d="M 10.125,9.625 Q 10.25,9.25 10.5,9.25 q 0.25,0 0.375,0.375 Q 11,10 11,10.5 11,11 10.875,11.375 10.75,11.75 10.5,11.75 10.25,11.75 10.125,11.375 10,11 10,10.5 10,10 10.125,9.625"
         id="path2400"
         inkscape:connector-curvature="0" />
      <path
         style="fill:#c0c0c0;fill-opacity:1"
         d="M 12.125,9.625 Q 12.25,9.25 12.5,9.25 q 0.25,0 0.375,0.375 Q 13,10 13,10.5 13,11 12.875,11.375 12.75,11.75 12.5,11.75 12.25,11.75 12.125,11.375 12,11 12,10.5 12,10 12.125,9.625"
         id="path2402"
         inkscape:connector-curvature="0" />
      <path
         style="fill:#999999;fill-opacity:1"
         d="m 1.125,13.625 q 0.125,-0.375 0.5,-0.5 0.375,-0.125 0.75,0 0.375,0.125 0.5,0.5 Q 3,14 3,14.5 3,15 2.875,15.375 2.75,15.75 2.375,15.875 2,16 1.625,15.875 1.25,15.75 1.125,15.375 1,15 1,14.5 1,14 1.125,13.625"
         id="path2404"
         inkscape:connector-curvature="0" />
      <path
         style="fill:#c0c0c0;fill-opacity:1"
         d="M 4.125,13.625 Q 4.25,13.25 4.5,13.25 q 0.25,0 0.375,0.375 Q 5,14 5,14.5 5,15 4.875,15.375 4.75,15.75 4.5,15.75 4.25,15.75 4.125,15.375 4,15 4,14.5 4,14 4.125,13.625"
         id="path2406"
         inkscape:connector-curvature="0" />
      <path
         style="fill:#c0c0c0;fill-opacity:1"
         d="M 6.125,13.625 Q 6.25,13.25 6.5,13.25 q 0.25,0 0.375,0.375 Q 7,14 7,14.5 7,15 6.875,15.375 6.75,15.75 6.5,15.75 6.25,15.75 6.125,15.375 6,15 6,14.5 6,14 6.125,13.625"
         id="path2408"
         inkscape:connector-curvature="0" />
      <path
         style="fill:#999999;fill-opacity:1"
         d="m 8.125,13.625 q 0.125,-0.375 0.5,-0.5 0.375,-0.125 0.75,0 0.375,0.125 0.5,0.5 Q 10,14 10,14.5 10,15 9.875,15.375 9.75,15.75 9.375,15.875 9,16 8.625,15.875 8.25,15.75 8.125,15.375 8,15 8,14.5 8,14 8.125,13.625"
         id="path2410"
         inkscape:connector-curvature="0" />
      <path
         style="fill:#999999;fill-opacity:1"
         d="m 11.125,13.625 q 0.125,-0.375 0.5,-0.5 0.375,-0.125 0.75,0 0.375,0.125 0.5,0.5 Q 13,14 13,14.5 q 0,0.5 -0.125,0.875 -0.125,0.375 -0.5,0.5 -0.375,0.125 -0.75,0 -0.375,-0.125 -0.5,-0.5 Q 11,15 11,14.5 11,14 11.125,13.625"
         id="path2412"
         inkscape:connector-curvature="0" />
      <path
         style="fill:#000000;fill-opacity:0"
         d="M 0,18.5 V 18 h 0.5 q 0.5,0 1,0 H 2 v 0.5 q 0,0.5 0.125,0.875 0.125,0.375 0.5,0.5 L 3,20 2.71875,19.90625 2.4375,19.8125 2.625,19.875 q 0.1875,0.0625 0.40625,0.09375 L 3.25,20 3.140625,19.984375 3.03125,19.96875 3.140625,20.359375 Q 3.25,20.75 3.625,20.875 L 4,21 3.71875,20.90625 3.4375,20.8125 3.625,20.875 q 0.1875,0.0625 0.40625,0.09375 L 4.25,21 4.140625,20.984375 4.03125,20.96875 4.140625,21.359375 Q 4.25,21.75 4.625,21.875 5,22 5.5,22 H 6 v 0.5 q 0,0.5 0,1 0,0.5 0,1 V 25 H 5.5 5 4.5 4 3.5 3 2.5 2 1.5 1 0.5 0 V 24.5 24 23.5 23 22.5 22 21.5 21 20.5 20 19.5 19 18.5 M 6.125,22 H 6 5.625 5.25 5.5 Q 5.75,22 6,22 H 6.25 6.125 m -4,-4 H 2 1.625 1.25 1.5 Q 1.75,18 2,18 H 2.25 2.125"
         id="path2414"
         inkscape:connector-curvature="0" />
    </g>
  </g>
</svg>
