<?xml version="1.0" encoding="UTF-8" standalone="no"?>
<!-- Created with Inkscape (http://www.inkscape.org/) -->

<svg
   xmlns:dc="http://purl.org/dc/elements/1.1/"
   xmlns:cc="http://creativecommons.org/ns#"
   xmlns:rdf="http://www.w3.org/1999/02/22-rdf-syntax-ns#"
   xmlns:svg="http://www.w3.org/2000/svg"
   xmlns="http://www.w3.org/2000/svg"
   xmlns:sodipodi="http://sodipodi.sourceforge.net/DTD/sodipodi-0.dtd"
   xmlns:inkscape="http://www.inkscape.org/namespaces/inkscape"
   width="300mm"
   height="300mm"
   viewBox="0 0 300 300"
   version="1.1"
   id="svg8"
   inkscape:version="0.92.3 (2405546, 2018-03-11)"
   sodipodi:docname="action_slow.svg">
  <defs
     id="defs2" />
  <sodipodi:namedview
     id="base"
     pagecolor="#ffffff"
     bordercolor="#666666"
     borderopacity="1.0"
     inkscape:pageopacity="0.0"
     inkscape:pageshadow="2"
     inkscape:zoom="0.35"
     inkscape:cx="583.96079"
     inkscape:cy="637.29008"
     inkscape:document-units="mm"
     inkscape:current-layer="layer1"
     showgrid="false"
     inkscape:window-width="958"
     inkscape:window-height="991"
     inkscape:window-x="2392"
     inkscape:window-y="0"
     inkscape:window-maximized="0" />
  <metadata
     id="metadata5">
    <rdf:RDF>
      <cc:Work
         rdf:about="">
        <dc:format>image/svg+xml</dc:format>
        <dc:type
           rdf:resource="http://purl.org/dc/dcmitype/StillImage" />
        <dc:title></dc:title>
      </cc:Work>
    </rdf:RDF>
  </metadata>
  <g
     inkscape:label="Layer 1"
     inkscape:groupmode="layer"
     id="layer1"
     transform="translate(0,3)">
    <path
       style="fill:#89ccfd;stroke-width:0.78974354"
       d="m 143.26285,295.32728 c -1.91287,-0.9773 -4.5647,-3.14133 -5.89295,-4.80894 l -2.41503,-3.032 -0.39487,-13.09393 c -0.25465,-8.44441 -0.70152,-13.19546 -1.25848,-13.37979 -0.47497,-0.15715 -3.62969,2.92257 -7.01046,6.84398 -3.38078,3.92141 -7.29948,7.84219 -8.70827,8.71284 -13.41707,8.29223 -29.609597,-7.52757 -21.664452,-21.16574 0.835699,-1.43452 9.605412,-11.86658 19.488242,-23.18238 9.88286,-11.31578 18.21037,-21.15903 18.5056,-21.87385 0.78207,-1.89349 0.74451,-38.22698 -0.0407,-39.46566 -0.50949,-0.80368 -4.00243,0.76172 -14.97865,6.71281 -7.87281,4.26847 -14.53564,8.29395 -14.80627,8.94549 -0.27064,0.65153 -4.349132,12.33922 -9.063311,25.9726 -4.714179,13.6334 -9.451154,26.11764 -10.526618,27.74279 -3.656367,5.52512 -11.94262,7.80652 -18.461377,5.08281 -5.809291,-2.42729 -9.659759,-8.00424 -9.659759,-13.99107 0,-1.88657 1.243847,-7.12363 2.764103,-11.6379 2.972881,-8.82773 3.239316,-10.26666 1.900984,-10.26666 -0.474715,0 -7.848947,3.81317 -16.387186,8.47373 -14.482071,7.90499 -15.815616,8.47195 -19.867658,8.44672 -2.90539,-0.0179 -5.454635,-0.6063 -7.699121,-1.77652 -9.135275,-4.76294 -10.8419454,-18.07143 -3.22821,-25.17334 1.024254,-0.95541 8.607114,-5.39771 16.850797,-9.87179 8.243686,-4.47409 14.924456,-8.4901 14.846152,-8.92444 -0.07826,-0.43437 -4.392833,-1.69649 -9.587854,-2.80473 -11.221916,-2.39392 -14.898743,-4.45828 -17.495776,-9.82303 -3.462369,-7.15231 -1.215187,-15.68832 5.306527,-20.15708 4.90154,-3.35857 8.40722,-3.07357 39.163346,3.1838 l 28.112842,5.7196 11.683609,-6.34705 c 6.42599,-3.49087 11.68361,-6.79914 11.68361,-7.3517 0,-1.30421 -26.270499,-15.6665 -28.719392,-15.70111 -1.027464,-0.0134 -13.821316,2.33386 -28.430778,5.21859 -14.609473,2.88474 -28.182391,5.23684 -30.162048,5.22688 -3.79203,-0.0202 -8.92944,-2.17433 -11.113087,-4.6622 -4.375482,-4.98503 -5.196209,-13.2396 -1.879145,-18.89974 2.768511,-4.72412 6.089763,-6.45303 16.722635,-8.70512 5.105899,-1.08147 9.451504,-2.13435 9.656899,-2.33972 0.693673,-0.69369 -1.067542,-1.82179 -12.946902,-8.292787 C 14.168135,87.592263 11.929003,85.810886 10.087609,80.989251 6.0928694,70.529192 13.576864,59.745984 24.785698,59.811733 c 3.966956,0.02328 5.574977,0.688763 18.54457,7.674919 7.810536,4.207194 14.473715,7.376709 14.807067,7.043353 0.333349,-0.333334 -0.836783,-4.853221 -2.600297,-10.044142 -3.535136,-10.405728 -3.706352,-13.768528 -0.970617,-19.064195 3.435574,-6.650381 12.191977,-9.821285 19.458203,-7.046308 6.572524,2.510079 7.168205,3.66242 17.082658,33.046356 l 9.098948,26.96703 15.78144,8.559694 c 8.67979,4.70783 16.32057,8.45625 16.97949,8.32982 0.9962,-0.19118 1.2347,-2.2399 1.41552,-12.15944 0.11954,-6.561284 -0.12783,-12.776025 -0.54997,-13.810592 C 133.41064,88.273706 124.83565,78.009573 114.77717,66.499075 104.71871,54.988577 95.9249,44.504743 95.235374,43.201651 93.392705,39.719352 93.539795,32.812534 95.538106,28.98629 c 2.373733,-4.545072 7.172804,-7.680493 12.422064,-8.115797 6.73773,-0.558743 10.13062,1.404591 17.95117,10.387751 3.64612,4.188165 6.99486,7.493723 7.44161,7.345682 0.50273,-0.166555 0.96275,-6.312123 1.20714,-16.126513 l 0.39487,-15.8573609 2.41501,-3.0322644 c 4.42326,-5.5538271 12.24781,-8.0162673 18.26436,-5.7479399 1.22277,0.4610038 3.40852,1.97139386 4.85725,3.3564199 4.93599,4.7189476 5.2055,5.796205 5.51996,22.0643793 0.20417,10.560127 0.5482,14.790849 1.19947,14.748986 0.50224,-0.03224 3.55043,-3.076768 6.77369,-6.76556 6.63169,-7.589447 10.11448,-9.760349 15.65866,-9.760349 10.8436,0 18.67068,10.926615 14.89988,20.800262 -0.90327,2.365194 -7.03876,9.885199 -19.81361,24.284688 l -18.50517,20.858601 -0.0374,13.576475 c -0.0202,7.46706 0.23839,13.74686 0.57533,13.9551 0.66957,0.41381 34.56672,-17.751906 36.2316,-19.416785 0.56423,-0.56425 5.07089,-12.767429 10.01477,-27.118205 4.9439,-14.350732 9.3641,-26.784961 9.82264,-27.631594 1.70184,-3.142069 5.71121,-6.115077 9.61095,-7.126652 7.59746,-1.970767 14.96034,1.549745 18.29225,8.746311 2.14422,4.631237 1.86228,7.51752 -1.82575,18.692199 -1.82765,5.537731 -3.09481,10.296795 -2.81592,10.575686 0.27889,0.27889 5.35817,-2.056015 11.28728,-5.188683 10.63209,-5.617494 10.84944,-5.691347 15.81732,-5.375004 4.13583,0.263332 5.57228,0.746498 8.02802,2.700184 7.6648,6.097818 8.64024,16.975116 2.09146,23.322452 -1.45879,1.413905 -6.25016,4.554855 -10.64753,6.979865 -4.39736,2.425033 -8.04052,4.73961 -8.0959,5.143506 -0.0553,0.403896 4.03357,1.65284 9.08655,2.7754 10.49021,2.33054 14.1463,4.49133 16.54803,9.78014 2.74964,6.05484 1.28048,14.17558 -3.33162,18.41553 -2.39235,2.19931 -7.08614,4.18042 -9.93982,4.1953 -1.20845,0.007 -14.69812,-2.5195 -29.97703,-5.6129 l -27.77987,-5.62437 -17.02568,9.22207 c -9.36411,5.07212 -17.26961,9.61674 -17.56776,10.09917 -0.70882,1.14688 0.61337,1.99136 16.77159,10.71213 l 13.63005,7.35627 28.40681,-5.57935 c 15.62373,-3.06864 29.77859,-5.57156 31.45525,-5.56202 4.01496,0.0228 8.9305,2.32121 11.503,5.37843 6.05186,7.19225 4.32547,18.74707 -3.50073,23.43009 -1.42154,0.85061 -7.0269,2.46597 -12.45639,3.58968 -5.4295,1.12371 -9.8718,2.37491 -9.8718,2.78044 0,0.40555 3.94348,2.87514 8.76329,5.48801 12.75819,6.91634 14.91095,8.50788 16.80771,12.42606 5.34021,11.03139 -2.83864,23.42554 -14.88346,22.55431 -3.72692,-0.2696 -6.21513,-1.29136 -15.46205,-6.34935 -6.06121,-3.31546 -11.32561,-5.72925 -11.69868,-5.36399 -0.37569,0.36781 0.5932,4.23956 2.1718,8.67859 4.64509,13.06203 3.41848,20.60033 -4.13115,25.38816 -6.86984,4.35671 -16.85386,2.52221 -21.17567,-3.89092 -0.96096,-1.42597 -5.51871,-13.90735 -10.12832,-27.73636 -4.60959,-13.82904 -8.98695,-25.67578 -9.72742,-26.32613 -1.33495,-1.17242 -30.8741,-17.36728 -33.52842,-18.38195 -1.29441,-0.49483 -1.38205,0.77746 -1.38205,20.06353 v 20.59184 l 17.96666,20.26165 c 9.88167,11.14392 18.67746,21.36928 19.54616,22.72301 1.16571,1.81654 1.5795,3.80831 1.5795,7.60279 0,6.16726 -2.01773,10.02554 -6.94984,13.28946 -2.65768,1.75876 -4.08324,2.11863 -8.39249,2.11863 -6.69996,0 -9.00366,-1.42199 -16.55581,-10.21934 -3.19179,-3.71808 -6.079,-6.76015 -6.41599,-6.76015 -0.33698,0 -0.75144,5.59731 -0.921,12.43847 -0.33326,13.44569 -0.79973,15.20553 -5.11747,19.30681 -4.96831,4.71929 -11.76425,5.80113 -17.62663,2.80601 z"
       id="path828"
       inkscape:connector-curvature="0" />
  </g>
</svg>
