<?xml version="1.0" encoding="UTF-8" standalone="no"?>
<!-- Created with Inkscape (http://www.inkscape.org/) -->

<svg
   xmlns:dc="http://purl.org/dc/elements/1.1/"
   xmlns:cc="http://creativecommons.org/ns#"
   xmlns:rdf="http://www.w3.org/1999/02/22-rdf-syntax-ns#"
   xmlns:svg="http://www.w3.org/2000/svg"
   xmlns="http://www.w3.org/2000/svg"
   xmlns:sodipodi="http://sodipodi.sourceforge.net/DTD/sodipodi-0.dtd"
   xmlns:inkscape="http://www.inkscape.org/namespaces/inkscape"
   width="300mm"
   height="300mm"
   viewBox="0 0 300 299.99999"
   version="1.1"
   id="svg8"
   inkscape:version="0.92.3 (2405546, 2018-03-11)"
   sodipodi:docname="action_attack.svg"
   inkscape:export-filename="C:\Users\curff\Desktop\Workspaces\C &amp; C++\Spybot\SpybotClient\resources\board\actions\action_attack.png"
   inkscape:export-xdpi="8.622241"
   inkscape:export-ydpi="8.622241">
  <defs
     id="defs2" />
  <sodipodi:namedview
     id="base"
     pagecolor="#ffffff"
     bordercolor="#666666"
     borderopacity="1.0"
     inkscape:pageopacity="0.0"
     inkscape:pageshadow="2"
     inkscape:zoom="0.49497475"
     inkscape:cx="426.18875"
     inkscape:cy="458.22993"
     inkscape:document-units="mm"
     inkscape:current-layer="layer1"
     showgrid="false"
     inkscape:window-width="958"
     inkscape:window-height="991"
     inkscape:window-x="2392"
     inkscape:window-y="0"
     inkscape:window-maximized="0"
     units="mm"
     width="300in" />
  <metadata
     id="metadata5">
    <rdf:RDF>
      <cc:Work
         rdf:about="">
        <dc:format>image/svg+xml</dc:format>
        <dc:type
           rdf:resource="http://purl.org/dc/dcmitype/StillImage" />
        <dc:title></dc:title>
      </cc:Work>
    </rdf:RDF>
  </metadata>
  <g
     inkscape:label="Layer 1"
     inkscape:groupmode="layer"
     id="layer1"
     transform="translate(0,2.9999879)">
    <g
       id="g898"
       transform="matrix(2.1812883,0,0,2.181286,322.49003,-194.57022)">
      <path
         style="fill:#fbbf5c;stroke-width:1.10434783"
         d="m -90.538392,223.64379 c -7.504033,-2.25891 -11.943628,-6.14838 -17.106508,-10.07277 -4.13037,-2.87021 -11.13638,-17.60254 -15.30392,-26.41762 -3.51763,-7.4404 -4.541,-6.09624 -4.49366,-18.8512 0.0424,-11.43508 -0.0147,-12.19383 2.3776,-18.38783 2.95261,-7.64465 4.2481,-14.34499 5.75436,-14.34499 0.50019,0 0.18333,3.66068 1.20921,7.35057 2.44584,8.79719 9.3092,9.17213 10.1785,-0.78131 0.36713,-4.20352 6.83823,-13.20109 8.137887,-16.56747 5.36769,-13.90341 10.877603,-10.60307 23.209593,-25.30693 l 4.682352,-5.582934 2.712684,-5.2207 c 0,0 -1.491368,4.94533 -1.491368,13.196624 0,9.47974 0.927072,12.63762 5.396753,21.59071 2.577454,5.16283 6.623272,14.1789 9.967605,20.25282 3.344333,6.07391 5.771161,11.3085 6.152764,13.58622 0.381604,2.27772 4.075979,6.00629 4.844846,6.00629 1.863508,0 9.163305,-11.68941 10.109123,-18.81935 0.832811,-6.27803 -0.530395,-6.78757 2.421395,-1.7334 3.351706,5.73891 3.270475,12.80995 3.250498,24.36238 -0.0466,26.9299 -6.799243,42.56912 -25.110827,51.61919 -7.591106,3.75172 -8.56353,5.42515 -18.982753,5.75688 -8.527109,0.27148 -12.911605,-0.12868 -17.916134,-1.63518 z"
         id="path902"
         inkscape:connector-curvature="0"
         sodipodi:nodetypes="ccscssscsscsssssssscssc" />
      <path
         style="fill:#f27059;stroke-width:1.10434783"
         d="m -69.828371,224.38696 c 10.14583,-2.83442 19.902553,-16.55866 19.910405,-28.00688 0.0073,-10.61861 -3.388957,-13.23583 -4.24524,-5.23215 -0.695766,6.50333 -3.419706,12.7874 -4.720287,11.9836 -0.533306,-0.32961 -1.247478,-3.29119 -1.587049,-6.58131 -0.710975,-6.8887 -2.007533,-9.6826 -10.861568,-23.40517 -7.030597,-10.89648 -9.819326,-17.50609 -9.819326,-23.27292 0,-2.3401 -1.449908,-3.77078 -1.449908,-3.77078 0,0 -6.91892,5.51881 -10.342639,12.19223 -2.837336,5.53046 -3.110108,7.08101 -3.048649,17.32974 0.03713,6.1907 -0.270886,11.04669 -0.684467,10.79108 -0.413581,-0.2556 -2.041053,-1.51402 -2.810701,-3.37212 -0.76965,-1.85809 -1.95908,-3.44297 -1.95908,-3.44297 -2.81741,0.46816 -5.46589,7.86888 -5.96202,15.59963 -0.42795,6.66835 -0.11425,8.73403 1.9518,12.85259 1.35394,2.699 3.7424,6.2739 5.30769,7.94422 3.76787,4.0207 1.150703,4.00871 -4.92502,-0.0225 -6.4652,-4.2897 -16.58034,-17.00729 -21.14736,-26.58823 -7.15204,-15.00391 -5.99111,-35.28217 2.93374,-51.24449 1.61275,-2.88444 3.38492,-5.0941 3.93817,-4.91035 0.55325,0.18374 1.66132,2.58183 2.46238,5.32908 0.80106,2.74725 2.46047,5.90361 3.68758,7.01412 1.2271,1.11051 2.27002,1.81786 2.31759,1.57187 0.0476,-0.24599 0.30451,-3.99698 0.57098,-8.33553 0.8633,-14.05637 6.01596,-25.06734 16.463319,-35.18133 5.531677,-5.355159 18.424316,-13.77371 23.618585,-15.422307 2.430563,-0.77143 2.508541,-0.631864 1.613815,2.888465 -0.517084,2.034485 -0.940153,7.674715 -0.940153,12.533842 0,9.71631 1.270125,12.89321 15.453167,38.65218 3.344333,6.07391 6.381867,12.83853 6.750077,15.03249 0.964147,5.74482 2.073444,7.24673 4.106283,5.55963 2.078693,-1.72516 6.096643,-11.59381 7.800884,-19.16004 1.317553,-5.84947 1.317553,-5.84947 3.149567,-3.0886 3.213133,4.8422 5.258341,15.38891 5.238242,27.01245 -0.03412,19.70454 -4.572464,33.64618 -14.14949,43.46639 -6.920026,7.09575 -18.240966,13.01821 -26.416531,13.81961 -5.781974,0.56678 -5.979069,0.5189 -2.204786,-0.53551 z"
         id="path900"
         inkscape:connector-curvature="0"
         sodipodi:nodetypes="ccscssscsscccscccsscscccsssssscsccsccc" />
    </g>
  </g>
</svg>
