<?xml version="1.0" encoding="UTF-8" standalone="no"?>
<!-- Created with Inkscape (http://www.inkscape.org/) -->

<svg
   xmlns:dc="http://purl.org/dc/elements/1.1/"
   xmlns:cc="http://creativecommons.org/ns#"
   xmlns:rdf="http://www.w3.org/1999/02/22-rdf-syntax-ns#"
   xmlns:svg="http://www.w3.org/2000/svg"
   xmlns="http://www.w3.org/2000/svg"
   xmlns:sodipodi="http://sodipodi.sourceforge.net/DTD/sodipodi-0.dtd"
   xmlns:inkscape="http://www.inkscape.org/namespaces/inkscape"
   version="1.1"
   id="svg4518"
   width="300"
   height="300"
   viewBox="0 0 300 300"
   sodipodi:docname="gamelab vector.svg"
   inkscape:version="0.92.3 (2405546, 2018-03-11)"
   inkscape:export-filename="C:\Users\curff\Desktop\Workspaces\C &amp; C++\Spybot\SpybotClient\resources\title\title_gamelab.png"
   inkscape:export-xdpi="160"
   inkscape:export-ydpi="160">
  <metadata
     id="metadata4524">
    <rdf:RDF>
      <cc:Work
         rdf:about="">
        <dc:format>image/svg+xml</dc:format>
        <dc:type
           rdf:resource="http://purl.org/dc/dcmitype/StillImage" />
        <dc:title />
      </cc:Work>
    </rdf:RDF>
  </metadata>
  <defs
     id="defs4522" />
  <sodipodi:namedview
     pagecolor="#ffffff"
     bordercolor="#666666"
     borderopacity="1"
     objecttolerance="10"
     gridtolerance="10"
     guidetolerance="10"
     inkscape:pageopacity="0"
     inkscape:pageshadow="2"
     inkscape:window-width="1920"
     inkscape:window-height="1001"
     id="namedview4520"
     showgrid="false"
     inkscape:zoom="2.6933333"
     inkscape:cx="65.845779"
     inkscape:cy="248.01712"
     inkscape:window-x="-9"
     inkscape:window-y="-9"
     inkscape:window-maximized="1"
     inkscape:current-layer="g4528" />
  <g
     id="g4528"
     transform="translate(0.52507673,0.52507924)">
    <path
       style="fill:#fcca25"
       d="M 9.0819521,295.68412 C 7.2262045,294.43354 6.5305909,291.3371 4.4551085,290.50035 L 2.3205446,288.19371 0,150 1.0337499,11.509079 2.5691537,8.0693584 C 3.4813047,6.025893 5.8962512,3.431035 7.9544973,2.552745 L 11.591123,1.0009324 150,0 l 138.33294,1.6243812 3.09563,2.552262 c 1.72663,1.4235615 2.12316,2.8639177 3.37374,4.7196653 l 2.2738,3.5133185 1.20669,138.008073 -1.90285,138.05448 -1.71687,3.55973 c -1.25058,1.85575 -1.93569,3.14421 -3.79144,4.39479 l -4.11667,0.78865 -137.54396,-0.32488 -135.780343,-1.16027 c -5.4705483,-4.48295 -3.22402,0.71185 -4.3487149,-0.0461 z M 49.955623,272.02264 c 2.131771,-1.08755 4.926344,-3.45005 6.210162,-5.25 C 58.356722,263.70088 58.5,262.59912 58.5,248.82333 c 0,-16.04077 -0.43443,-17.44541 -6.885119,-22.26154 -3.944747,-2.94518 -15.285015,-2.94518 -19.229762,0 C 26.897925,230.65857 25.5,233.59004 25.5,241 c 0,7.6476 1.555672,10.71125 7.489831,14.75 3.590807,2.44388 10.804137,3.03923 15.445069,1.27475 C 50.671889,256.17425 51,256.312 51,258.10167 51,261.19276 45.687297,266 42.271203,266 40.685749,266 37.863708,264.875 36,263.5 c -3.424014,-2.52616 -5.532612,-3.00032 -8.418213,-1.89301 -2.242359,0.86047 -1.964969,2.78417 0.890861,6.17813 5.203235,6.1837 14.192517,7.95683 21.482975,4.23752 z M 35.452251,247.35398 C 30.05349,241.52862 34.012516,232 41.831645,232 46.853324,232 51,236.09348 51,241.05073 c 0,8.07876 -10.105415,12.17562 -15.547749,6.30325 z M 181.44911,256.75 c -1.26092,-4.13766 -3.31307,-5.45989 -9.31926,-6.00451 -5.86888,-0.53217 -9.686,-2.14645 -10.57916,-4.47398 -0.3787,-0.98689 2.31013,-1.27151 12.01208,-1.27151 14.30925,0 14.60243,-0.18473 12.54417,-7.9042 -2.15367,-8.0773 -8.6175,-13.10742 -16.80728,-13.07935 -6.70139,0.023 -12.19214,3.28814 -15.04966,8.94956 -2.72269,5.39429 -2.82784,10.1649 -0.34457,15.63292 3.25326,7.16347 9.50716,10.10337 21.91196,10.30062 6.10639,0.0971 6.29449,0.0253 5.63172,-2.14955 z M 161,237.17431 C 161,235.06092 165.83873,232 169.17959,232 172.61973,232 178,235.09417 178,237.07258 178,237.58266 174.175,238 169.5,238 c -4.675,0 -8.5,-0.37156 -8.5,-0.82569 z m -73.519927,19.65282 c 1.969064,-0.89717 2.849887,-0.89717 3.747053,0 C 91.872207,257.47221 93.717803,258 95.328451,258 h 2.928451 l -0.456414,-10.75 c -0.502291,-11.83055 -1.710053,-15.31323 -6.794008,-19.59109 -5.391805,-4.53691 -15.120089,-4.85039 -20.982293,-0.67613 -10.089967,7.18469 -8.689693,24.77372 2.354935,29.58064 3.877101,1.68743 11.677275,1.82364 15.100951,0.26371 z M 73.588894,246.92327 C 70.08224,242.75585 70.196592,238.64956 73.923077,234.92308 79.89873,228.94742 89,232.61441 89,240.99771 89,246.57016 85.622221,250 80.134348,250 c -3.190475,0 -4.457833,-0.59573 -6.545454,-3.07673 z M 110,246.82874 c 0,-8.99165 0.3229,-11.52806 1.65499,-13 2.02576,-2.23844 4.19669,-2.32136 7.1225,-0.27204 C 120.80093,234.97397 121,235.93931 121,244.3342 121,254.64155 122.36559,258 126.5567,258 128.99663,258 129,257.98513 129,247.22251 129,235.12025 130.1741,232 134.72796,232 139.89713,232 141,234.3006 141,245.08356 141,255.74556 141.97244,258 146.57143,258 H 149 v -11.59887 c 0,-13.18907 -1.31933,-17.40509 -6.41996,-20.51545 -3.8296,-2.33529 -11.29309,-2.47539 -14.44019,-0.27108 -2.11057,1.4783 -2.61476,1.48072 -5.97251,0.0287 -2.49148,-1.07741 -6.31253,-1.53924 -11.91734,-1.44038 l -8.25,0.14551 v 16.82578 16.82578 h 4 4 v -11.17126 z m 88,-13.43715 v -24.60841 l -2.75,0.66315 c -5.05112,1.21803 -5.25,2.21226 -5.25,26.2448 V 258 h 4 4 z m 28.92654,23.48417 c 2.38758,-0.83231 3.51691,-0.83231 4.34922,0 C 231.89409,257.49409 233.435,258 234.7,258 c 2.25452,0 2.3,-0.20841 2.3,-10.53984 0,-12.04586 -1.60008,-16.61228 -7.22736,-20.62595 -4.49118,-3.20334 -15.25922,-3.35465 -19.38752,-0.27242 -10.62683,7.93407 -10.34083,21.73874 0.60471,29.18821 3.70796,2.52362 10.542,3.00637 15.93671,1.12576 z m -13.47199,-9.33031 c -3.51541,-3.5154 -3.42435,-9.74217 0.19147,-13.0932 3.76592,-3.49013 8.65512,-3.30495 12.4309,0.47083 3.72649,3.72648 3.84084,7.83277 0.33419,12.00019 -3.40661,4.04853 -9.24964,4.32911 -12.95656,0.62218 z m 54.22289,7.84605 c 4.65486,-3.47535 6.62595,-7.00483 7.09924,-12.71206 0.54816,-6.61016 -1.57101,-11.65805 -6.45956,-15.38673 -3.90209,-2.97627 -11.4672,-4.13324 -16.21162,-2.47933 l -3.02674,1.05513 -0.28938,-8.18426 c -0.28273,-7.99622 -0.34497,-8.17809 -2.7089,-7.916 -5.06378,0.56141 -5.22637,1.2373 -4.89167,20.33518 0.34567,19.72427 0.6671,20.77093 7.90314,25.73417 2.88584,1.97942 4.36408,2.27872 9.64728,1.9533 4.23077,-0.2606 7.10805,-1.03298 8.93821,-2.3994 z m -16.22289,-7.84605 C 245.94878,242.03969 249.99085,232 257.71329,232 c 4.75015,0 9.28671,4.53656 9.28671,9.28671 0,7.72244 -10.03969,11.76451 -15.54545,6.25874 z"
       id="path4538"
       inkscape:connector-curvature="0"
       sodipodi:nodetypes="cscccsscccscccccccccccsssssssssscscsssssscsscscsssssssccscscsccscssscccsssssscsssssccccccccccscccccsssscsccccscccsccscsccccssc" />
    <path
       style="fill:#ee8130"
       d="M 10.525543,295.1623 C 8.6993375,294.26239 6.3706246,293.15184 4.8968299,291.2196 L 2.5884901,288.63464 0.5,150 1.1727579,10.770943 3.1935535,6.8128848 C 3.4284168,6.3528667 -2.7405825,0 150,0 302.74058,0 288.92743,0.43913453 294.53232,7.7875135 L 295.87995,11.550999 299.5,150 l -4.91955,138.86669 -0.83712,2.69605 c -5.60596,7.34978 8.97501,7.04751 -143.94087,7.02216 C 24.680964,298.5642 13.550322,296.65286 10.525543,295.1623 Z m 39.43008,-23.13966 c 2.131771,-1.08755 4.926344,-3.45005 6.210162,-5.25 C 58.356722,263.70088 58.5,262.59912 58.5,248.82333 c 0,-16.04077 -0.43443,-17.44541 -6.885119,-22.26154 -3.944747,-2.94518 -15.285015,-2.94518 -19.229762,0 C 26.897925,230.65857 25.5,233.59004 25.5,241 c 0,7.6476 1.555672,10.71125 7.489831,14.75 3.590807,2.44388 10.804137,3.03923 15.445069,1.27475 C 50.671889,256.17425 51,256.312 51,258.10167 51,261.19276 45.687297,266 42.271203,266 40.685749,266 37.863708,264.875 36,263.5 c -3.424014,-2.52616 -5.532612,-3.00032 -8.418213,-1.89301 -2.242359,0.86047 -1.964969,2.78417 0.890861,6.17813 5.203235,6.1837 14.192517,7.95683 21.482975,4.23752 z M 35.452251,247.35398 C 30.05349,241.52862 34.012516,232 41.831645,232 46.853324,232 51,236.09348 51,241.05073 c 0,8.07876 -10.105415,12.17562 -15.547749,6.30325 z M 181.44911,256.75 c -1.26092,-4.13766 -3.31307,-5.45989 -9.31926,-6.00451 -5.86888,-0.53217 -9.686,-2.14645 -10.57916,-4.47398 -0.3787,-0.98689 2.31013,-1.27151 12.01208,-1.27151 14.30925,0 14.60243,-0.18473 12.54417,-7.9042 -2.15367,-8.0773 -8.6175,-13.10742 -16.80728,-13.07935 -6.70139,0.023 -12.19214,3.28814 -15.04966,8.94956 -2.72269,5.39429 -2.82784,10.1649 -0.34457,15.63292 3.25326,7.16347 9.50716,10.10337 21.91196,10.30062 6.10639,0.0971 6.29449,0.0253 5.63172,-2.14955 z M 161,237.17431 C 161,235.06092 165.83873,232 169.17959,232 172.61973,232 178,235.09417 178,237.07258 178,237.58266 174.175,238 169.5,238 c -4.675,0 -8.5,-0.37156 -8.5,-0.82569 z m -73.519927,19.65282 c 1.969064,-0.89717 2.849887,-0.89717 3.747053,0 C 91.872207,257.47221 93.717803,258 95.328451,258 h 2.928451 l -0.456414,-10.75 c -0.502291,-11.83055 -1.710053,-15.31323 -6.794008,-19.59109 -5.391805,-4.53691 -15.120089,-4.85039 -20.982293,-0.67613 -10.089967,7.18469 -8.689693,24.77372 2.354935,29.58064 3.877101,1.68743 11.677275,1.82364 15.100951,0.26371 z M 73.588894,246.92327 C 70.08224,242.75585 70.196592,238.64956 73.923077,234.92308 79.89873,228.94742 89,232.61441 89,240.99771 89,246.57016 85.622221,250 80.134348,250 c -3.190475,0 -4.457833,-0.59573 -6.545454,-3.07673 z M 110,246.82874 c 0,-8.99165 0.3229,-11.52806 1.65499,-13 2.02576,-2.23844 4.19669,-2.32136 7.1225,-0.27204 C 120.80093,234.97397 121,235.93931 121,244.3342 121,254.64155 122.36559,258 126.5567,258 128.99663,258 129,257.98513 129,247.22251 129,235.12025 130.1741,232 134.72796,232 139.89713,232 141,234.3006 141,245.08356 141,255.74556 141.97244,258 146.57143,258 H 149 v -11.59887 c 0,-13.18907 -1.31933,-17.40509 -6.41996,-20.51545 -3.8296,-2.33529 -11.29309,-2.47539 -14.44019,-0.27108 -2.11057,1.4783 -2.61476,1.48072 -5.97251,0.0287 -2.49148,-1.07741 -6.31253,-1.53924 -11.91734,-1.44038 l -8.25,0.14551 v 16.82578 16.82578 h 4 4 v -11.17126 z m 88,-13.43715 v -24.60841 l -2.75,0.66315 c -5.05112,1.21803 -5.25,2.21226 -5.25,26.2448 V 258 h 4 4 z m 28.92654,23.48417 c 2.38758,-0.83231 3.51691,-0.83231 4.34922,0 C 231.89409,257.49409 233.435,258 234.7,258 c 2.25452,0 2.3,-0.20841 2.3,-10.53984 0,-12.04586 -1.60008,-16.61228 -7.22736,-20.62595 -4.49118,-3.20334 -15.25922,-3.35465 -19.38752,-0.27242 -10.62683,7.93407 -10.34083,21.73874 0.60471,29.18821 3.70796,2.52362 10.542,3.00637 15.93671,1.12576 z m -13.47199,-9.33031 c -3.51541,-3.5154 -3.42435,-9.74217 0.19147,-13.0932 3.76592,-3.49013 8.65512,-3.30495 12.4309,0.47083 3.72649,3.72648 3.84084,7.83277 0.33419,12.00019 -3.40661,4.04853 -9.24964,4.32911 -12.95656,0.62218 z m 54.22289,7.84605 c 4.65486,-3.47535 6.62595,-7.00483 7.09924,-12.71206 0.54816,-6.61016 -1.57101,-11.65805 -6.45956,-15.38673 -3.90209,-2.97627 -11.4672,-4.13324 -16.21162,-2.47933 l -3.02674,1.05513 -0.28938,-8.18426 c -0.28273,-7.99622 -0.34497,-8.17809 -2.7089,-7.916 -5.06378,0.56141 -5.22637,1.2373 -4.89167,20.33518 0.34567,19.72427 0.6671,20.77093 7.90314,25.73417 2.88584,1.97942 4.36408,2.27872 9.64728,1.9533 4.23077,-0.2606 7.10805,-1.03298 8.93821,-2.3994 z m -16.22289,-7.84605 C 245.94878,242.03969 249.99085,232 257.71329,232 c 4.75015,0 9.28671,4.53656 9.28671,9.28671 0,7.72244 -10.03969,11.76451 -15.54545,6.25874 z M 230.17126,194.34501 C 231.76814,192.89986 232,191.00522 232,179.40172 232,162.45808 232.56668,163 214.84892,163 c -17.19183,0 -17.26682,0.0854 -16.6893,19.01059 C 198.5979,196.37285 198.1394,196 215.36239,196 c 10.67482,0 13.30492,-0.29393 14.80887,-1.65499 z M 57.777494,151.4433 C 59.885753,149.96661 60,149.19922 60,136.51472 60,125.69181 59.700453,122.84331 58.428571,121.57143 57.158281,120.30114 54.320406,120 43.619701,120 25.741188,120 26.5,119.29047 26.5,136.00774 26.5,153.23648 26.26497,153 43.388278,153 c 9.393355,0 12.673321,-0.35484 14.389216,-1.5567 z M 273,151 c 1.78955,-1.78955 2,-3.33333 2,-14.67126 C 275,119.32908 275.70254,120 257.90172,120 240.50443,120 241,119.5283 241,136.08765 c 0,10.26434 0.24536,11.95456 2.07258,14.27749 2.04808,2.60372 2.22538,2.63486 15,2.63486 11.59409,0 13.1337,-0.20628 14.92742,-2 z m -87.68426,-42.1497 c 1.20134,-0.63234 2.51487,-1.64484 2.91895,-2.25 0.40408,-0.60517 0.74158,-6.8378 0.75,-13.8503 0.0205,-17.08417 0.3503,-16.75 -16.53014,-16.75 -11.98654,0 -12.65481,0.109354 -15,2.454545 C 155.13034,80.778746 155,81.525684 155,92.520287 c 0,12.210513 0.7391,15.031823 4.31537,16.472733 3.26567,1.31577 23.43986,1.20503 26.00037,-0.14272 z M 144.17126,64.345012 C 145.76814,62.899858 146,61.005222 146,49.401716 146,32.458201 146.56651,33 128.85007,33 116.31583,33 116.11732,33.0354 114.07258,35.634859 112.26291,37.935482 112,39.656316 112,49.2006 c 0,10.427193 0.8242,14.314377 3.3997,16.034087 0.60517,0.404078 6.91487,0.741578 14.02156,0.75 10.63485,0.0126 13.24485,-0.277537 14.75,-1.639675 z"
       id="path4536"
       inkscape:connector-curvature="0"
       sodipodi:nodetypes="cccccsscccccsccsssssssssscscsssssscsscscsssssssccscscsccscssscccsssssscsssssccccccccccscccccsssscsccccscccsccscsccccssccssssccssssscsssscssccsscsscssscscss" />
    <path
       style="fill:#06a1b2"
       d="m 9.912709,294.88211 c -2.231347,-1.26377 -5.1090168,-1.8209 -6.3727823,-4.05224 L 1.7036929,286.52537 0.03290084,150 0.90256343,12.680496 2.2868326,8.5203822 C 2.9374609,6.5650631 6.2890352,3.5505981 8.5203822,2.2868326 L 12.713313,0.75488488 150,0.03290084 287.26795,2.3070345 l 3.42268,1.2328922 c 2.23134,1.2637655 3.48464,2.9347521 4.74841,5.1660991 l 0.4439,3.7939742 2.78466,137.82488 -1.39233,136.71101 -1.83623,3.74757 c -1.26377,2.23134 -3.86298,2.37077 -6.09432,3.63454 l -3.60833,1.697 -135.92203,1.99566 -135.411513,-0.97462 z m 40.042914,-22.85947 c 2.131771,-1.08755 4.926344,-3.45005 6.210162,-5.25 C 58.356722,263.70088 58.5,262.59912 58.5,248.82333 c 0,-16.04077 -0.43443,-17.44541 -6.885119,-22.26154 -3.944747,-2.94518 -15.285015,-2.94518 -19.229762,0 C 26.897925,230.65857 25.5,233.59004 25.5,241 c 0,7.6476 1.555672,10.71125 7.489831,14.75 3.590807,2.44388 10.804137,3.03923 15.445069,1.27475 C 50.671889,256.17425 51,256.312 51,258.10167 51,261.19276 45.687297,266 42.271203,266 40.685749,266 37.863708,264.875 36,263.5 c -3.424014,-2.52616 -5.532612,-3.00032 -8.418213,-1.89301 -2.242359,0.86047 -1.964969,2.78417 0.890861,6.17813 5.203235,6.1837 14.192517,7.95683 21.482975,4.23752 z M 35.452251,247.35398 C 30.05349,241.52862 34.012516,232 41.831645,232 46.853324,232 51,236.09348 51,241.05073 c 0,8.07876 -10.105415,12.17562 -15.547749,6.30325 z M 181.44911,256.75 c -1.26092,-4.13766 -3.31307,-5.45989 -9.31926,-6.00451 -5.86888,-0.53217 -9.686,-2.14645 -10.57916,-4.47398 -0.3787,-0.98689 2.31013,-1.27151 12.01208,-1.27151 14.30925,0 14.60243,-0.18473 12.54417,-7.9042 -2.15367,-8.0773 -8.6175,-13.10742 -16.80728,-13.07935 -6.70139,0.023 -12.19214,3.28814 -15.04966,8.94956 -2.72269,5.39429 -2.82784,10.1649 -0.34457,15.63292 3.25326,7.16347 9.50716,10.10337 21.91196,10.30062 6.10639,0.0971 6.29449,0.0253 5.63172,-2.14955 z M 161,237.17431 C 161,235.06092 165.83873,232 169.17959,232 172.61973,232 178,235.09417 178,237.07258 178,237.58266 174.175,238 169.5,238 c -4.675,0 -8.5,-0.37156 -8.5,-0.82569 z m -73.519927,19.65282 c 1.969064,-0.89717 2.849887,-0.89717 3.747053,0 C 91.872207,257.47221 93.717803,258 95.328451,258 h 2.928451 l -0.456414,-10.75 c -0.502291,-11.83055 -1.710053,-15.31323 -6.794008,-19.59109 -5.391805,-4.53691 -15.120089,-4.85039 -20.982293,-0.67613 -10.089967,7.18469 -8.689693,24.77372 2.354935,29.58064 3.877101,1.68743 11.677275,1.82364 15.100951,0.26371 z M 73.588894,246.92327 C 70.08224,242.75585 70.196592,238.64956 73.923077,234.92308 79.89873,228.94742 89,232.61441 89,240.99771 89,246.57016 85.622221,250 80.134348,250 c -3.190475,0 -4.457833,-0.59573 -6.545454,-3.07673 z M 110,246.82874 c 0,-8.99165 0.3229,-11.52806 1.65499,-13 2.02576,-2.23844 4.19669,-2.32136 7.1225,-0.27204 C 120.80093,234.97397 121,235.93931 121,244.3342 121,254.64155 122.36559,258 126.5567,258 128.99663,258 129,257.98513 129,247.22251 129,235.12025 130.1741,232 134.72796,232 139.89713,232 141,234.3006 141,245.08356 141,255.74556 141.97244,258 146.57143,258 H 149 v -11.59887 c 0,-13.18907 -1.31933,-17.40509 -6.41996,-20.51545 -3.8296,-2.33529 -11.29309,-2.47539 -14.44019,-0.27108 -2.11057,1.4783 -2.61476,1.48072 -5.97251,0.0287 -2.49148,-1.07741 -6.31253,-1.53924 -11.91734,-1.44038 l -8.25,0.14551 v 16.82578 16.82578 h 4 4 v -11.17126 z m 88,-13.43715 v -24.60841 l -2.75,0.66315 c -5.05112,1.21803 -5.25,2.21226 -5.25,26.2448 V 258 h 4 4 z m 28.92654,23.48417 c 2.38758,-0.83231 3.51691,-0.83231 4.34922,0 C 231.89409,257.49409 233.435,258 234.7,258 c 2.25452,0 2.3,-0.20841 2.3,-10.53984 0,-12.04586 -1.60008,-16.61228 -7.22736,-20.62595 -4.49118,-3.20334 -15.25922,-3.35465 -19.38752,-0.27242 -10.62683,7.93407 -10.34083,21.73874 0.60471,29.18821 3.70796,2.52362 10.542,3.00637 15.93671,1.12576 z m -13.47199,-9.33031 c -3.51541,-3.5154 -3.42435,-9.74217 0.19147,-13.0932 3.76592,-3.49013 8.65512,-3.30495 12.4309,0.47083 3.72649,3.72648 3.84084,7.83277 0.33419,12.00019 -3.40661,4.04853 -9.24964,4.32911 -12.95656,0.62218 z m 54.22289,7.84605 c 4.65486,-3.47535 6.62595,-7.00483 7.09924,-12.71206 0.54816,-6.61016 -1.57101,-11.65805 -6.45956,-15.38673 -3.90209,-2.97627 -11.4672,-4.13324 -16.21162,-2.47933 l -3.02674,1.05513 -0.28938,-8.18426 c -0.28273,-7.99622 -0.34497,-8.17809 -2.7089,-7.916 -5.06378,0.56141 -5.22637,1.2373 -4.89167,20.33518 0.34567,19.72427 0.6671,20.77093 7.90314,25.73417 2.88584,1.97942 4.36408,2.27872 9.64728,1.9533 4.23077,-0.2606 7.10805,-1.03298 8.93821,-2.3994 z m -16.22289,-7.84605 C 245.94878,242.03969 249.99085,232 257.71329,232 c 4.75015,0 9.28671,4.53656 9.28671,9.28671 0,7.72244 -10.03969,11.76451 -15.54545,6.25874 z M 230.17126,194.34501 C 231.76448,192.90316 232,191.01371 232,179.67375 232,162.32518 232.67406,163 215.34501,163 197.61252,163 198,162.63637 198,179.27749 198,196.54426 197.45556,196 214.72796,196 c 11.26517,0 13.93013,-0.28559 15.4433,-1.65499 z M 57.777494,151.4433 C 59.885753,149.96661 60,149.19922 60,136.51472 c 0,-10.82291 -0.299547,-13.67141 -1.571429,-14.94329 -2.376273,-2.37627 -28.570366,-2.30883 -30.556126,0.0787 -0.950502,1.1428 -1.472859,5.37554 -1.69906,13.76774 -0.300709,11.15649 -0.156146,12.33435 1.82258,14.84989 2.13971,2.7202 2.205269,2.73226 14.854109,2.73226 9.880472,0 13.199001,-0.34607 14.92742,-1.5567 z m 85.999996,0 C 145.88206,149.9692 146,149.19063 146,136.77204 146,119.26276 146.75158,120 128.90172,120 111.50443,120 112,119.5283 112,136.08765 c 0,10.26434 0.24536,11.95456 2.07258,14.27749 2.04474,2.59947 2.24325,2.63486 14.77749,2.63486 9.88048,0 13.19901,-0.34607 14.92742,-1.5567 z m 43,0 C 188.88206,149.9692 189,149.19063 189,136.77204 189,119.26276 189.75158,120 171.90172,120 154.50443,120 155,119.5283 155,136.08765 c 0,10.26434 0.24536,11.95456 2.07258,14.27749 2.04474,2.59947 2.24325,2.63486 14.77749,2.63486 9.88048,0 13.19901,-0.34607 14.92742,-1.5567 z m 86,0 C 274.88575,149.96661 275,149.19922 275,136.51472 275,125.69181 274.70045,122.84331 273.42857,121.57143 272.15104,120.2939 269.26273,120 257.98528,120 240.41596,120 241,119.42499 241,136.72251 241,153.29353 240.69745,153 257.77749,153 c 9.94617,0 13.26998,-0.34495 15,-1.5567 z M 58.582695,107.55887 C 59.636818,106.11515 60,102.2219 60,92.365574 60,75.50609 60.506054,76 43.232039,76 31.481748,76 30.795026,76.114065 28.454545,78.454545 26.146538,80.762553 26,81.564625 26,91.889446 c 0,12.170924 0.874376,15.704084 4.235455,17.114544 1.2455,0.52267 7.814258,0.84809 14.59724,0.72316 10.902054,-0.2008 12.497108,-0.45233 13.75,-2.16828 z m 129.000035,0 C 188.63681,106.11518 189,102.22171 189,92.365574 189,75.50609 189.50605,76 172.23204,76 160.48175,76 159.79503,76.114065 157.45455,78.454545 155.11916,80.789929 155,81.496072 155,93 c 0,11.60608 0.10158,12.19249 2.53335,14.62426 2.49142,2.49142 2.74934,2.52791 15.58273,2.20455 11.54339,-0.29086 13.21295,-0.55283 14.46665,-2.26994 z m 40.73301,1.29143 c 1.20134,-0.63234 2.51487,-1.64484 2.91895,-2.25 0.40408,-0.60517 0.74158,-6.8378 0.75,-13.8503 0.0205,-17.08417 0.3503,-16.75 -16.53014,-16.75 -11.98654,0 -12.65481,0.109354 -15,2.454545 C 198.13034,80.778746 198,81.525684 198,92.520287 c 0,12.210513 0.7391,15.031823 4.31537,16.472733 3.26567,1.31577 23.43986,1.20503 26.00037,-0.14272 z m 43,0 c 1.20134,-0.63234 2.51487,-1.64484 2.91895,-2.25 0.40408,-0.60517 0.74158,-6.8378 0.75,-13.8503 0.0205,-17.08417 0.3503,-16.75 -16.53014,-16.75 -11.98654,0 -12.65481,0.109354 -15,2.454545 C 241.13034,80.778746 241,81.525684 241,92.520287 c 0,12.210513 0.7391,15.031823 4.31537,16.472733 3.26567,1.31577 23.43986,1.20503 26.00037,-0.14272 z M 58.171259,64.345012 C 59.764484,62.903164 60,61.013714 60,49.673753 60,32.333225 60.663123,33 43.417593,33 30.150535,33 30.14429,33.001106 27.995965,35.732259 26.013223,38.252907 25.872066,39.421048 26.173385,50.814954 26.589584,66.552866 25.963756,66 43.362389,66 c 10.674823,0 13.304919,-0.29393 14.80887,-1.654988 z m 43.000001,0 C 102.76448,62.903164 103,61.013714 103,49.673753 103,32.333225 103.66312,33 86.417593,33 73.150535,33 73.14429,33.001106 70.995965,35.732259 69.013223,38.252907 68.872066,39.421048 69.173385,50.814954 69.589584,66.552866 68.963756,66 86.362389,66 97.037212,66 99.667308,65.70607 101.17126,64.345012 Z m 43.25731,0.08356 C 145.6972,63.159944 146,60.332916 146,49.757312 146,32.334109 146.65423,33 129.53614,33 111.85552,33 112.58833,32.331541 112.17208,48.839348 111.72894,66.413656 111.31297,66 129.42857,66 c 10.87446,0 13.72746,-0.298886 15,-1.571428 z m 85.74269,-0.08356 C 231.76448,62.903164 232,61.013714 232,49.673753 232,32.325183 232.67406,33 215.34501,33 197.58234,33 198,32.602692 198,49.5 c 0,16.876229 -0.39154,16.5 17.17126,16.5 10.85267,0 13.49318,-0.291334 15,-1.654988 z"
       id="path4534"
       inkscape:connector-curvature="0"
       sodipodi:nodetypes="cccccsscccccccccccccccsssssssssscscsssssscsscscsssssssccscscsccscssscccsssssscsssssccccccccccscccccsssscsccccscccsccscsccccssccssssccsscssscccssscsccssscsccssssscssssscsscsscssscccsscsscccsscsscssssssscsssssccssssccssssc" />
    <path
       style="fill:#986854"
       d="m 8.5203822,296.04238 c -2.231347,-1.26377 -3.71669,-2.98117 -4.9804555,-5.21251 L 2.3534454,286.43255 0.03290084,150 0.90256343,12.680496 2.2868326,8.5203822 C 3.0964767,6.0871767 6.2890352,3.5505981 8.5203822,2.2868326 L 12.795357,1.1158769 150,0.03290084 287.26795,2.3070345 l 3.97962,2.6252189 c 2.23134,1.2637655 3.11334,1.9601234 4.37711,4.1914704 l 2.16111,4.0724392 0.83539,136.896657 -1.34591,136.94307 -2.25393,3.00499 c -1.26377,2.23134 -2.74912,3.7631 -4.98046,5.02687 l -3.84038,0.67596 -136.24691,2.64542 L 13.01052,296.5791 Z M 49.955623,272.02264 c 2.131771,-1.08755 4.926344,-3.45005 6.210162,-5.25 C 58.356722,263.70088 58.5,262.59912 58.5,248.82333 c 0,-16.04077 -0.43443,-17.44541 -6.885119,-22.26154 -3.944747,-2.94518 -15.285015,-2.94518 -19.229762,0 C 26.897925,230.65857 25.5,233.59004 25.5,241 c 0,7.6476 1.555672,10.71125 7.489831,14.75 3.590807,2.44388 10.804137,3.03923 15.445069,1.27475 C 50.671889,256.17425 51,256.312 51,258.10167 51,261.19276 45.687297,266 42.271203,266 40.685749,266 37.863708,264.875 36,263.5 c -3.424014,-2.52616 -5.532612,-3.00032 -8.418213,-1.89301 -2.242359,0.86047 -1.964969,2.78417 0.890861,6.17813 5.203235,6.1837 14.192517,7.95683 21.482975,4.23752 z M 35.452251,247.35398 C 30.05349,241.52862 34.012516,232 41.831645,232 46.853324,232 51,236.09348 51,241.05073 c 0,8.07876 -10.105415,12.17562 -15.547749,6.30325 z M 181.44911,256.75 c -1.26092,-4.13766 -3.31307,-5.45989 -9.31926,-6.00451 -5.86888,-0.53217 -9.686,-2.14645 -10.57916,-4.47398 -0.3787,-0.98689 2.31013,-1.27151 12.01208,-1.27151 14.30925,0 14.60243,-0.18473 12.54417,-7.9042 -2.15367,-8.0773 -8.6175,-13.10742 -16.80728,-13.07935 -6.70139,0.023 -12.19214,3.28814 -15.04966,8.94956 -2.72269,5.39429 -2.82784,10.1649 -0.34457,15.63292 3.25326,7.16347 9.50716,10.10337 21.91196,10.30062 6.10639,0.0971 6.29449,0.0253 5.63172,-2.14955 z M 161,237.17431 C 161,235.06092 165.83873,232 169.17959,232 172.61973,232 178,235.09417 178,237.07258 178,237.58266 174.175,238 169.5,238 c -4.675,0 -8.5,-0.37156 -8.5,-0.82569 z m -73.519927,19.65282 c 1.969064,-0.89717 2.849887,-0.89717 3.747053,0 C 91.872207,257.47221 93.717803,258 95.328451,258 h 2.928451 l -0.456414,-10.75 c -0.502291,-11.83055 -1.710053,-15.31323 -6.794008,-19.59109 -5.391805,-4.53691 -15.120089,-4.85039 -20.982293,-0.67613 -10.089967,7.18469 -8.689693,24.77372 2.354935,29.58064 3.877101,1.68743 11.677275,1.82364 15.100951,0.26371 z M 73.588894,246.92327 C 70.08224,242.75585 70.196592,238.64956 73.923077,234.92308 79.89873,228.94742 89,232.61441 89,240.99771 89,246.57016 85.622221,250 80.134348,250 c -3.190475,0 -4.457833,-0.59573 -6.545454,-3.07673 z M 110,246.82874 c 0,-8.99165 0.3229,-11.52806 1.65499,-13 2.02576,-2.23844 4.19669,-2.32136 7.1225,-0.27204 C 120.80093,234.97397 121,235.93931 121,244.3342 121,254.64155 122.36559,258 126.5567,258 128.99663,258 129,257.98513 129,247.22251 129,235.12025 130.1741,232 134.72796,232 139.89713,232 141,234.3006 141,245.08356 141,255.74556 141.97244,258 146.57143,258 H 149 v -11.59887 c 0,-13.18907 -1.31933,-17.40509 -6.41996,-20.51545 -3.8296,-2.33529 -11.29309,-2.47539 -14.44019,-0.27108 -2.11057,1.4783 -2.61476,1.48072 -5.97251,0.0287 -2.49148,-1.07741 -6.31253,-1.53924 -11.91734,-1.44038 l -8.25,0.14551 v 16.82578 16.82578 h 4 4 v -11.17126 z m 88,-13.43715 v -24.60841 l -2.75,0.66315 c -5.05112,1.21803 -5.25,2.21226 -5.25,26.2448 V 258 h 4 4 z m 28.92654,23.48417 c 2.38758,-0.83231 3.51691,-0.83231 4.34922,0 C 231.89409,257.49409 233.435,258 234.7,258 c 2.25452,0 2.3,-0.20841 2.3,-10.53984 0,-12.04586 -1.60008,-16.61228 -7.22736,-20.62595 -4.49118,-3.20334 -15.25922,-3.35465 -19.38752,-0.27242 -10.62683,7.93407 -10.34083,21.73874 0.60471,29.18821 3.70796,2.52362 10.542,3.00637 15.93671,1.12576 z m -13.47199,-9.33031 c -3.51541,-3.5154 -3.42435,-9.74217 0.19147,-13.0932 3.76592,-3.49013 8.65512,-3.30495 12.4309,0.47083 3.72649,3.72648 3.84084,7.83277 0.33419,12.00019 -3.40661,4.04853 -9.24964,4.32911 -12.95656,0.62218 z m 54.22289,7.84605 c 4.65486,-3.47535 6.62595,-7.00483 7.09924,-12.71206 0.54816,-6.61016 -1.57101,-11.65805 -6.45956,-15.38673 -3.90209,-2.97627 -11.4672,-4.13324 -16.21162,-2.47933 l -3.02674,1.05513 -0.28938,-8.18426 c -0.28273,-7.99622 -0.34497,-8.17809 -2.7089,-7.916 -5.06378,0.56141 -5.22637,1.2373 -4.89167,20.33518 0.34567,19.72427 0.6671,20.77093 7.90314,25.73417 2.88584,1.97942 4.36408,2.27872 9.64728,1.9533 4.23077,-0.2606 7.10805,-1.03298 8.93821,-2.3994 z m -16.22289,-7.84605 C 245.94878,242.03969 249.99085,232 257.71329,232 c 4.75015,0 9.28671,4.53656 9.28671,9.28671 0,7.72244 -10.03969,11.76451 -15.54545,6.25874 z m -149.9091,-53 C 103.88832,192.20259 104,191.52515 104,179.65624 104,162.18213 104.32066,162.5 86.693341,162.5 68.457808,162.5 69,161.97653 69,179.58241 c 0,13.14734 0.02483,13.29196 2.634859,15.34501 C 73.979,196.77132 75.639044,197 86.680313,197 c 11.843349,0 12.522785,-0.11219 14.865137,-2.45455 z m 86,0 c 2.3452,-2.34519 2.45455,-3.01346 2.45455,-15 0,-17.40916 -0.65187,-17.98079 -19.82609,-17.38583 C 154.82304,162.63594 155,162.43276 155,179.58241 c 0,13.14734 0.0248,13.29196 2.63486,15.34501 2.34414,1.8439 4.00418,2.07258 15.04545,2.07258 11.84335,0 12.52279,-0.11219 14.86514,-2.45455 z m 42.62581,-0.20044 C 231.76448,192.90316 232,191.01371 232,179.67375 232,162.32518 232.67406,163 215.34501,163 197.61252,163 198,162.63637 198,179.27749 198,196.54426 197.45556,196 214.72796,196 c 11.26517,0 13.93013,-0.28559 15.4433,-1.65499 z M 57.777494,151.4433 C 59.885753,149.96661 60,149.19922 60,136.51472 c 0,-10.82291 -0.299547,-13.67141 -1.571429,-14.94329 -2.376273,-2.37627 -28.570366,-2.30883 -30.556126,0.0787 -0.950502,1.1428 -1.472859,5.37554 -1.69906,13.76774 -0.300709,11.15649 -0.156146,12.33435 1.82258,14.84989 2.13971,2.7202 2.205269,2.73226 14.854109,2.73226 9.880472,0 13.199001,-0.34607 14.92742,-1.5567 z m 85.999996,0 C 145.88206,149.9692 146,149.19063 146,136.77204 146,119.26276 146.75158,120 128.90172,120 111.50443,120 112,119.5283 112,136.08765 c 0,10.26434 0.24536,11.95456 2.07258,14.27749 2.04474,2.59947 2.24325,2.63486 14.77749,2.63486 9.88048,0 13.19901,-0.34607 14.92742,-1.5567 z m 43,0 C 188.88206,149.9692 189,149.19063 189,136.77204 189,119.26276 189.75158,120 171.90172,120 154.50443,120 155,119.5283 155,136.08765 c 0,10.26434 0.24536,11.95456 2.07258,14.27749 2.04474,2.59947 2.24325,2.63486 14.77749,2.63486 9.88048,0 13.19901,-0.34607 14.92742,-1.5567 z m 86,0 C 274.88575,149.96661 275,149.19922 275,136.51472 275,125.69181 274.70045,122.84331 273.42857,121.57143 272.15104,120.2939 269.26273,120 257.98528,120 240.41596,120 241,119.42499 241,136.72251 241,153.29353 240.69745,153 257.77749,153 c 9.94617,0 13.26998,-0.34495 15,-1.5567 z M 58.582695,107.55887 C 59.636818,106.11515 60,102.2219 60,92.365574 60,75.50609 60.506054,76 43.232039,76 31.481748,76 30.795026,76.114065 28.454545,78.454545 26.146538,80.762553 26,81.564625 26,91.889446 c 0,12.170924 0.874376,15.704084 4.235455,17.114544 1.2455,0.52267 7.814258,0.84809 14.59724,0.72316 10.902054,-0.2008 12.497108,-0.45233 13.75,-2.16828 z m 43.344725,-0.19373 C 103.74965,105.04855 104,103.34952 104,93.2994 104,82.374898 103.20405,78.503886 100.6003,76.765313 99.995133,76.361235 93.5375,76.023735 86.25,76.015313 68.531767,75.994836 69,75.533805 69,93 c 0,17.48309 -0.495236,17 17.42742,17 13.314781,0 13.444806,-0.0221 15.5,-2.63486 z m 85.65531,0.19373 C 188.63681,106.11518 189,102.22171 189,92.365574 189,75.50609 189.50605,76 172.23204,76 160.48175,76 159.79503,76.114065 157.45455,78.454545 155.11916,80.789929 155,81.496072 155,93 c 0,11.60608 0.10158,12.19249 2.53335,14.62426 2.49142,2.49142 2.74934,2.52791 15.58273,2.20455 11.54339,-0.29086 13.21295,-0.55283 14.46665,-2.26994 z m 40.73301,1.29143 c 1.20134,-0.63234 2.51487,-1.64484 2.91895,-2.25 0.40408,-0.60517 0.74158,-6.8378 0.75,-13.8503 0.0205,-17.08417 0.3503,-16.75 -16.53014,-16.75 -11.98654,0 -12.65481,0.109354 -15,2.454545 C 198.13034,80.778746 198,81.525684 198,92.520287 c 0,12.210513 0.7391,15.031823 4.31537,16.472733 3.26567,1.31577 23.43986,1.20503 26.00037,-0.14272 z m 43,0 c 1.20134,-0.63234 2.51487,-1.64484 2.91895,-2.25 0.40408,-0.60517 0.74158,-6.8378 0.75,-13.8503 0.0205,-17.08417 0.3503,-16.75 -16.53014,-16.75 -11.98654,0 -12.65481,0.109354 -15,2.454545 C 241.13034,80.778746 241,81.525684 241,92.520287 c 0,12.210513 0.7391,15.031823 4.31537,16.472733 3.26567,1.31577 23.43986,1.20503 26.00037,-0.14272 z M 187.54545,64.545455 C 189.89065,62.200264 190,61.531987 190,49.545455 190,32.136294 189.34813,31.564656 170.17391,32.159618 154.82304,32.635943 155,32.432756 155,49.582407 c 0,13.147346 0.0248,13.291966 2.63486,15.345013 C 159.979,66.771321 161.63904,67 172.68031,67 c 11.84335,0 12.52279,-0.112189 14.86514,-2.454545 z m 85.59377,0.544976 c 2.19549,-1.775871 2.38445,-2.726699 2.69881,-13.580372 C 276.37842,32.85261 275.15602,31.617937 256.68231,32.161971 240.74869,32.631201 241,32.352041 241,49.582407 c 0,13.147346 0.0248,13.291966 2.63486,15.345013 C 245.9749,66.768097 247.64087,67 258.52407,67 c 10.57006,0 12.57884,-0.262461 14.61515,-1.909569 z M 58.171259,64.345012 C 59.764484,62.903164 60,61.013714 60,49.673753 60,32.333225 60.663123,33 43.417593,33 30.150535,33 30.14429,33.001106 27.995965,35.732259 26.013223,38.252907 25.872066,39.421048 26.173385,50.814954 26.589584,66.552866 25.963756,66 43.362389,66 c 10.674823,0 13.304919,-0.29393 14.80887,-1.654988 z m 43.000001,0 C 102.76448,62.903164 103,61.013714 103,49.673753 103,32.333225 103.66312,33 86.417593,33 73.150535,33 73.14429,33.001106 70.995965,35.732259 69.013223,38.252907 68.872066,39.421048 69.173385,50.814954 69.589584,66.552866 68.963756,66 86.362389,66 97.037212,66 99.667308,65.70607 101.17126,64.345012 Z m 43.25731,0.08356 C 145.6972,63.159944 146,60.332916 146,49.757312 146,32.334109 146.65423,33 129.53614,33 111.85552,33 112.58833,32.331541 112.17208,48.839348 111.72894,66.413656 111.31297,66 129.42857,66 c 10.87446,0 13.72746,-0.298886 15,-1.571428 z m 85.74269,-0.08356 C 231.76448,62.903164 232,61.013714 232,49.673753 232,32.325183 232.67406,33 215.34501,33 197.58234,33 198,32.602692 198,49.5 c 0,16.876229 -0.39154,16.5 17.17126,16.5 10.85267,0 13.49318,-0.291334 15,-1.654988 z"
       id="path4532"
       inkscape:connector-curvature="0"
       sodipodi:nodetypes="cccccsscccccccccccccccsssssssssscscsssssscsscscsssssssccscscsccscssscccsssssscsssssccccccccccscccccsssscsccccscccsccscsccccssccsssssccssscsccssssccsscssscccssscsccssscsccssssscssssscsssscsssscsscssscccsscsscccsscssccssscsccssscscsssassscsssssccssssccssssc" />
    <path
       style="fill:#1f3f68;stroke-width:1.00014198"
       d="m 9.97646,297.61455 c -4.7585115,-2.1851 -6.8909276,-4.41549 -8.9631733,-9.37503 -1.35862054,-3.25161 -1.53836343,-19.46491 -1.53836343,-138.7646 0,-119.299686 0.17974289,-135.512988 1.53836343,-138.764595 C 3.0855324,5.7507867 5.2179485,3.5203849 9.97646,1.3352869 c 3.818688,-1.75353272 10.152459,-1.83805836 139.30251,-1.85902468 119.53003,-0.0194046 135.73111,0.15735762 138.98375,1.51638467 4.95958,2.07222721 7.19,4.20462431 9.37512,8.96309421 1.75395,3.8195259 1.83708,10.1327289 1.83708,139.5191789 0,129.38645 -0.0831,135.69965 -1.83708,139.51918 -2.18512,4.75847 -4.41554,6.89087 -9.37512,8.96309 -3.25264,1.35903 -19.45372,1.53579 -138.98375,1.51639 -129.150051,-0.021 -135.483822,-0.10549 -139.30251,-1.85903 z m 39.436318,-25.58686 c 3.918184,-2.02616 7.79664,-6.8893 9.026771,-11.31853 1.363424,-4.90917 1.320717,-19.68546 -0.07139,-24.6998 -1.456009,-5.24452 -7.33707,-11.02997 -12.672724,-12.4667 -8.680124,-2.3373 -18.724188,3.68725 -21.146809,12.68409 -3.511765,13.04159 10.215213,25.93238 22.256883,20.9011 3.481969,-1.45485 3.676881,-1.43592 3.676881,0.35718 0,1.04141 -1.077397,3.14601 -2.394217,4.67689 -3.125493,3.63357 -9.305764,3.90057 -12.866096,0.55584 -2.819878,-2.64912 -8.494009,-3.04055 -9.411635,-0.64928 -0.758384,1.9763 2.324514,6.22308 6.659142,9.17318 3.938596,2.68056 12.510523,3.07822 16.943194,0.78603 z M 35.40326,246.56519 c -1.995289,-1.99527 -2.923505,-3.92496 -2.923505,-6.07776 0,-4.3025 4.698781,-9.00124 9.001318,-9.00124 4.302537,0 9.001317,4.69874 9.001317,9.00124 0,4.3025 -4.69878,9.00124 -9.001317,9.00124 -2.152812,0 -4.082524,-0.92821 -6.077813,-2.92348 z m 50.475343,10.44997 c 3.395835,-1.21025 4.191179,-1.19065 6.243194,0.15387 4.418835,2.8953 5.368038,1.31991 5.361897,-8.89915 -0.0072,-12.01173 -1.115626,-15.75674 -5.958439,-20.13189 -7.160842,-6.46933 -16.075739,-6.85912 -23.030676,-1.00698 -4.301274,3.61925 -6.010431,7.41735 -6.010431,13.35642 0,7.80067 3.628144,13.20866 11.008751,16.40928 4.325035,1.87555 7.373676,1.90471 12.385704,0.11845 z m -12.064306,-9.92069 c -2.225036,-1.91387 -2.783443,-3.23937 -2.783443,-6.60704 0,-8.24911 8.7169,-11.89441 14.533596,-6.07776 8.181673,8.1816 -2.978654,20.22966 -11.750153,12.6848 z m 35.437533,-0.60621 c 0.23326,-10.28333 0.48335,-11.68697 2.36114,-13.25183 2.72525,-2.27109 4.41982,-2.20949 6.87937,0.25004 1.71379,1.71376 2.0003,3.33379 2.0003,11.31042 0,10.11189 0.8025,12.17466 5.14302,13.21959 l 2.64266,0.63619 0.35914,-12.16466 c 0.31416,-10.64056 0.60222,-12.34237 2.2992,-13.58323 2.83728,-2.07466 6.22392,-1.73429 8.00198,0.80423 1.14816,1.6392 1.55693,4.7581 1.55693,11.87918 0,10.3077 0.37976,11.20573 5.25635,12.42966 l 2.74482,0.6889 -0.004,-12.86017 c -0.003,-10.98243 -0.28829,-13.32686 -1.95255,-16.05629 -3.93302,-6.45027 -10.52108,-8.51578 -17.42334,-5.46261 l -4.47612,1.97998 -4.20949,-2.08268 c -3.72495,-1.84293 -4.71761,-1.94676 -8.62375,-0.90204 -3.20982,0.85849 -4.9681,0.88422 -6.44409,0.0943 -4.50457,-2.4109 -4.87369,-1.1331 -4.87369,16.8721 0,9.27687 0.32147,17.1885 0.71436,17.5814 0.3929,0.39289 2.30568,0.58042 4.25063,0.41672 l 3.53625,-0.29763 z m 72.24974,10.42451 c 0,-0.86743 -1.31557,-2.89271 -2.92351,-4.50062 -2.45492,-2.45491 -3.72841,-2.92348 -7.94539,-2.92348 -3.9149,0 -5.64049,-0.54421 -7.82808,-2.46874 l -2.80617,-2.46874 13.25194,-0.0316 13.25194,-0.0316 -0.022,-3.75052 c -0.0303,-5.17236 -3.11974,-11.5039 -6.94092,-14.22479 -11.99644,-8.54218 -28.0422,-0.60146 -28.0422,13.87753 0,11.63875 7.87608,18.037 22.25325,18.07774 6.40047,0.0181 7.75114,-0.25286 7.75114,-1.55517 z m -18.69698,-22.95784 c 3.25264,-2.86151 8.13576,-3.24958 11.47341,-0.91182 3.83125,2.68349 2.48626,3.44478 -6.02837,3.41217 l -8.25121,-0.0316 z m 35.19939,-0.45476 c 0,-22.7833 -0.12537,-24.51382 -1.79943,-24.83622 -0.98968,-0.19059 -2.90246,0.3762 -4.25062,1.25954 l -2.45119,1.60607 v 23.53767 23.53769 l 4.25062,-0.30754 4.25062,-0.30754 z m 27.02724,23.54426 c 3.01157,-1.25831 3.81686,-1.25911 6.21879,-0.006 5.1055,2.6632 5.25961,2.36727 5.25961,-10.09961 0,-12.74928 -0.81536,-15.43633 -6.01043,-19.80765 -7.27651,-6.12273 -16.44808,-5.45973 -23.60056,1.70605 -2.97952,2.98507 -4.33669,5.31042 -4.83676,8.28729 -2.27702,13.55457 10.88493,24.96922 22.96935,19.92008 z m -10.16069,-8.72551 c -4.95388,-2.39869 -5.70479,-9.64571 -1.44121,-13.90925 5.42591,-5.42585 13.49191,-2.53509 14.73615,5.28126 0.50947,3.20046 0.17536,4.1184 -2.45719,6.75093 -3.20435,3.20432 -6.80773,3.8284 -10.83775,1.87706 z m 47.74369,9.03477 c 7.18314,-2.40068 12.13177,-9.28054 12.13177,-16.86626 0,-11.61727 -11.24402,-20.21132 -21.86763,-16.71391 l -4.36698,1.43765 v -8.36407 c 0,-8.25492 -0.0326,-8.36407 -2.50037,-8.36407 -1.3752,0 -3.40049,0.90012 -4.50066,2.00027 -1.8207,1.8207 -2.00029,3.33379 -2.00029,16.8531 0,16.82621 0.74504,20.05575 5.8677,25.43485 5.0249,5.27642 10.66965,6.77713 17.23646,4.58244 z m -11.17933,-10.7885 c -1.9953,-1.99527 -2.92351,-3.92496 -2.92351,-6.07776 0,-4.3025 4.69878,-9.00124 9.00132,-9.00124 2.15281,0 4.08252,0.92821 6.07781,2.92348 1.99529,1.99527 2.9235,3.92496 2.9235,6.07776 0,4.3025 -4.69877,9.00124 -9.00131,9.00124 -2.15282,0 -4.08253,-0.92821 -6.07781,-2.92348 z m -150.39965,-52.5387 c 2.34321,-2.34318 2.45491,-3.02071 2.45491,-14.89126 0,-17.47651 0.3207,-17.15859 -17.309192,-17.15859 -18.238203,0 -17.695932,-0.52355 -17.695932,17.08475 0,13.14915 0.02483,13.29379 2.635245,15.34712 2.344484,1.84416 4.004771,2.07287 15.047657,2.07287 11.845083,0 12.524618,-0.11221 14.867312,-2.45489 z m 86.01259,0 c 2.34554,-2.34551 2.45491,-3.01387 2.45491,-15.00206 0,-17.41155 -0.65197,-17.98326 -19.82899,-17.38822 -15.35312,0.47638 -15.17613,0.27318 -15.17613,17.42518 0,13.14915 0.0248,13.29379 2.63524,15.34712 2.34448,1.84416 4.00477,2.07287 15.04765,2.07287 11.84509,0 12.52463,-0.11221 14.86732,-2.45489 z m 43.0063,0 c 2.34321,-2.34318 2.45491,-3.02071 2.45491,-14.89126 0,-17.2951 0.22779,-17.05635 -16.68174,-17.48354 -11.91158,-0.30092 -13.06429,-0.16616 -15.59291,1.82283 -2.73035,2.14768 -2.73048,2.1484 -2.73048,15.50445 0,13.23819 0.0234,13.37507 2.63525,15.42954 2.34448,1.84416 4.00476,2.07287 15.04765,2.07287 11.84508,0 12.52462,-0.11221 14.86732,-2.45489 z M 58.483562,150.47505 c 1.787702,-1.78768 2.000293,-3.33378 2.000293,-14.54745 0,-11.98818 -0.10937,-12.65655 -2.454905,-15.00206 -2.349338,-2.34932 -3.002454,-2.45489 -15.187772,-2.45489 -11.696629,0 -12.921253,0.17698 -15.047658,2.17461 -2.182147,2.05001 -2.31479,2.89691 -2.31479,14.77954 0,17.68215 -0.63194,17.05053 17.059201,17.05053 12.61181,0 14.136617,-0.19128 15.945631,-2.00028 z m 86.012588,0 c 1.7877,-1.78768 2.00029,-3.33378 2.00029,-14.54745 0,-11.98818 -0.10936,-12.65655 -2.45491,-15.00206 -2.35552,-2.35551 -2.98303,-2.45489 -15.50226,-2.45489 -17.5068,0 -17.04795,-0.46223 -17.04795,17.17363 0,17.58283 -0.76637,16.83105 17.1575,16.83105 12.51351,0 14.03968,-0.19264 15.84733,-2.00028 z m 43.0063,0 c 1.7877,-1.78768 2.00029,-3.33378 2.00029,-14.54745 0,-11.98818 -0.10937,-12.65655 -2.45491,-15.00206 -2.35552,-2.35551 -2.98304,-2.45489 -15.50227,-2.45489 -17.50679,0 -17.04794,-0.46223 -17.04794,17.17363 0,17.58283 -0.76638,16.83105 17.1575,16.83105 12.51351,0 14.03967,-0.19264 15.84733,-2.00028 z m 84.61268,1.23486 c 2.61388,-1.74532 3.4002,-5.61119 3.4002,-16.71669 0,-10.99613 -0.13036,-11.74316 -2.45491,-14.06768 -2.35552,-2.35551 -2.98303,-2.45489 -15.50227,-2.45489 -17.50679,0 -17.04794,-0.46223 -17.04794,17.17363 0,17.56046 -0.72882,16.8356 16.90746,16.81574 7.47835,-0.008 14.09221,-0.34597 14.69746,-0.75011 z M 58.169065,107.29481 c 2.186266,-2.05387 2.31479,-2.88683 2.31479,-15.002063 0,-17.293318 0.483972,-16.828 -17.502563,-16.828 -18.008874,0 -17.502562,-0.491841 -17.502562,17.002338 0,17.456055 -0.458674,17.002335 17.188065,17.002335 12.163389,0 13.367237,-0.16888 15.50227,-2.17461 z m 43.248195,-0.46062 c 1.8225,-2.3169 2.07289,-4.01617 2.07289,-14.067664 0,-10.926004 -0.79607,-14.797548 -3.4002,-16.53636 -0.605257,-0.404134 -7.063831,-0.74168 -14.352398,-0.750103 -17.720827,-0.02048 -17.252526,-0.481575 -17.252526,16.987022 0,17.485485 -0.495308,17.002335 17.429972,17.002335 13.31673,0 13.446774,-0.0221 15.502262,-2.63523 z m 86.0126,0 c 1.83931,-2.33828 2.07288,-4.00747 2.07288,-14.813463 0,-16.829148 0.28943,-16.55598 -17.54153,-16.55598 -17.964,0 -17.46359,-0.487189 -17.46359,17.002338 0,17.485485 -0.49532,17.002335 17.42997,17.002335 13.31673,0 13.44678,-0.0221 15.50227,-2.63523 z m 43.00629,0 c 1.82951,-2.32582 2.07289,-4.01267 2.07289,-14.367105 0,-10.354439 -0.24338,-12.0413 -2.07289,-14.367116 -2.05781,-2.616059 -2.17178,-2.635222 -15.67355,-2.635222 -18.02035,0 -17.25869,-0.735119 -17.25869,16.657279 0,17.883064 -0.53823,17.347394 17.42997,17.347394 13.31673,0 13.44678,-0.0221 15.50227,-2.63523 z m 43.0063,0 c 1.82951,-2.32582 2.07288,-4.01267 2.07288,-14.367105 0,-10.354439 -0.24337,-12.0413 -2.07288,-14.367116 -2.05781,-2.616059 -2.17178,-2.635222 -15.67356,-2.635222 -18.02034,0 -17.25868,-0.735119 -17.25868,16.657279 0,17.883064 -0.53823,17.347394 17.42997,17.347394 13.31673,0 13.44678,-0.0221 15.50227,-2.63523 z M 58.02895,64.008627 c 2.343209,-2.343189 2.454905,-3.020722 2.454905,-14.891263 0,-17.476516 0.320708,-17.158598 -17.309193,-17.158598 -18.238203,0 -17.695932,-0.523543 -17.695932,17.084756 0,13.149154 0.02484,13.293794 2.635245,15.347123 2.344484,1.844154 4.004771,2.072865 15.047657,2.072865 11.845083,0 12.524618,-0.112205 14.867318,-2.454883 z m 43.00629,0 c 2.34321,-2.343189 2.45491,-3.020722 2.45491,-14.891263 0,-17.295103 0.22779,-17.056357 -16.68173,-17.483541 -11.911583,-0.300921 -13.064293,-0.166169 -15.592918,1.822831 -2.73035,2.147674 -2.730476,2.148391 -2.730476,15.50445 0,13.238191 0.02338,13.375063 2.635245,15.429541 2.344484,1.844154 4.004771,2.072865 15.047657,2.072865 11.845083,0 12.524618,-0.112205 14.867312,-2.454883 z m 43.00629,0 c 2.34322,-2.343189 2.45491,-3.020722 2.45491,-14.891263 0,-17.295103 0.2278,-17.056357 -16.68173,-17.483541 -11.91158,-0.300921 -13.06429,-0.166169 -15.59291,1.822831 -2.73035,2.147674 -2.73048,2.148391 -2.73048,15.50445 0,13.238191 0.0234,13.375063 2.63525,15.429541 2.34448,1.844154 4.00476,2.072865 15.04765,2.072865 11.84508,0 12.52462,-0.112205 14.86731,-2.454883 z m 43.0063,0 c 2.34554,-2.345513 2.45491,-3.013882 2.45491,-15.002062 0,-17.411555 -0.65197,-17.983272 -19.82899,-17.388228 -15.35312,0.476391 -15.17613,0.273176 -15.17613,17.425185 0,13.149154 0.0248,13.293794 2.63524,15.347123 2.34448,1.844154 4.00477,2.072865 15.04765,2.072865 11.84509,0 12.52463,-0.112205 14.86732,-2.454883 z m 43.0063,0 c 2.34321,-2.343189 2.45491,-3.020722 2.45491,-14.891263 0,-17.295103 0.22779,-17.056357 -16.68174,-17.483541 -11.91158,-0.300921 -13.06429,-0.166169 -15.59291,1.822831 -2.73035,2.147674 -2.73048,2.148391 -2.73048,15.50445 0,13.238191 0.0234,13.375063 2.63525,15.429541 2.34448,1.844154 4.00476,2.072865 15.04765,2.072865 11.84508,0 12.52462,-0.112205 14.86732,-2.454883 z m 42.6,0.545051 c 2.19581,-1.776115 2.3848,-2.727074 2.69921,-13.582239 0.54047,-18.660015 -0.68211,-19.894857 -19.15853,-19.350749 -15.93595,0.469295 -15.6846,0.190097 -15.6846,17.422832 0,13.149154 0.0248,13.293794 2.63524,15.347123 2.34039,1.84093 4.0066,2.072865 14.89139,2.072865 10.57161,0 12.58069,-0.262497 14.61729,-1.909832 z"
       id="path4530"
       inkscape:connector-curvature="0"
       inkscape:export-xdpi="160"
       inkscape:export-ydpi="160" />
  </g>
</svg>
